<?xml version="1.0" encoding="UTF-8"?>
<svg width="142px" height="48px" viewBox="0 0 142 48" version="1.1" xmlns="http://www.w3.org/2000/svg" xmlns:xlink="http://www.w3.org/1999/xlink">
    <!-- Generator: Sketch 47 (45396) - http://www.bohemiancoding.com/sketch -->
    <title>Android@1x</title>
    <desc>Created with Sketch.</desc>
    <defs>
        <linearGradient x1="0%" y1="0%" x2="100%" y2="100%" id="linearGradient-1">
            <stop stop-color="#2962FF" offset="0%"></stop>
            <stop stop-color="#5E0BE0" offset="100%"></stop>
        </linearGradient>
        <rect id="path-2" x="0" y="0" width="138" height="44" rx="2"></rect>
        <filter x="-2.5%" y="-5.7%" width="105.1%" height="115.9%" filterUnits="objectBoundingBox" id="filter-3">
            <feOffset dx="0" dy="1" in="SourceAlpha" result="shadowOffsetOuter1"></feOffset>
            <feGaussianBlur stdDeviation="1" in="shadowOffsetOuter1" result="shadowBlurOuter1"></feGaussianBlur>
            <feColorMatrix values="0 0 0 0 0   0 0 0 0 0   0 0 0 0 0  0 0 0 0.5 0" type="matrix" in="shadowBlurOuter1"></feColorMatrix>
        </filter>
    </defs>
    <g id="Home" stroke="none" stroke-width="1" fill="none" fill-rule="evenodd">
        <g id="home_landing-copy-2" transform="translate(-170.000000, -657.000000)">
            <g id="Android" transform="translate(172.000000, 658.000000)">
                <g id="Rectangle-10">
                    <use fill="black" fill-opacity="1" filter="url(#filter-3)" xlink:href="#path-2"></use>
                    <use fill="url(#linearGradient-1)" fill-rule="evenodd" xlink:href="#path-2"></use>
                </g>
                <g id="Group-5" transform="translate(9.000000, 9.000000)" fill="#FFFFFF">
                    <path d="M33.4749818,2.10057436 C33.1564432,1.15797925 32.9963855,0.649240366 32.9963855,0.572041749 L32.9522316,0.572041749 C32.9522316,0.643064476 32.7866546,1.15257535 32.4570776,2.10057436 L33.4749818,2.10057436 Z M34.7672709,3.64763463 L33.8723666,3.64763463 C33.8723666,3.52720479 33.7872127,3.18598691 33.6176934,2.62320899 L32.3254044,2.62320899 C32.1503659,3.17672307 32.0628466,3.51794096 32.0628466,3.64763463 L31.2207693,3.64763463 C31.2207693,3.57661191 31.4383848,2.99221838 31.8736158,1.89522604 C32.3088467,0.797461709 32.5264622,0.193768528 32.5264622,0.0818305336 L33.5837896,0.0818305336 C33.5837896,0.186048666 33.780905,0.782021986 34.1759244,1.86897851 C34.5701554,2.95593503 34.7672709,3.54882041 34.7672709,3.64763463 Z M38.3736955,3.64763463 L37.6830029,3.64763463 C37.6830029,3.57275198 37.4267528,3.17749506 36.9134641,2.46186388 C36.3765216,1.7076334 36.0705983,1.19194664 35.9964829,0.914803607 L35.9515406,0.914803607 C35.9980599,1.31469244 36.0217137,1.67598197 36.0217137,1.99867218 C36.0217137,2.45028409 36.0343291,2.99993824 36.0603483,3.64763463 L35.3728096,3.64763463 C35.4004057,3.08176877 35.4145981,2.46031991 35.4145981,1.78251606 C35.4145981,1.116292 35.4004057,0.54965415 35.3728096,0.0818305336 L36.2030599,0.0818305336 C36.2030599,0.179100791 36.4332908,0.565093874 36.894541,1.24058177 C37.3849643,1.95775692 37.6664452,2.44488019 37.7389837,2.70040761 L37.7807722,2.70040761 C37.7358298,2.29279891 37.7137529,1.92764946 37.7137529,1.60495924 C37.7137529,1.11011611 37.700349,0.602149209 37.6743298,0.0818305336 L38.3736955,0.0818305336 C38.3476763,0.534986413 38.3350609,1.10162426 38.3350609,1.78251606 C38.3350609,2.46958375 38.3476763,3.09103261 38.3736955,3.64763463 Z M42.4279665,1.74160079 C42.4279665,2.26037549 42.2584472,2.71275939 41.9186201,3.10029644 C41.5795815,3.48706151 41.104139,3.68083004 40.4922926,3.68083004 C40.2163309,3.68083004 39.8362923,3.66925025 39.3513882,3.64763463 C39.3750421,3.09643651 39.3876575,2.47498765 39.3876575,1.78251606 C39.3876575,1.11783597 39.3750421,0.551198123 39.3513882,0.0818305336 L39.8402346,0.0818305336 C39.9206577,0.0818305336 40.0397154,0.0795145751 40.1989847,0.0741106719 C40.3566771,0.0687067688 40.4607541,0.0656188241 40.5088503,0.0656188241 C41.1821967,0.0656188241 41.6702546,0.230051877 41.973024,0.558917984 C42.2765818,0.887012105 42.4279665,1.28149704 42.4279665,1.74160079 Z M41.6639469,1.85971467 C41.6639469,1.50846097 41.5598699,1.21356225 41.3509276,0.973474555 C41.1419852,0.733386858 40.8234466,0.612957016 40.3945233,0.612957016 C40.3141002,0.612957016 40.204504,0.621448864 40.0641578,0.637660573 C40.0830808,1.00281003 40.0925424,1.38494318 40.0925424,1.78251606 C40.0925424,2.21946023 40.1020039,2.65177248 40.1201386,3.08099679 C40.2415617,3.10492836 40.3629848,3.11650815 40.4836195,3.11650815 C40.8849466,3.11650815 41.1821967,2.99453434 41.3745814,2.75058671 C41.5677546,2.50741107 41.6639469,2.21019639 41.6639469,1.85971467 Z M46.1660642,3.64763463 L45.3381793,3.64763463 C45.1213523,3.00148221 44.9557753,2.60236537 44.8398714,2.45105608 C44.7247559,2.29974679 44.5378905,2.22332016 44.2808519,2.22332016 C44.1728326,2.22332016 44.0687556,2.22486413 43.9701979,2.2264081 C43.9701979,2.69577569 43.978871,3.1697752 43.9954287,3.64763463 L43.2180053,3.64763463 C43.2424476,3.09643651 43.2542745,2.47498765 43.2542745,1.78251606 C43.2542745,1.11783597 43.2424476,0.551198123 43.2180053,0.0818305336 L43.7021209,0.0818305336 C43.7581017,0.0818305336 43.874794,0.0795145751 44.0529864,0.0741106719 C44.2311788,0.0687067688 44.3951789,0.0656188241 44.5465635,0.0656188241 C45.4020447,0.0656188241 45.8301795,0.352025692 45.8301795,0.925611413 C45.8301795,1.38031126 45.5857563,1.69682559 45.0976984,1.87592638 L45.0976984,1.91684165 C45.2861408,1.96779274 45.4509293,2.11215415 45.5928525,2.34838192 C45.7339871,2.58460968 45.9255834,3.01769392 46.1660642,3.64763463 Z M45.1174099,1.12787179 C45.1174099,0.765038291 44.878506,0.582849555 44.4006981,0.582849555 C44.2256596,0.582849555 44.071121,0.59597332 43.9370825,0.621448864 C43.9575825,0.904767787 43.9678325,1.27300519 43.9678325,1.72770504 C44.0703326,1.73156497 44.1570634,1.73310894 44.2280249,1.73310894 C44.8209483,1.73310894 45.1174099,1.53162055 45.1174099,1.12787179 Z M50.1753929,1.79949975 C50.1753929,2.35996171 50.0003544,2.82469738 49.6494888,3.19293478 C49.2986233,3.56194417 48.8657577,3.74644886 48.3493152,3.74644886 C47.8565265,3.74644886 47.444161,3.57661191 47.113007,3.23848197 C46.7810645,2.89958004 46.6146991,2.46958375 46.6146991,1.94694911 C46.6146991,1.38648715 46.7897376,0.921751482 47.1406031,0.552742095 C47.4914687,0.184504694 47.9243342,0 48.4415652,0 C48.9335654,0 49.345931,0.16906497 49.6778735,0.506422925 C50.0090274,0.844552866 50.1753929,1.27532115 50.1753929,1.79949975 Z M49.4034887,1.87824234 C49.4034887,1.49688118 49.3033541,1.18731472 49.1038732,0.95031497 C48.9043924,0.712543231 48.6583922,0.594429348 48.3658729,0.594429348 C48.0930651,0.594429348 47.8620457,0.714087204 47.6720264,0.952630929 C47.4820071,1.19194664 47.3866032,1.49456522 47.3866032,1.85971467 C47.3866032,2.23953187 47.4867379,2.54832633 47.6877957,2.78609807 C47.888065,3.0246418 48.1332766,3.14352767 48.4242191,3.14352767 C48.6970269,3.14352767 48.9280462,3.02386981 49.1180655,2.78378211 C49.3080848,2.54369442 49.4034887,2.24184783 49.4034887,1.87824234 Z M51.7570474,3.64763463 L50.9654317,3.64763463 C50.989874,3.08176877 51.001701,2.46031991 51.001701,1.78251606 C51.001701,1.116292 50.989874,0.54965415 50.9654317,0.0818305336 L51.7570474,0.0818305336 C51.7326051,0.541934289 51.7207782,1.10934412 51.7207782,1.78251606 C51.7207782,2.47112772 51.7326051,3.09257658 51.7570474,3.64763463 Z M55.8113184,1.74160079 C55.8113184,2.26037549 55.6410106,2.71275939 55.301972,3.10029644 C54.9629334,3.48706151 54.4867025,3.68083004 53.8756445,3.68083004 C53.5996828,3.68083004 53.2188558,3.66925025 52.7339517,3.64763463 C52.758394,3.09643651 52.7710094,2.47498765 52.7710094,1.78251606 C52.7710094,1.11783597 52.758394,0.551198123 52.7339517,0.0818305336 L53.2235865,0.0818305336 C53.3040096,0.0818305336 53.4230674,0.0795145751 53.5815482,0.0741106719 C53.7400291,0.0687067688 53.844106,0.0656188241 53.8922022,0.0656188241 C54.5655486,0.0656188241 55.0536065,0.230051877 55.3563759,0.558917984 C55.6591453,0.887012105 55.8113184,1.28149704 55.8113184,1.74160079 Z M55.0472989,1.85971467 C55.0472989,1.50846097 54.9432219,1.21356225 54.7342795,0.973474555 C54.5253371,0.733386858 54.2067985,0.612957016 53.7778752,0.612957016 C53.6974521,0.612957016 53.5870675,0.621448864 53.4475097,0.637660573 C53.4664328,1.00281003 53.4758943,1.38494318 53.4758943,1.78251606 C53.4758943,2.21946023 53.4845674,2.65177248 53.5034905,3.08099679 C53.6249136,3.10492836 53.7455483,3.11650815 53.8669714,3.11650815 C54.2682985,3.11650815 54.5647602,2.99453434 54.7579333,2.75058671 C54.9511065,2.50741107 55.0472989,2.21019639 55.0472989,1.85971467 Z M61.1894169,3.64763463 L60.2945127,3.64763463 C60.2945127,3.52720479 60.2093588,3.18598691 60.0398395,2.62320899 L58.7475505,2.62320899 C58.5725119,3.17672307 58.4842042,3.51794096 58.4842042,3.64763463 L57.6429154,3.64763463 C57.6429154,3.57661191 57.8605308,2.99221838 58.2957618,1.89522604 C58.7309928,0.797461709 58.9486082,0.193768528 58.9486082,0.0818305336 L60.0059356,0.0818305336 C60.0059356,0.186048666 60.2030511,0.782021986 60.5980705,1.86897851 C60.9923014,2.95593503 61.1894169,3.54882041 61.1894169,3.64763463 Z M59.8971279,2.10057436 C59.5785893,1.15797925 59.4185315,0.649240366 59.4185315,0.572041749 L59.3735892,0.572041749 C59.3735892,0.643064476 59.2088007,1.15257535 58.8792236,2.10057436 L59.8971279,2.10057436 Z M64.4520721,1.01593379 C64.4520721,1.45210598 64.2864952,1.7747962 63.9553412,1.98246047 C63.6249756,2.19089674 63.2189178,2.29511487 62.7371676,2.29511487 C62.6496483,2.29511487 62.5873598,2.29279891 62.5503021,2.28971097 C62.5503021,2.63247283 62.5605521,3.08562871 62.5810521,3.64763463 L61.7949556,3.64763463 C61.8186095,3.12036808 61.8312249,2.49814723 61.8312249,1.78251606 C61.8312249,1.12555583 61.8186095,0.558917984 61.7949556,0.0818305336 L62.2814366,0.0818305336 C62.3500328,0.0818305336 62.4832828,0.0795145751 62.6788214,0.0741106719 C62.8743599,0.0687067688 63.0438792,0.0656188241 63.1873793,0.0656188241 C63.5421871,0.0656188241 63.8410142,0.144361413 64.0854374,0.301074605 C64.3298606,0.458559783 64.4520721,0.696331522 64.4520721,1.01593379 Z M63.7306295,1.1664711 C63.7306295,0.775846097 63.4657063,0.580533597 62.93586,0.580533597 C62.8033984,0.580533597 62.6638406,0.594429348 62.5163982,0.621448864 C62.5368982,0.96652668 62.5471482,1.35715168 62.5471482,1.79332386 C62.5936675,1.79718379 62.6480714,1.79949975 62.7095714,1.79949975 C63.390014,1.79949975 63.7306295,1.58797554 63.7306295,1.1664711 Z M67.8069774,1.01593379 C67.8069774,1.45210598 67.6414005,1.7747962 67.3102465,1.98246047 C66.9790925,2.19089674 66.5730346,2.29511487 66.0920729,2.29511487 C66.0045536,2.29511487 65.9422651,2.29279891 65.9044189,2.28971097 C65.9044189,2.63247283 65.9146689,3.08562871 65.9351689,3.64763463 L65.1498609,3.64763463 C65.1735148,3.12036808 65.1861302,2.49814723 65.1861302,1.78251606 C65.1861302,1.12555583 65.1735148,0.558917984 65.1498609,0.0818305336 L65.6363419,0.0818305336 C65.7049381,0.0818305336 65.8373997,0.0795145751 66.0337267,0.0741106719 C66.2292652,0.0687067688 66.3987845,0.0656188241 66.5422846,0.0656188241 C66.896304,0.0656188241 67.1959195,0.144361413 67.4403427,0.301074605 C67.6847659,0.458559783 67.8069774,0.696331522 67.8069774,1.01593379 Z M67.0847464,1.1664711 C67.0847464,0.775846097 66.8206116,0.580533597 66.2907653,0.580533597 C66.1583037,0.580533597 66.0179574,0.594429348 65.8713035,0.621448864 C65.8918035,0.96652668 65.9020535,1.35715168 65.9020535,1.79332386 C65.9485728,1.79718379 66.0029767,1.79949975 66.0644767,1.79949975 C66.7449193,1.79949975 67.0847464,1.58797554 67.0847464,1.1664711 Z M73.2915183,1.79949975 C73.2915183,2.35996171 73.1164797,2.82469738 72.7656142,3.19293478 C72.4147487,3.56194417 71.9810946,3.74644886 71.4646521,3.74644886 C70.9726519,3.74644886 70.5602863,3.57661191 70.2283439,3.23848197 C69.8971899,2.89958004 69.7308244,2.46958375 69.7308244,1.94694911 C69.7308244,1.38648715 69.905863,0.921751482 70.2567285,0.552742095 C70.607594,0.184504694 71.0404596,0 71.5569021,0 C72.0496908,0 72.4620564,0.16906497 72.7932104,0.506422925 C73.1251528,0.844552866 73.2915183,1.27532115 73.2915183,1.79949975 Z M72.5196141,1.87824234 C72.5196141,1.49688118 72.4194794,1.18731472 72.2199986,0.95031497 C72.0205177,0.712543231 71.7745176,0.594429348 71.4819983,0.594429348 C71.2091905,0.594429348 70.9781711,0.714087204 70.7881518,0.952630929 C70.5981325,1.19194664 70.5027286,1.49456522 70.5027286,1.85971467 C70.5027286,2.23953187 70.6028633,2.54832633 70.803921,2.78609807 C71.0041904,3.0246418 71.249402,3.14352767 71.5403444,3.14352767 C71.8131523,3.14352767 72.0441716,3.02386981 72.2341909,2.78378211 C72.4242102,2.54369442 72.5196141,2.24184783 72.5196141,1.87824234 Z M77.082443,3.64763463 L76.3917504,3.64763463 C76.3917504,3.57275198 76.1355003,3.17749506 75.6230001,2.46186388 C75.0852691,1.7076334 74.7793458,1.19194664 74.7052304,0.914803607 L74.6602881,0.914803607 C74.7068073,1.31469244 74.7304612,1.67598197 74.7304612,1.99867218 C74.7304612,2.45028409 74.7430766,2.99993824 74.7698843,3.64763463 L74.0815571,3.64763463 C74.1091532,3.08176877 74.1233456,2.46031991 74.1233456,1.78251606 C74.1233456,1.116292 74.1091532,0.54965415 74.0815571,0.0818305336 L74.9118074,0.0818305336 C74.9118074,0.179100791 75.1428268,0.565093874 75.6032885,1.24058177 C76.0937118,1.95775692 76.3751927,2.44488019 76.4477312,2.70040761 L76.4895197,2.70040761 C76.4445773,2.29279891 76.4225004,1.92764946 76.4225004,1.60495924 C76.4225004,1.11011611 76.409885,0.602149209 76.3830773,0.0818305336 L77.082443,0.0818305336 C77.0564237,0.534986413 77.0438084,1.10162426 77.0438084,1.78251606 C77.0438084,2.46958375 77.0564237,3.09103261 77.082443,3.64763463 Z M44.0861018,15.0714859 C44.0861018,16.8408782 43.5499477,18.2512969 42.4776396,19.3011981 C41.2602544,20.5518157 39.6754461,21.1771245 37.7232144,21.1771245 C35.8553483,21.1771245 34.2681745,20.5433239 32.9609047,19.2749506 C31.6528464,18.0065773 31,16.4340415 31,14.5581151 C31,12.6829607 31.6528464,11.1104249 32.9609047,9.84205163 C34.2681745,8.57367836 35.8553483,7.93987772 37.7232144,7.93987772 C38.6512341,7.93987772 39.5366768,8.11589056 40.3811194,8.47023221 C41.2239852,8.82380188 41.8989086,9.2970294 42.4051011,9.88605484 L41.2665621,11.0015749 C40.411081,9.99876482 39.2299651,9.49697381 37.7232144,9.49697381 C36.3615408,9.49697381 35.1843672,9.96556942 34.1901168,10.9043046 C33.1958663,11.8422678 32.6983469,13.060462 32.6983469,14.5581151 C32.6983469,16.0573123 33.1958663,17.2747344 34.1901168,18.2134696 C35.1843672,19.1506608 36.3615408,19.6200284 37.7232144,19.6200284 C39.1692535,19.6200284 40.3748117,19.1483449 41.3383122,18.2042058 C41.9651394,17.5904768 42.3262549,16.7351161 42.4224472,15.6381238 L37.7232144,15.6381238 L37.7232144,14.115767 L43.9954287,14.115767 C44.0561403,14.4469491 44.0861018,14.7650074 44.0861018,15.0714859 Z M46.056468,13.2580904 C46.9119492,12.3787982 48.002392,11.939538 49.3277964,11.939538 C50.6532008,11.939538 51.7436436,12.3787982 52.5999132,13.2580904 C53.4553943,14.1366107 53.8827407,15.236691 53.8827407,16.5583313 C53.8827407,17.8799716 53.4553943,18.9800519 52.5999132,19.8585721 C51.7436436,20.7378644 50.6532008,21.1771245 49.3277964,21.1771245 C48.002392,21.1771245 46.9119492,20.7378644 46.056468,19.8585721 C45.2009869,18.9800519 44.7728521,17.8799716 44.7728521,16.5583313 C44.7728521,15.236691 45.2009869,14.1366107 46.056468,13.2580904 Z M47.2943532,18.8318305 C47.8667765,19.4046443 48.5440653,19.6910511 49.3277964,19.6910511 C50.110739,19.6910511 50.7888162,19.4046443 51.3612396,18.8318305 C51.9336629,18.2597888 52.2198746,17.5024704 52.2198746,16.5583313 C52.2198746,15.6141922 51.9336629,14.8568738 51.3612396,14.28406 C50.7888162,13.7120183 50.110739,13.4256114 49.3277964,13.4256114 C48.5440653,13.4256114 47.8667765,13.7120183 47.2943532,14.28406 C46.7219299,14.8568738 46.4357182,15.6141922 46.4357182,16.5583313 C46.4357182,17.5024704 46.7219299,18.2597888 47.2943532,18.8318305 Z M55.7261645,13.2580904 C56.5816457,12.3787982 57.6720884,11.939538 58.9982813,11.939538 C60.3228973,11.939538 61.4133401,12.3787982 62.2696097,13.2580904 C63.1250908,14.1366107 63.5524371,15.236691 63.5524371,16.5583313 C63.5524371,17.8799716 63.1250908,18.9800519 62.2696097,19.8585721 C61.4133401,20.7378644 60.3228973,21.1771245 58.9982813,21.1771245 C57.6720884,21.1771245 56.5816457,20.7378644 55.7261645,19.8585721 C54.8706834,18.9800519 54.4425486,17.8799716 54.4425486,16.5583313 C54.4425486,15.236691 54.8706834,14.1366107 55.7261645,13.2580904 Z M56.9648381,18.8318305 C57.536473,19.4046443 58.2145502,19.6910511 58.9982813,19.6910511 C59.781224,19.6910511 60.4585127,19.4046443 61.0317245,18.8318305 C61.6041478,18.2597888 61.8903595,17.5024704 61.8903595,16.5583313 C61.8903595,15.6141922 61.6041478,14.8568738 61.0317245,14.28406 C60.4585127,13.7120183 59.781224,13.4256114 58.9982813,13.4256114 C58.2145502,13.4256114 57.536473,13.7120183 56.9648381,14.28406 C56.3916264,14.8568738 56.1062032,15.6141922 56.1062032,16.5583313 C56.1062032,17.5024704 56.3916264,18.2597888 56.9648381,18.8318305 Z M68.4700739,25 C67.4206311,25 66.56515,24.7437006 65.902842,24.2303298 C65.2397456,23.716187 64.7635146,23.1294775 64.4749375,22.4686574 L65.9935151,21.8502964 C66.162246,22.321208 66.4721115,22.7172369 66.9246886,23.0352952 C67.3756888,23.3541255 67.8905544,23.5131546 68.4700739,23.5131546 C69.3854781,23.5131546 70.1053438,23.2445035 70.629671,22.7079731 C71.1539981,22.1714427 71.4157675,21.4426877 71.4157675,20.5224802 L71.4157675,19.6910511 L71.343229,19.6910511 C71.0538635,20.1148715 70.6438633,20.4692132 70.1140169,20.7525321 C69.5841705,21.035851 68.9873049,21.1771245 68.3249969,21.1771245 C67.1801503,21.1771245 66.1922075,20.7347764 65.3603802,19.8500803 C64.528553,18.9646122 64.1130335,17.8676198 64.1130335,16.5583313 C64.1130335,15.2490427 64.528553,14.1512784 65.3603802,13.2658103 C66.1922075,12.3818861 67.1801503,11.939538 68.3249969,11.939538 C68.9873049,11.939538 69.5841705,12.0808115 70.1140169,12.3633584 C70.6438633,12.6474494 71.0538635,13.001019 71.343229,13.4256114 L71.4157675,13.4256114 L71.4157675,12.222085 L73.0060951,12.222085 L73.0060951,20.4514575 C73.0060951,21.9383029 72.5661333,23.0677186 71.6869984,23.8412488 C70.8070749,24.6132349 69.7347667,25 68.4700739,25 Z M68.5962278,19.6910511 C69.3791704,19.6910511 70.0454207,19.4069602 70.5934017,18.8410944 C71.1413827,18.2752285 71.4157675,17.5132782 71.4157675,16.5583313 C71.4157675,15.6026124 71.1413827,14.841434 70.5934017,14.2755682 C70.0454207,13.7089303 69.3791704,13.4256114 68.5962278,13.4256114 C67.8243236,13.4256114 67.1612272,13.7120183 66.6077269,14.28406 C66.0534382,14.8568738 65.7758996,15.6141922 65.7758996,16.5583313 C65.7758996,17.5024704 66.0534382,18.2597888 66.6077269,18.8318305 C67.1612272,19.4046443 67.8243236,19.6910511 68.5962278,19.6910511 Z M74.5790765,20.8938056 L74.5790765,8.22242465 L76.2411542,8.22242465 L76.2411542,20.8938056 L74.5790765,20.8938056 Z M81.735945,21.1771245 C80.3979252,21.1771245 79.3106363,20.7409523 78.4732897,19.867064 C77.6359432,18.9947196 77.2164815,17.8915514 77.2164815,16.5583313 C77.2164815,15.2953619 77.6233278,14.2107213 78.4370205,13.3013216 C79.2499247,12.3934659 80.2899059,11.939538 81.5545988,11.939538 C82.8681763,11.939538 83.9191959,12.3587265 84.7084463,13.1963315 C85.4976966,14.0339365 85.892716,15.1548604 85.892716,16.5583313 L85.8753699,16.8594059 L78.8801361,16.8594059 C78.9274438,17.7325222 79.2262708,18.4226779 79.7742518,18.9291008 C80.3230213,19.4370677 80.9640408,19.6910511 81.6996758,19.6910511 C82.8926186,19.6910511 83.7000035,19.194664 84.1218306,18.2042058 L85.6033505,18.805583 C85.3147735,19.477983 84.837754,20.0423048 84.1754461,20.4962327 C83.5131381,20.9493886 82.6994454,21.1771245 81.735945,21.1771245 Z M84.1218306,15.513834 C84.0855614,15.0182189 83.8529651,14.5473073 83.4256188,14.0980114 C82.997484,13.6494874 82.3619837,13.4256114 81.5183295,13.4256114 C80.9041177,13.4256114 80.3711175,13.614748 79.9193288,13.9922493 C79.4675402,14.3697505 79.1568862,14.8769454 78.9881554,15.513834 L84.1218306,15.513834 Z M92.4361612,20.8938056 L90.7732951,20.8938056 L90.7732951,8.22242465 L95.1831624,8.22242465 C96.2799128,8.22242465 97.2284325,8.57985425 98.0302982,9.29316947 C98.8313755,10.0080287 99.2319141,10.9073925 99.2319141,11.9920331 C99.2319141,13.0774457 98.8313755,13.9775815 98.0302982,14.6908967 C97.2284325,15.4049839 96.2799128,15.7616416 95.1831624,15.7616416 L92.4361612,15.7616416 L92.4361612,20.8938056 Z M92.4361612,14.2045455 L95.2194316,14.2045455 C95.9180088,14.2045455 96.4786052,13.9737216 96.9004323,13.5143898 C97.3222594,13.0542861 97.5335672,12.5470912 97.5335672,11.9920331 C97.5335672,11.437747 97.3222594,10.9305521 96.9004323,10.4704484 C96.4786052,10.0103446 95.9180088,9.78029274 95.2194316,9.78029274 L92.4361612,9.78029274 L92.4361612,14.2045455 Z M100.316838,20.8938056 L100.316838,8.22242465 L101.979704,8.22242465 L101.979704,20.8938056 L100.316838,20.8938056 Z M106.262629,21.1771245 C105.322782,21.1771245 104.536686,20.9115613 103.904339,20.3804348 C103.271204,19.8500803 102.955031,19.1483449 102.955031,18.2752285 C102.955031,17.3310894 103.327974,16.5907547 104.076224,16.0542243 C104.822897,15.5169219 105.744609,15.2490427 106.84136,15.2490427 C107.817476,15.2490427 108.618553,15.4250556 109.244592,15.7793972 L109.244592,15.5315897 C109.244592,14.8947011 109.022245,14.3844182 108.576764,14.0015131 C108.130495,13.617064 107.582514,13.4256114 106.932033,13.4256114 C106.449494,13.4256114 106.012686,13.5383214 105.621609,13.7621974 C105.229744,13.9860734 104.961667,14.2925519 104.81659,14.6816329 L103.298012,14.0447443 C103.503012,13.5259696 103.906705,13.0450222 104.509089,12.6026742 C105.111474,12.1603261 105.907032,11.939538 106.895764,11.939538 C108.027995,11.939538 108.967841,12.2645442 109.715303,12.9122406 C110.461977,13.561481 110.835708,14.4762846 110.835708,15.6558794 L110.835708,20.8938056 L109.244592,20.8938056 L109.244592,19.6910511 L109.17363,19.6910511 C108.510533,20.6815094 107.539937,21.1771245 106.262629,21.1771245 Z M106.53386,19.6910511 C107.22061,19.6910511 107.844283,19.4393836 108.40488,18.9383646 C108.965476,18.4373456 109.244592,17.8444602 109.244592,17.1597085 C108.775457,16.7822073 108.070572,16.5938426 107.130725,16.5938426 C106.322552,16.5938426 105.714648,16.7652236 105.304647,17.1064415 C104.895436,17.4492033 104.690436,17.8498641 104.690436,18.3107399 C104.690436,18.7345603 104.876513,19.0711462 105.251032,19.3189538 C105.623975,19.5659894 106.052109,19.6910511 106.53386,19.6910511 Z M114.451594,24.7159091 L112.734324,24.7159091 L114.794575,20.3449234 L111.143996,12.222085 L112.951151,12.222085 L115.590133,18.4520133 L115.626402,18.4520133 L118.192845,12.222085 L120,12.222085 L114.451594,24.7159091 Z" id="Combined-Shape"></path>
                    <g id="Group-4">
                        <path d="M0.00648028335,12.7486233 C0.00648028335,9.1511512 0.00785257865,5.55367907 0.00442184041,1.9568931 C0.00442184041,1.51501401 0.0901902966,1.11224534 0.403073625,0.778777582 C0.524521759,0.649095676 0.61166251,0.614102146 0.761242698,0.766426924 C3.18128546,3.23587231 5.60750354,5.70051467 8.03372163,8.16515703 C9.6043136,9.76113646 11.1742194,11.357802 12.7516729,12.9476061 C12.9046838,13.1019894 12.9184067,13.1829548 12.7564759,13.3441995 C8.89826767,17.1797648 5.04349018,21.0194471 1.19969105,24.8687354 C0.964342402,25.104084 0.799666966,25.0793827 0.574610537,24.9057874 C0.1622358,24.5887872 0.00442184041,24.1647479 0.00510798806,23.6590571 C0.00579413571,21.5285686 0.00167724981,19.3980802 0.000304954511,17.2675917 C-0.000381193139,15.7608115 0.000304954511,14.2547174 0.000304954511,12.7486233 C0.00236339746,12.7486233 0.00442184041,12.7486233 0.00648028335,12.7486233" id="Fill-47"></path>
                        <path d="M1.3890678,0.36777514 C1.68342514,0.365716697 1.89064173,0.450799006 2.09099684,0.562641072 C7.01753696,3.32369921 11.9433909,6.0854435 16.8733618,8.84032631 C17.0997905,8.96657748 17.0949875,9.03725069 16.9200198,9.20947375 C15.8180667,10.293587 14.7250335,11.3866202 13.6326865,12.4803396 C13.5146691,12.598357 13.4433097,12.6662856 13.2848096,12.5050409 C9.36553422,8.5075447 5.44008352,4.51622383 1.51600511,0.523530656 C1.48307002,0.489909422 1.45562412,0.450799006 1.3890678,0.36777514" id="Fill-48"></path>
                        <path d="M2.49170707,24.7774778 C6.06790862,21.1628519 9.64616861,17.5509707 13.2141364,13.9281111 C13.4350759,13.7030547 13.5386842,13.7332452 13.7369809,13.9397756 C14.6433819,14.8832287 15.5628198,15.814331 16.4863745,16.7406303 C16.6489915,16.9039335 16.6627145,16.9704898 16.4424611,17.0912518 C11.8514472,19.6039245 7.26455012,22.124831 2.67696693,24.6423067 C2.60149069,24.6841617 2.53081749,24.7520903 2.49170707,24.7774778" id="Fill-49"></path>
                        <path d="M22.920381,12.8488009 C22.9052858,13.253628 22.7138506,13.5383793 22.4242963,13.7517712 C22.2102182,13.9102713 21.9741834,14.0399532 21.7402071,14.168949 C20.3521304,14.9367482 18.9606229,15.6963136 17.5752908,16.4689159 C17.3886587,16.5732103 17.2775028,16.5690934 17.1231195,16.4085349 C16.1371254,15.3902918 15.1422113,14.3802824 14.141808,13.3757623 C13.9963447,13.2296128 13.9922278,13.1493336 14.141808,13.002498 C15.3068867,11.8545729 16.4657901,10.7004726 17.6198904,9.54088306 C17.7557477,9.40365353 17.8531806,9.38855829 18.0226591,9.48461896 C19.3935821,10.2613381 20.7713666,11.027765 22.1457203,11.7983088 C22.5711319,12.0364021 22.901855,12.3451685 22.920381,12.8488009" id="Fill-50"></path>
                    </g>
                </g>
            </g>
        </g>
    </g>
</svg>