<svg xmlns="http://www.w3.org/2000/svg" xmlns:xlink="http://www.w3.org/1999/xlink" width="1056" height="224" xmlns:v="https://vecta.io/nano"><style><![CDATA[.B{mask:url(#n)}.C{mask:url(#o)}.D{fill:#fff}.E{fill:#4778ff}.F{fill:#d6e1ff}.G{fill:#ebf0ff}.H{fill:#adc3ff}.I{fill:#00103d}.J{stroke-linecap:round}.K{stroke-linejoin:round}.L{fill:#003ce0}.M{fill:#00268f}.N{fill:#7096ff}.O{fill:#fedf00}.P{fill:#fff8c2}.Q{fill:#ffee70}.R{stroke:#4778ff}.S{stroke-width:.75}.T{fill:#dddfe0}.U{fill:#2962ff}]]></style><defs><path id="A" d="M0 223.608h482V1.497H0z"/><path id="B" d="M0 221.679h482V0H0z"/><path id="C" d="M326.317 90.72c0 .752-1.8 1.36-4.022 1.36s-4.02-.608-4.02-1.36 1.799-1.36 4.02-1.36 4.022.61 4.022 1.36"/><path id="D" d="M339.979 76.527c0 .75-1.8 1.36-4.022 1.36s-4.02-.61-4.02-1.36 1.799-1.36 4.02-1.36 4.022.608 4.022 1.36"/><path id="E" d="M179.186 58.728h8.043v-5.287h-8.043z"/><path id="F" d="M179.186 113.151h8.043v-5.285h-8.043z"/><path id="G" d="M63.441 58.906c0 .752-1.802 1.36-4.023 1.36s-4.02-.608-4.02-1.36 1.799-1.36 4.02-1.36 4.023.608 4.023 1.36"/><path id="H" d="M100.051 141.077h8.042V70.859h-8.042v70.218zm1.656-1.658h4.729V72.514h-4.729v66.905z"/><path id="I" d="M415.467 102.578h8.042v-5.285h-8.042z"/><path id="J" d="M217.258 101.622v-3.076a4.83 4.83 0 0 1 4.828-4.83 4.83 4.83 0 0 1 4.828 4.83v3.076a4.83 4.83 0 0 1-4.828 4.828 4.83 4.83 0 0 1-4.828-4.828"/><path id="K" d="M125.586 28.287h-10.733v-.828c0-2.292-1.865-4.157-4.157-4.157s-4.157 1.865-4.157 4.157h-1.656a5.82 5.82 0 0 1 5.814-5.814c2.923 0 5.35 2.171 5.754 4.986h9.136v1.656z"/><path id="L" d="M52.753 10.322h-7.169v-.828c0-1.304-1.06-2.362-2.362-2.362s-2.364 1.058-2.364 2.362h-1.656c0-2.216 1.804-4.018 4.02-4.018 1.931 0 3.55 1.37 3.932 3.19h5.598v1.656z"/><path id="M" d="M451.93 10.322h-7.167v-.828c0-1.304-1.06-2.362-2.364-2.362s-2.362 1.058-2.362 2.362h-1.656c0-2.216 1.802-4.018 4.018-4.018 1.933 0 3.551 1.37 3.934 3.19h5.597v1.656z"/><path id="N" d="M481.172 63.128h-14.536a.83.83 0 0 1-.828-.828.83.83 0 0 1 .828-.828h14.536a.83.83 0 0 1 .828.828.83.83 0 0 1-.828.828"/><path id="O" d="M477.859 72.573h-11.223a.83.83 0 0 1-.828-.828.83.83 0 0 1 .828-.828h11.223a.83.83 0 0 1 .828.828.83.83 0 0 1-.828.828"/><path id="P" d="M476.203 100.907h-9.567a.83.83 0 0 1-.828-.828.83.83 0 0 1 .828-.828h9.567a.83.83 0 0 1 .828.828.83.83 0 0 1-.828.828"/><path id="Q" d="M474.546 119.797h-7.911a.83.83 0 0 1-.828-.828.83.83 0 0 1 .828-.828h7.911a.83.83 0 0 1 .828.828.83.83 0 0 1-.828.828"/><path id="R" d="M479.515 129.242h-12.88a.83.83 0 0 1-.828-.828.83.83 0 0 1 .828-.828h12.88a.83.83 0 0 1 .828.828.83.83 0 0 1-.828.828"/><path id="S" d="M13.71 100.907H2.485a.83.83 0 0 1-.828-.828.83.83 0 0 1 .828-.828H13.71a.83.83 0 0 1 .828.828.83.83 0 0 1-.828.828"/><path id="T" d="M476.203 141.904H4.141a.83.83 0 0 1-.828-.828.83.83 0 0 1 .828-.828h472.062a.83.83 0 0 1 .828.828.83.83 0 0 1-.828.828"/><path id="U" d="M310.806 144.004h33.041V69.218h-33.041v74.786zm-1.656 1.656h36.354V67.561h-36.354v78.099z"/><path id="V" d="M310.632 144.61h1.656v-11.127h-1.656z"/><path id="W" d="M351.245 130.142c0 3.207-2.597 5.804-5.804 5.804s-5.804-2.597-5.804-5.804.704-19.562 5.804-19.562 5.804 16.355 5.804 19.562"/><path id="X" d="M13.709 85.774H2.485a.83.83 0 0 1-.828-.828.83.83 0 0 1 .828-.828h11.223a.83.83 0 0 1 .828.828.83.83 0 0 1-.828.828"/><path id="Y" d="M13.709 114.108H7.454a.83.83 0 0 1-.828-.828.83.83 0 0 1 .828-.828h6.254a.83.83 0 0 1 .828.828.83.83 0 0 1-.828.828"/><path id="Z" d="M45.694 115.99h5.279v-5.28h-5.279z"/><path id="a" d="M45.694 141.011h5.279v-5.279h-5.279z"/><path id="b" d="M185.689 115.965h5.28v-3.685h-5.28z"/><path id="c" d="M165.548 115.965h17.947v-3.685h-17.947z"/><path id="d" d="M141.322 140.567h2.175V95.734h-2.175z"/><path id="e" d="M64.187 158.58c-1.244 0-2.254-1.01-2.254-2.254a2.26 2.26 0 0 1 2.254-2.256 2.26 2.26 0 0 1 2.254 2.256c0 1.244-1.01 2.254-2.254 2.254"/><path id="f" d="M151.025 149.393c-.851 0-1.752-.583-2.049-1.328-.076-.192-.687-.547-1.454-.547h-5.309a2.28 2.28 0 0 1-2.277-2.277v-1.744a2.28 2.28 0 0 1 2.277-2.277h8.252a2.28 2.28 0 0 1 2.277 2.277v3.619c0 1.277-.754 2.277-1.718 2.277"/><path id="g" d="M134.133 162.155a5.35 5.35 0 0 0 5.348 5.348c2.955 0 5.352-2.397 5.352-5.348a5.35 5.35 0 1 0-10.7 0"/><path id="h" d="M137.342 162.153a2.14 2.14 0 1 0 4.28 0 2.14 2.14 0 1 0-4.28 0"/><path id="i" d="M82.088 162.153a2.14 2.14 0 1 0 4.28 0 2.14 2.14 0 0 0-4.28 0"/><path id="j" d="M61.381 154.237a.62.62 0 0 1-.621-.621v-26.464a.62.62 0 0 1 .621-.621h69.32a.62.62 0 0 1 .621.621v26.464a.62.62 0 0 1-.621.621h-69.32z"/><path id="k" d="M417.761 162.155a5.35 5.35 0 1 0 10.7 0 5.35 5.35 0 1 0-10.7 0"/><path id="l" d="M182.364 202.941a.83.83 0 0 1-.828-.828v-4.406a.83.83 0 0 1 .828-.828h115.564a.83.83 0 0 1 .828.828v4.406a.83.83 0 0 1-.828.828H182.364z"/><path id="m" d="M235.741 211.303h8.812v-8.211h-8.812z"/></defs><g fill="none" fill-rule="evenodd"><path d="M281.281 141.234h28.158v-30.566h-28.158zm-256.931 0h1.656v-9.002H24.35z" class="G"/><g transform="translate(0 .159)"><path d="M29.033 124.989c0-1.822-1.491-3.313-3.313-3.313h-1.087c-1.824 0-3.313 1.491-3.313 3.313v5.335c0 1.82 1.489 3.313 3.313 3.313h1.087c1.822 0 3.313-1.492 3.313-3.313v-5.335z" class="G"/><mask id="n" class="D"><use xlink:href="#A"/></mask><g class="F B"><path d="M318.276 139.368h8.042V90.72h-8.042z"/><use xlink:href="#C"/><path d="M331.937 139.368h8.042V76.527h-8.042z"/><use xlink:href="#D"/><path d="M322.296 91.548a.83.83 0 0 1-.828-.828V65.563a.83.83 0 0 1 .828-.828h13.662a.83.83 0 0 1 .828.828v10.963a.83.83 0 0 1-.828.828.83.83 0 0 1-.828-.828V66.391h-12.005V90.72a.83.83 0 0 1-.828.828"/></g><path d="M180.015 140.247h6.387V23.878h-6.387z" class="B D"/><g class="G B"><path d="M179.186 141.075h8.043V23.05h-8.043v118.025zm1.656-1.656h4.731V24.706h-4.731v114.713z"/><path d="M179.186 70.68h8.043v-5.108h-8.043z"/><use xlink:href="#E"/><path d="M179.186 46.777h8.043V41.49h-8.043zm0-11.775h8.043v-5.464h-8.043z"/><use xlink:href="#E" y="22.526"/></g><g class="F B"><use xlink:href="#E" y="33.1"/><use xlink:href="#E" y="43.673"/><use xlink:href="#F"/><use xlink:href="#F" y="10.574"/><use xlink:href="#F" y="21.148"/></g><path d="M187.23 23.413c0 .752-1.8 1.36-4.022 1.36s-4.022-.608-4.022-1.36 1.8-1.537 4.022-1.537 4.022.785 4.022 1.537" class="B G"/><path d="M229.709 140.247h6.387V35.83h-6.387z" class="B D"/><g class="G B"><path d="M228.88 141.075h8.043V35.002h-8.043v106.073zm1.656-1.656h4.731V36.659h-4.731v102.76z"/><path d="M228.88 70.68h8.043v-5.108h-8.043z"/><use xlink:href="#E" x="49.694"/><path d="M228.88 46.777h8.043V41.49h-8.043z"/><use xlink:href="#E" x="49.694" y="22.526"/></g><g class="F B"><use xlink:href="#E" x="49.694" y="33.1"/><use xlink:href="#E" x="49.694" y="43.673"/><use xlink:href="#F" x="49.694"/><use xlink:href="#F" x="49.694" y="10.574"/><use xlink:href="#F" x="49.694" y="21.148"/></g><path d="M236.924 35.091c0 .752-1.8 1.36-4.022 1.36s-4.022-.608-4.022-1.36 1.799-1.537 4.022-1.537 4.022.785 4.022 1.537" class="B G"/><g class="F B"><path d="M394.145 141.075h30.803v-37.697h-30.803z"/><path d="M424.948 103.379h-30.803l15.401-9.284z"/></g><path d="M383.031 24.604h-20.58c-.883 0-1.61.692-1.655 1.574l-5.678 113.106c-.022.452.141.896.455 1.224a1.65 1.65 0 0 0 1.199.517h31.936a1.65 1.65 0 0 0 1.199-.517c.315-.328.477-.772.455-1.224l-5.678-113.106c-.043-.881-.772-1.574-1.655-1.574m0 1.656l5.678 113.108h-31.936l5.678-113.108h20.58" fill="#c2d2ff" class="B"/><g stroke="#c2d2ff" class="J K B"><path d="M361.744 40.331h21.993m-23.416 20.487h24.84m-25.89 20.488h26.941m-28.196 20.488h29.45m-30.396 20.487h31.343"/><path d="M362.451 26.26l21.882 14.071-24.012 20.487 25.473 20.487-27.134 20.487 29.753 20.487-31.64 17.087"/><path d="M382.735 26.26l-21.882 14.071 24.012 20.487-25.473 20.487 27.134 20.487-29.753 20.487 31.64 17.087"/></g><path d="M56.225 140.247h6.387V59.735h-6.387z" class="B D"/><g class="F B"><path d="M55.399 141.075h8.043V58.907h-8.043v82.169zm1.656-1.656h4.731V60.563h-4.731v78.856z"/><use xlink:href="#E" x="-123.787" y="12.131"/><use xlink:href="#E" x="-123.787" y="22.703"/><use xlink:href="#E" x="-123.787" y="33.278"/><use xlink:href="#F" x="-123.787" y="-10.573"/><use xlink:href="#F" x="-123.787"/><use xlink:href="#F" x="-123.787" y="10.574"/><use xlink:href="#F" x="-123.787" y="21.148"/><use xlink:href="#G"/></g><path d="M100.875 140.249h6.387V71.687h-6.387z" class="B D"/><g class="F B"><use xlink:href="#H"/><use xlink:href="#E" x="-79.137" y="22.703"/><use xlink:href="#E" x="-79.137" y="33.278"/><use xlink:href="#F" x="-79.137" y="-10.573"/><use xlink:href="#F" x="-79.137"/><use xlink:href="#F" x="-79.137" y="10.574"/><use xlink:href="#F" x="-79.137" y="21.148"/><path d="M108.092 70.858c0 .75-1.8 1.36-4.022 1.36s-4.022-.61-4.022-1.36 1.8-1.36 4.022-1.36 4.022.608 4.022 1.36m6.192 70.219h8.042V70.859h-8.042z"/><use xlink:href="#D" x="-217.654" y="-5.669"/><path d="M69.829 141.075h8.043V90.729h-8.043z"/><use xlink:href="#G" x="14.43" y="31.823"/><path d="M36.011 141.075h8.042V90.729h-8.042z"/><path d="M44.052 90.729c0 .752-1.8 1.36-4.022 1.36s-4.02-.608-4.02-1.36 1.799-1.36 4.02-1.36 4.022.608 4.022 1.36m39.438 50.346h8.042v-64.54H83.49z"/><use xlink:href="#C" x="-234.786" y="-14.185"/></g><path d="M416.296 140.249h6.385V71.687h-6.385z" class="B D"/><g class="F B"><use xlink:href="#H" x="315.416"/><path d="M415.467 81.431h8.042v-5.287h-8.042zm0 10.575h8.042v-5.287h-8.042z"/><use xlink:href="#I"/><use xlink:href="#I" y="10.573"/><use xlink:href="#I" y="21.147"/><use xlink:href="#I" y="31.721"/><use xlink:href="#D" x="83.531" y="-5.669"/></g><path d="M187.794 76.06l25.435 10.175v44.463h-25.435zm-31.794 0l25.435 10.175v44.463H156z" class="G B"/><path d="M200.519 76.091c0-1.822 1.383-2.759 3.074-2.082l25.644 10.258c1.691.676 3.074 2.72 3.074 4.542v48.954a3.32 3.32 0 0 1-3.313 3.313h-25.167a3.32 3.32 0 0 1-3.313-3.313V76.091z" class="B F"/><g class="G B"><path d="M238.276 85.496h19.871l-19.871-5.961z"/><use xlink:href="#J"/></g><path d="M232.314 88.809c0-1.822 1.491-3.313 3.313-3.313h25.168c1.822 0 3.313 1.491 3.313 3.313v48.954c0 1.824-1.491 3.313-3.313 3.313h-25.168c-1.822 0-3.313-1.489-3.313-3.313V88.809z" class="B F"/><path d="M243.381 101.622v-3.076a4.83 4.83 0 0 1 4.83-4.83 4.83 4.83 0 0 1 4.828 4.83v3.076a4.83 4.83 0 0 1-4.828 4.828 4.83 4.83 0 0 1-4.83-4.828" class="B G"/><path d="M168.724 76.091c0-1.822 1.385-2.759 3.076-2.082l25.642 10.258c1.691.676 3.076 2.72 3.076 4.542v48.954c0 1.824-1.491 3.313-3.313 3.313h-25.168c-1.822 0-3.313-1.489-3.313-3.313V76.091z" class="B F"/><use xlink:href="#J" x="-31.795" class="B G"/><path d="M136.928 76.091c0-1.822 1.385-2.759 3.076-2.082l25.644 10.258c1.691.676 3.074 2.72 3.074 4.542v48.954a3.32 3.32 0 0 1-3.313 3.313H140.24c-1.822 0-3.313-1.489-3.313-3.313V76.091z" class="B F"/><use xlink:href="#J" x="-63.587" class="B G"/><path d="M73.849 91.557a.83.83 0 0 1-.828-.828V65.572a.83.83 0 0 1 .828-.828H87.51a.83.83 0 0 1 .828.828v10.963a.83.83 0 0 1-.828.828.83.83 0 0 1-.828-.828V66.4H74.677v24.329a.83.83 0 0 1-.828.828" class="B F"/><g class="G B"><path d="M452.482 141.075h1.656v-11.187h-1.656z"/><path d="M459.528 125.521a6.22 6.22 0 0 1-6.218 6.218 6.22 6.22 0 0 1-6.22-6.218 6.22 6.22 0 0 1 6.22-6.218 6.22 6.22 0 0 1 6.218 6.218m-24.338 15.554h1.656v-11.187h-1.656z"/><path d="M442.238 125.521a6.22 6.22 0 0 1-6.22 6.218 6.22 6.22 0 0 1-6.218-6.218 6.22 6.22 0 0 1 6.218-6.218 6.22 6.22 0 0 1 6.22 6.218M90.626 28.287h-8.943v-1.656h7.324a8.8 8.8 0 0 1 8.746-7.955c4.845 0 8.784 3.94 8.784 8.784h-1.656c0-3.931-3.197-7.127-7.127-7.127a7.14 7.14 0 0 0-7.127 7.127v.828z"/><use xlink:href="#K"/><path d="M127.367 28.287h4.093v-1.656h-4.093zm-96.69-17.965h-6.023V8.666h4.424c.402-2.874 2.877-5.092 5.86-5.092a5.93 5.93 0 0 1 5.92 5.92h-1.656a4.27 4.27 0 0 0-4.263-4.263 4.27 4.27 0 0 0-4.262 4.263v.828z"/><use xlink:href="#L"/><path d="M53.893 10.322h2.619V8.666h-2.619zm375.961 0h-6.021V8.666h4.422a5.93 5.93 0 0 1 5.862-5.092 5.93 5.93 0 0 1 5.92 5.92h-1.656a4.27 4.27 0 0 0-4.263-4.263 4.27 4.27 0 0 0-4.263 4.263v.828z"/><use xlink:href="#M"/><path d="M453.072 10.322h2.619V8.666h-2.619zm-227.35.787h-8.943V9.453h7.324a8.8 8.8 0 0 1 8.746-7.955c4.843 0 8.782 3.94 8.782 8.784h-1.656c0-3.931-3.197-7.127-7.126-7.127a7.14 7.14 0 0 0-7.127 7.127v.828z"/><use xlink:href="#K" x="135.095" y="-17.178"/><path d="M262.465 11.109h4.091V9.453h-4.091z"/></g><path d="M409.952 223.609h-9.739l4.871-4.87zm40.174-60.088h-6.233l3.117-3.117zM30.665 176.862h-6.233l3.116-3.117z" class="H B"/><path d="M476.203 141.076h-13.045V55.482h13.045" class="B D"/><g class="F B"><path d="M476.203 141.904h-13.045a.83.83 0 0 1-.828-.828V55.482a.83.83 0 0 1 .828-.828h13.045a.83.83 0 0 1 .828.828.83.83 0 0 1-.828.828h-12.217v83.938h12.217a.83.83 0 0 1 .828.828.83.83 0 0 1-.828.828"/><use xlink:href="#N"/><use xlink:href="#O"/><path d="M472.89 82.018h-6.254a.83.83 0 0 1-.828-.828.83.83 0 0 1 .828-.828h6.254a.83.83 0 0 1 .828.828.83.83 0 0 1-.828.828"/><use xlink:href="#O" y="18.89"/><use xlink:href="#P"/><use xlink:href="#O" y="37.779"/><use xlink:href="#Q"/><use xlink:href="#R"/></g><path d="M4.141 141.076h13.047v-69.33H4.141" class="B D"/><g class="F B"><path d="M17.188 141.904H4.141a.83.83 0 0 1-.828-.828.83.83 0 0 1 .828-.828H16.36V72.574H4.141a.83.83 0 0 1-.828-.828.83.83 0 0 1 .828-.828h13.047a.83.83 0 0 1 .828.828v69.33a.83.83 0 0 1-.828.828M13.71 82.018H.829A.83.83 0 0 1 0 81.19a.83.83 0 0 1 .828-.828H13.71a.83.83 0 0 1 .828.828.83.83 0 0 1-.828.828m0 9.445H4.141a.83.83 0 0 1-.828-.828.83.83 0 0 1 .828-.828h9.569a.83.83 0 0 1 .828.828.83.83 0 0 1-.828.828"/><use xlink:href="#S"/><path d="M13.71 110.352h-4.6a.83.83 0 0 1-.828-.828.83.83 0 0 1 .828-.828h4.6a.83.83 0 0 1 .828.828.83.83 0 0 1-.828.828m0 9.445H5.798a.83.83 0 0 1-.828-.828.83.83 0 0 1 .828-.828h7.912a.83.83 0 0 1 .828.828.83.83 0 0 1-.828.828"/><use xlink:href="#S" y="28.335"/><use xlink:href="#T"/></g><g class="E B"><path d="M342.75 178.56h60.03v-5.562h-60.03z"/><path d="M372.132 179.879c0 .272.224.492.495.492h12.014c.272 0 .494-.22.494-.492v-5.926c0-.27-.222-.492-.494-.492h-12.014c-.272 0-.495.222-.495.492v5.926zm-10.37 2.313c0-4.409-3.228-7.98-7.212-7.98s-7.207 3.571-7.207 7.98h14.419z"/><path d="M348.894 181.563c0 3.126 2.528 5.66 5.656 5.66a5.66 5.66 0 1 0 0-11.323c-3.129 0-5.656 2.533-5.656 5.663"/></g><path d="M351.994 181.563c0 1.401 1.136 2.536 2.538 2.536s2.536-1.135 2.536-2.536-1.135-2.538-2.536-2.538-2.538 1.135-2.538 2.538" class="B D"/><path d="M343.285 173.845a.83.83 0 0 1-.828-.828v-39.004a.83.83 0 0 1 .828-.828h43.945a.83.83 0 0 1 .828.828v39.004a.83.83 0 0 1-.828.828h-43.945z" class="B P"/><path d="M387.23 132.357h-43.945c-.914 0-1.656.742-1.656 1.656v39.004c0 .914.742 1.656 1.656 1.656h43.945c.916 0 1.656-.742 1.656-1.656v-39.004c0-.914-.74-1.656-1.656-1.656h0zm-43.945 40.66h43.945v-39.004h-43.945v39.004z" class="B E"/><path d="M394.724 179.484a4.1 4.1 0 0 1-2.925-1.212c-.78-.782-1.209-1.82-1.207-2.922l.065-26.474c.005-2.279 1.865-4.141 4.148-4.146l10.173-.022c2.13 0 4.641 1.419 5.731 3.232l6.811 11.326c1.024 1.703 1.817 4.595 1.809 6.582l.015 9.501c0 2.286-1.857 4.143-4.141 4.143l-20.478-.008z" class="B N"/><path d="M404.987 143.88h-.008l-10.178.022c-2.736.007-4.966 2.236-4.972 4.974l-.065 26.47a4.91 4.91 0 0 0 4.954 4.966l20.484.008c2.74 0 4.969-2.229 4.969-4.969l-.015-9.509c.01-2.107-.838-5.188-1.928-7.003l-6.809-11.325c-1.246-2.072-4.01-3.634-6.432-3.634m0 1.656c1.822 0 4.075 1.274 5.01 2.831l6.811 11.326c.937 1.56 1.699 4.33 1.691 6.152l.015 9.506c0 1.822-1.489 3.313-3.313 3.313l-20.484-.008c-1.819 0-3.301-1.484-3.298-3.304l.065-26.472c.003-1.822 1.497-3.316 3.321-3.321l10.182-.022" class="B E"/><path d="M412.879 162.21c-.287 0-.61-.099-.987-.301l-2.322-1.246c-.687-.368-1.971-.712-2.75-.737l-8.772-.283a2.56 2.56 0 0 1-2.456-2.538v-6.054c0-1.368 1.113-2.485 2.483-2.49l6.082-.015c1.211 0 2.602.767 3.241 1.784l6.163 9.787c.147.234.591.939.243 1.57-.182.326-.527.522-.926.522" class="B D"/><path d="M404.164 147.719h-.005l-6.087.015c-1.822.005-3.308 1.492-3.308 3.318v6.054c0 1.799 1.463 3.308 3.258 3.366l8.77.283c.651.02 1.812.331 2.385.639l2.324 1.246c.5.268.952.399 1.38.399.702 0 1.32-.354 1.648-.949.388-.702.298-1.514-.267-2.41l-6.163-9.787c-.792-1.259-2.448-2.173-3.936-2.173m0 1.656c.911 0 2.049.629 2.534 1.398l6.163 9.787c.33.525.315.822.02.822-.139 0-.34-.065-.598-.202l-2.322-1.246a8.43 8.43 0 0 0-3.116-.836l-8.77-.283c-.911-.028-1.655-.797-1.655-1.709v-6.054a1.67 1.67 0 0 1 1.656-1.661l6.087-.015" class="B E"/><path d="M402.302 156.29a1.73 1.73 0 0 1-1.655-1.709v-1.484a1.67 1.67 0 0 1 1.656-1.661l1.497-.003c.911-.002 2.054.628 2.539 1.398l2.294 3.642c.485.772.278 1.08-.459.682s-2.087-.744-2.998-.772l-2.875-.093z" class="B T"/><g class="E B"><path d="M408.061 182.192c0-4.409-3.228-7.98-7.21-7.98s-7.207 3.571-7.207 7.98h14.417z"/><path d="M395.19 181.563a5.66 5.66 0 0 0 5.661 5.66c3.127 0 5.663-2.534 5.663-5.66s-2.536-5.663-5.663-5.663a5.66 5.66 0 0 0-5.661 5.663"/></g><path d="M398.293 181.563c0 1.4 1.136 2.533 2.536 2.533s2.538-1.133 2.538-2.533-1.136-2.538-2.538-2.538-2.536 1.135-2.536 2.538" class="B D"/><path d="M418.219 173.03c-.2 0-.399-.073-.553-.212l-.742-.668a4.46 4.46 0 0 1-1.242-4.764.83.83 0 0 1 .783-.562h1.754a.83.83 0 0 1 .828.828v4.548a.83.83 0 0 1-.492.757.85.85 0 0 1-.336.071" class="B P"/><path d="M418.219 165.997h-1.754c-.707 0-1.337.449-1.567 1.121-.687 2.011-.109 4.227 1.471 5.648l.742.666c.311.28.707.426 1.108.426.229 0 .457-.046.674-.144.598-.267.982-.858.982-1.512v-4.548c0-.916-.742-1.656-1.656-1.656m0 1.656v4.548l-.742-.668a3.64 3.64 0 0 1-1.012-3.881h1.754" class="B E"/><path d="M373.693 178.344c0 .467.378.845.843.845s.845-.378.845-.845-.379-.843-.845-.843-.843.378-.843.843" class="B D"/><path d="M418.551 188.292h-75.23a.62.62 0 1 1 0-1.242h75.23a.62.62 0 1 1 0 1.242" class="B H"/><g class="L B"><path d="M260.893 182.989h75.04v-6.952h-75.04z"/><path d="M297.622 184.637a.62.62 0 0 0 .618.615h15.017c.341 0 .619-.273.619-.615v-7.407a.62.62 0 0 0-.619-.616H298.24a.62.62 0 0 0-.618.616v7.407zm-12.963 2.891c0-5.509-4.038-9.973-9.014-9.973s-9.009 4.464-9.009 9.973h18.023z"/><path d="M268.574 186.744c0 3.904 3.162 7.074 7.073 7.074s7.076-3.17 7.076-7.074c0-3.912-3.165-7.079-7.076-7.079s-7.073 3.167-7.073 7.079"/></g><path d="M272.448 186.744a3.17 3.17 0 1 0 6.342 0 3.17 3.17 0 1 0-6.342 0" class="B D"/><path d="M261.564 176.89a.83.83 0 0 1-.828-.828v-48.755a.83.83 0 0 1 .828-.828h54.93a.83.83 0 0 1 .828.828v48.755a.83.83 0 0 1-.828.828h-54.93z" fill="#fff399" class="B"/><path d="M316.494 125.651h-54.93c-.916 0-1.656.74-1.656 1.656v48.755c0 .913.74 1.656 1.656 1.656h54.93c.916 0 1.656-.744 1.656-1.656v-48.755c0-.916-.74-1.656-1.656-1.656h0zm-54.93 50.411h54.93v-48.755h-54.93v48.755z" class="B L"/><path d="M325.034 183.94a4.11 4.11 0 0 1-2.927-1.214 4.1 4.1 0 0 1-1.206-2.922l.084-34.747a4.17 4.17 0 0 1 4.148-4.148l14.374-.03c2.13 0 4.643 1.419 5.731 3.233l9.367 15.575c1.022 1.706 1.815 4.596 1.807 6.582l.017 13.534c0 2.286-1.857 4.143-4.141 4.143l-27.254-.007z" class="B N"/><path d="M339.518 140.052h-.01l-14.379.031c-2.735.005-4.966 2.236-4.971 4.972l-.084 34.747a4.91 4.91 0 0 0 4.954 4.966l27.26.007c2.74 0 4.969-2.229 4.969-4.969l-.017-13.541c.01-2.107-.836-5.188-1.928-7.001l-9.363-15.578c-1.247-2.072-4.012-3.634-6.432-3.634m0 1.656c1.82 0 4.075 1.274 5.01 2.832l9.365 15.575c.939 1.564 1.699 4.331 1.691 6.152l.017 13.539c0 1.822-1.491 3.313-3.313 3.313l-27.262-.007c-1.819 0-3.301-1.486-3.296-3.306l.084-34.747a3.34 3.34 0 0 1 3.319-3.319l14.384-.031" class="B L"/><path d="M348.773 162.49c-.287 0-.61-.099-.989-.301l-3.632-1.946c-.687-.369-1.971-.714-2.75-.739l-11.79-.379a2.56 2.56 0 0 1-2.458-2.538v-8.398c0-1.37 1.115-2.486 2.483-2.49l8.431-.018c1.212 0 2.602.765 3.241 1.784l8.144 12.934c.146.232.591.939.243 1.569-.181.326-.527.522-.924.522" class="B D"/><path d="M338.075 144.853h-.005l-8.436.02c-1.824.005-3.308 1.492-3.308 3.318v8.396c0 1.797 1.461 3.308 3.258 3.366l11.79.379c.653.02 1.812.333 2.387.639l3.632 1.95c.502.268.952.398 1.38.398.704 0 1.32-.353 1.648-.949.388-.702.3-1.514-.265-2.41l-8.146-12.934c-.793-1.259-2.448-2.171-3.936-2.171m0 1.656c.911 0 2.049.628 2.534 1.398l8.144 12.934c.33.525.316.82.02.82-.139 0-.34-.065-.596-.202l-3.634-1.946a8.4 8.4 0 0 0-3.116-.836l-11.79-.381c-.911-.028-1.655-.798-1.655-1.709v-8.396c0-.913.744-1.66 1.656-1.661l8.436-.02" class="B L"/><path d="M334.921 155.138a1.73 1.73 0 0 1-1.655-1.709v-2.682c0-.913.745-1.658 1.656-1.661l2.7-.007c.913-.002 2.054.628 2.539 1.398l3.309 5.254c.485.772.225 1.05-.578.619l-.434-.234c-.805-.431-2.205-.807-3.116-.836l-4.422-.142z" class="B T"/><g class="L B"><path d="M342.531 187.528c0-5.509-4.035-9.973-9.009-9.973s-9.012 4.464-9.012 9.973h18.021z"/><path d="M326.445 186.744a7.08 7.08 0 0 0 7.076 7.074 7.08 7.08 0 0 0 7.078-7.074 7.08 7.08 0 0 0-7.078-7.079c-3.909 0-7.076 3.167-7.076 7.079"/></g><path d="M330.322 186.742a3.17 3.17 0 1 0 6.341 0 3.17 3.17 0 1 0-6.341 0" class="B D"/><path d="M355.229 175.869c-.2 0-.399-.073-.555-.214l-.928-.835a5.36 5.36 0 0 1-1.491-5.733c.113-.335.429-.56.783-.56h2.19a.83.83 0 0 1 .828.828v5.685a.83.83 0 0 1-.492.757c-.108.046-.224.071-.336.071" fill="#fff399" class="B"/><path d="M355.229 167.7h-2.19c-.709 0-1.34.449-1.569 1.121a6.19 6.19 0 0 0 1.723 6.617l.929.835a1.66 1.66 0 0 0 1.108.424c.229 0 .457-.048.672-.142.6-.267.982-.86.982-1.514v-5.685c0-.916-.74-1.656-1.656-1.656m0 1.656v5.685l-.928-.835c-1.355-1.217-1.852-3.127-1.262-4.85h2.19" class="B L"/><path d="M299.573 182.721c0 .583.472 1.055 1.055 1.055s1.053-.472 1.053-1.055-.472-1.055-1.053-1.055-1.055.472-1.055 1.055" class="B D"/><path d="M355.644 194.998h-94.036a.62.62 0 1 1 0-1.242h94.036a.62.62 0 1 1 0 1.242" class="B H"/><g class="M B"><path d="M168.857 188.373h93.798v-8.689h-93.798z"/><path d="M214.768 190.433c0 .426.349.769.774.769h18.77a.77.77 0 0 0 .774-.769v-9.259c0-.424-.348-.77-.774-.77h-18.77c-.424 0-.774.346-.774.77v9.259zm-16.202 3.614c0-6.887-5.045-12.467-11.27-12.467-6.216 0-11.26 5.58-11.26 12.467h22.53z"/><path d="M178.458 193.065a8.84 8.84 0 0 0 8.842 8.842c4.888 0 8.847-3.96 8.847-8.842a8.85 8.85 0 0 0-8.847-8.85c-4.888 0-8.842 3.96-8.842 8.85"/></g><path d="M183.302 193.065c0 2.186 1.776 3.962 3.965 3.962s3.962-1.776 3.962-3.962-1.772-3.967-3.962-3.967-3.965 1.776-3.965 3.967" class="B D"/><path d="M169.696 180.54a.83.83 0 0 1-.828-.828V118.77a.83.83 0 0 1 .828-.828h68.663a.83.83 0 0 1 .828.828v60.942a.83.83 0 0 1-.828.828h-68.663z" class="B Q"/><path d="M238.359 117.113h-68.663c-.916 0-1.656.74-1.656 1.656v60.942c0 .914.74 1.656 1.656 1.656h68.663c.916 0 1.656-.742 1.656-1.656V118.77c0-.916-.74-1.656-1.656-1.656h0zm-68.663 62.599h68.663V118.77h-68.663v60.942z" class="B M"/><path d="M248.206 189.356a4.11 4.11 0 0 1-2.927-1.214c-.78-.783-1.209-1.82-1.206-2.922l.108-45.089a4.17 4.17 0 0 1 4.148-4.148l19.626-.041c2.128 0 4.641 1.419 5.731 3.232l12.56 20.89c1.024 1.706 1.819 4.598 1.809 6.584l.015 18.574c0 2.284-1.857 4.141-4.141 4.141l-35.723-.007z" class="B E"/><path d="M267.964 135.113h-.008l-19.628.041a5 5 0 0 0-4.974 4.972l-.109 45.091c-.003 1.323.512 2.569 1.449 3.508s2.183 1.458 3.505 1.458l35.731.007c2.74 0 4.969-2.229 4.969-4.969l-.017-18.581c.012-2.107-.836-5.189-1.928-7.003l-12.559-20.89c-1.246-2.072-4.01-3.634-6.432-3.634m0 1.656c1.822 0 4.075 1.274 5.01 2.831l12.56 20.89c.939 1.562 1.701 4.331 1.691 6.152l.017 18.579c0 1.824-1.491 3.313-3.313 3.313l-35.731-.007c-1.819 0-3.303-1.486-3.298-3.306l.109-45.089c.005-1.82 1.499-3.316 3.319-3.321l19.634-.041" class="B M"/><path d="M278.923 162.687c-.287 0-.61-.099-.987-.301l-5.271-2.827c-.684-.366-1.971-.711-2.751-.737l-15.565-.502a2.56 2.56 0 0 1-2.458-2.536v-11.326c0-1.37 1.115-2.485 2.483-2.488l11.368-.027c1.211 0 2.602.765 3.241 1.784l10.622 16.868c.147.234.591.939.243 1.57-.182.326-.527.522-.926.522" class="B D"/><path d="M265.748 141.114h-.005l-11.371.028a3.32 3.32 0 0 0-3.309 3.316v11.325a3.4 3.4 0 0 0 3.26 3.366l15.565.5c.653.022 1.812.333 2.385.641l5.272 2.826c.502.268.951.399 1.378.399.706 0 1.322-.353 1.65-.949.389-.704.298-1.514-.267-2.41l-10.622-16.87c-.793-1.259-2.448-2.171-3.936-2.171m0 1.656c.911 0 2.049.628 2.534 1.398l10.622 16.868c.331.527.316.822.018.822-.139 0-.34-.065-.595-.202l-5.272-2.827c-.802-.429-2.205-.805-3.116-.836l-15.565-.5a1.73 1.73 0 0 1-1.656-1.709v-11.325c0-.911.745-1.658 1.656-1.66l11.373-.028" class="B M"/><path d="M260.98 153.547a1.73 1.73 0 0 1-1.656-1.709v-4.182c0-.911.745-1.66 1.656-1.661l4.204-.008c.911-.002 2.054.626 2.539 1.396l4.578 7.27c.485.772.225 1.05-.578.619l-1.274-.684a8.44 8.44 0 0 0-3.116-.836l-6.354-.204z" class="B T"/><g class="M B"><path d="M270.907 194.047c0-6.887-5.045-12.467-11.263-12.467s-11.263 5.58-11.263 12.467h22.526z"/><path d="M250.797 193.065c0 4.881 3.959 8.842 8.847 8.842a8.85 8.85 0 0 0 8.847-8.842 8.85 8.85 0 0 0-8.847-8.85 8.85 8.85 0 0 0-8.847 8.85"/></g><path d="M255.645 193.063a3.96 3.96 0 0 0 7.924 0c0-2.19-1.772-3.965-3.962-3.965s-3.962 1.776-3.962 3.965" class="B D"/><path d="M286.78 179.266a.83.83 0 0 1-.553-.212l-1.161-1.044a6.5 6.5 0 0 1-1.81-6.947.83.83 0 0 1 .785-.56h2.74a.83.83 0 0 1 .828.828v7.106a.83.83 0 0 1-.49.757.86.86 0 0 1-.338.071" class="B Q"/><path d="M286.778 169.675h-2.738c-.709 0-1.338.449-1.569 1.121-.952 2.786-.151 5.86 2.041 7.83l1.159 1.044a1.66 1.66 0 0 0 1.108.424 1.62 1.62 0 0 0 .672-.144 1.65 1.65 0 0 0 .982-1.512v-7.106c0-.916-.74-1.656-1.656-1.656m0 1.656v7.106l-1.159-1.044a5.68 5.68 0 0 1-1.579-6.062h2.738" class="B M"/><path d="M217.208 188.036a1.32 1.32 0 0 0 1.318 1.318 1.32 1.32 0 0 0 1.317-1.318 1.32 1.32 0 0 0-1.317-1.318 1.32 1.32 0 0 0-1.318 1.318" class="B D"/><path d="M287.242 203.49h-117.89a.83.83 0 0 1-.828-.828.83.83 0 0 1 .828-.828h117.89a.83.83 0 0 1 .828.828.83.83 0 0 1-.828.828" class="B H"/><g class="I B"><path d="M61.795 195.356h115.562v-10.707H61.795z"/><path d="M119.31 199.669c-.982 0-1.779-.795-1.779-1.774v-11.409a1.78 1.78 0 0 1 1.779-1.777h23.128a1.78 1.78 0 0 1 1.779 1.777v11.409c0 .979-.797 1.774-1.779 1.774H119.31z"/></g><path d="M142.437 183.881h-23.128a2.61 2.61 0 0 0-2.607 2.605v11.409a2.61 2.61 0 0 0 2.607 2.602h23.128a2.61 2.61 0 0 0 2.607-2.602v-11.409a2.61 2.61 0 0 0-2.607-2.605m0 1.656c.522 0 .951.427.951.949v11.409a.95.95 0 0 1-.951.946h-23.128a.95.95 0 0 1-.951-.946v-11.409c0-.522.431-.949.951-.949h23.128" class="B D"/><g class="I B"><path d="M98.396 202.345c0-8.484-6.218-15.359-13.885-15.359-7.659 0-13.872 6.876-13.872 15.359h27.757z"/><path d="M73.624 201.136a10.89 10.89 0 0 0 10.891 10.894 10.9 10.9 0 0 0 10.9-10.894 10.9 10.9 0 0 0-10.9-10.902 10.89 10.89 0 0 0-10.891 10.902"/></g><path d="M79.589 201.136c0 2.695 2.188 4.88 4.886 4.88s4.883-2.185 4.883-4.88-2.186-4.886-4.883-4.886-4.886 2.186-4.886 4.886" class="B D"/><path d="M62.827 185.927c-.686 0-1.242-.557-1.242-1.242v-75.083c0-.686.557-1.242 1.242-1.242h84.595c.686 0 1.242.557 1.242 1.242v75.083c0 .686-.557 1.242-1.242 1.242H62.827z" fill="#fffdeb" class="B"/><path d="M147.422 107.117H62.827c-1.371 0-2.485 1.113-2.485 2.485v75.083c0 1.371 1.113 2.485 2.485 2.485h84.595c1.373 0 2.485-1.113 2.485-2.485v-75.083c0-1.371-1.111-2.485-2.485-2.485h0zm-84.595 77.567h84.595v-75.083H62.827v75.083z" class="B I"/><path d="M67.169 180.341h75.913v-66.397H67.169z" class="B O"/><path d="M62.827 185.513a.83.83 0 0 1-.828-.828v-15.764a.83.83 0 0 1 .828-.828h84.595a.83.83 0 0 1 .828.828v15.764a.83.83 0 0 1-.828.828H62.827z" fill="#fffdeb" class="B"/><path d="M147.422 167.265H62.827c-.916 0-1.656.74-1.656 1.656v15.764c0 .914.74 1.656 1.656 1.656h84.595c.916 0 1.656-.742 1.656-1.656v-15.764c0-.916-.74-1.656-1.656-1.656h0zm-84.595 17.42h84.595v-15.764H62.827v15.764z" class="B I"/><path d="M67.169 180.341h75.913v-7.078H67.169z" class="B O"/><path fill="#b8a200" d="M62.827 184.649h84.595v-1.847H62.827z" class="B"/><path d="M158.786 196.79c-1.217 0-2.359-.474-3.217-1.335a4.51 4.51 0 0 1-1.33-3.215l.137-57.091a4.58 4.58 0 0 1 4.562-4.558l25.715-.056c2.263 0 4.931 1.509 6.087 3.435l16.265 27.052c1.06 1.764 1.88 4.75 1.868 6.801l.017 24.418a4.56 4.56 0 0 1-4.555 4.557l-45.55-.007z" class="B N"/><path d="M184.664 129.292h-.012l-25.718.056c-3.19.007-5.792 2.607-5.801 5.799l-.137 57.088a5.74 5.74 0 0 0 1.689 4.096 5.75 5.75 0 0 0 4.093 1.701l45.556.007c3.197 0 5.797-2.6 5.797-5.797l-.017-24.428c.012-2.273-.868-5.473-2.046-7.43l-16.265-27.055c-1.383-2.301-4.454-4.037-7.141-4.037m0 2.485c1.822 0 4.075 1.274 5.01 2.832l16.267 27.053c.937 1.562 1.699 4.33 1.689 6.153l.017 24.426c0 1.822-1.489 3.313-3.313 3.313l-45.556-.007c-1.819 0-3.301-1.486-3.298-3.306l.137-57.09c.005-1.822 1.499-3.316 3.321-3.319l25.725-.056" class="B I"/><path d="M157.65 193.379l.136-56.058c.005-1.822 1.499-3.316 3.321-3.321l22.324-.05c1.822-.005 4.08 1.27 5.02 2.831l15.316 25.48c.937 1.562 1.699 4.33 1.691 6.152l-.017 24.95" stroke="#fff" class="B J K"/><path d="M159.95 139.486c.005-1.822 1.499-3.316 3.321-3.319l18.934-.041c1.82-.003 4.078 1.27 5.019 2.832l14.369 23.901c.937 1.562 1.699 4.331 1.693 6.152l-.025 18.856c-.002 1.824-1.494 3.308-3.316 3.301l-5.893-.008-30.911.038c-1.822.003-3.309-1.486-3.304-3.306l.114-48.405z" class="B U"/><path d="M197.6 164.067c-.358 0-.744-.114-1.184-.351l-7.17-3.844c-.631-.338-1.853-.668-2.569-.689l-19.946-.643a2.98 2.98 0 0 1-2.857-2.952v-14.722a2.91 2.91 0 0 1 2.894-2.904l14.776-.035c1.34 0 2.88.85 3.593 1.978l13.496 21.435c.479.76.565 1.431.253 1.991-.253.46-.734.735-1.285.735" class="B D"/><path d="M181.551 136.686h-.005l-14.781.035c-2.279.007-4.134 1.865-4.134 4.146v14.722a4.23 4.23 0 0 0 4.06 4.192l19.948.643c.532.018 1.552.292 2.021.543l7.17 3.844c.626.336 1.206.499 1.771.499 1.012 0 1.898-.515 2.375-1.378.374-.677.628-1.794-.292-3.253l-13.496-21.433c-.934-1.482-2.882-2.559-4.636-2.559m0 2.485c.909 0 2.049.629 2.533 1.398l13.498 21.435c.33.525.315.822.018.822-.139 0-.34-.066-.596-.204l-7.17-3.844a8.43 8.43 0 0 0-3.116-.836l-19.946-.643a1.73 1.73 0 0 1-1.656-1.709v-14.722a1.67 1.67 0 0 1 1.656-1.661l14.78-.035" class="B I"/><path d="M174.908 152.436a1.73 1.73 0 0 1-1.655-1.709v-5.92c0-.913.744-1.658 1.656-1.661l5.948-.015c.911-.002 2.052.628 2.538 1.4l6.049 9.605c.485.77.225 1.048-.576.618l-2.248-1.204a8.44 8.44 0 0 0-3.116-.836l-8.596-.277z" class="B H"/><g class="I B"><path d="M187.523 202.345c0-8.484-6.215-15.359-13.877-15.359s-13.877 6.876-13.877 15.359h27.754z"/><path d="M162.747 201.136c0 6.016 4.876 10.894 10.899 10.894a10.9 10.9 0 0 0 10.899-10.894 10.9 10.9 0 0 0-10.899-10.902 10.9 10.9 0 0 0-10.899 10.902"/></g><path d="M168.719 201.135a4.88 4.88 0 1 0 9.764 0c0-2.7-2.185-4.885-4.885-4.885a4.88 4.88 0 0 0-4.88 4.885" class="B D"/><path d="M207.077 184.358c-.301 0-.598-.109-.831-.318l-1.429-1.287c-2.461-2.211-3.361-5.663-2.289-8.794.172-.504.646-.841 1.176-.841h3.374c.686 0 1.242.557 1.242 1.242v8.756c0 .49-.288.934-.735 1.136-.164.071-.335.106-.507.106" class="B O"/><path d="M207.077 171.875h-3.374c-1.063 0-2.008.676-2.352 1.681-1.231 3.603-.195 7.576 2.635 10.122l1.429 1.284a2.49 2.49 0 0 0 1.661.638 2.48 2.48 0 0 0 1.01-.215c.896-.399 1.474-1.289 1.474-2.269v-8.756c0-1.373-1.113-2.485-2.485-2.485m0 2.485v8.756l-1.429-1.285a7 7 0 0 1-1.945-7.47h3.374m-24.487-.093h-24.726c-.686 0-1.242-.557-1.242-1.242s.557-1.242 1.242-1.242h24.726c.686 0 1.242.557 1.242 1.242s-.557 1.242-1.242 1.242" class="I B"/><path d="M121.362 194.941c0 .896.727 1.623 1.623 1.623s1.625-.727 1.625-1.623-.727-1.623-1.625-1.623-1.623.725-1.623 1.623" class="B D"/><path d="M143.453 174.268H66.797c-.686 0-1.242-.557-1.242-1.242s.557-1.242 1.242-1.242h76.656c.686 0 1.242.557 1.242 1.242s-.557 1.242-1.242 1.242" class="B I"/><g stroke="#524800" stroke-width="3" class="J K B"><path d="M105.125 121.447v33.541"/><path d="M121.896 138.217H88.355"/><path d="M116.984 126.358l-23.717 23.717"/><path d="M116.984 150.076l-23.717-23.717"/></g><path d="M105.125 151.857c-7.632 0-13.844-6.21-13.844-13.842s6.211-13.844 13.844-13.844 13.842 6.21 13.842 13.844-6.21 13.842-13.842 13.842" class="B O"/><path d="M105.125 122.928c-8.318 0-15.086 6.766-15.086 15.084s6.768 15.086 15.086 15.086 15.084-6.766 15.084-15.086-6.768-15.084-15.084-15.084m0 2.485c6.958 0 12.6 5.642 12.6 12.6s-5.642 12.602-12.6 12.602-12.602-5.64-12.602-12.602 5.642-12.6 12.602-12.6" fill="#524800" class="B"/><path stroke="#524800" stroke-width="2" d="M100.292 138.368l4.149 2.486 5.516-7.681" class="B J K"/><path d="M207.648 215.24H61.794c-.914 0-1.656-.74-1.656-1.656s.742-1.656 1.656-1.656h145.854c.916 0 1.656.74 1.656 1.656s-.74 1.656-1.656 1.656" class="B H"/><g class="F B"><path d="M309.44 110.509c0 .962-6.304 1.742-14.079 1.742s-14.079-.78-14.079-1.742 6.304-1.742 14.079-1.742 14.079.78 14.079 1.742"/><path d="M295.36 111.337a.83.83 0 0 1-.828-.828V76.527a.83.83 0 0 1 .828-.828h26.936a.83.83 0 0 1 .828.828.83.83 0 0 1-.828.828h-26.108v33.154a.83.83 0 0 1-.828.828"/></g></g><g transform="translate(574)"><path d="M11.493 140.574v-29.452c3.533 8.247 13.657 24.559 38.446 24.559h.008c15.878-.003 35.222-6.655 57.5-19.774 44.337-26.109 72.103-37.25 92.837-37.25 13.431 0 23.446 4.358 36.125 9.875l1.347.585c25.69 11.162 56.419 22.574 89.521 22.574 16.923 0 33.107-3.049 48.099-9.06 20.981-8.413 42.744-12.678 64.682-12.678 15.576 0 26.202 2.264 28.792 2.877v47.743H11.493z" class="D"/><g class="G"><path d="M200.287 77.829c-19.313 0-45.205 9.065-93.261 37.366-24.698 14.543-43.233 19.658-57.08 19.658-32.741 0-39.281-28.572-39.281-28.572v35.121H469.68V92.183s-11.361-3.058-29.621-3.058c-16.921 0-39.767 2.625-64.992 12.737-16.13 6.466-32.258 8.999-47.789 8.999-34.971 0-66.935-12.833-89.193-22.505-13.125-5.703-23.712-10.528-37.798-10.528m-.002 1.656c13.259 0 23.204 4.328 35.796 9.806l1.345.585c25.768 11.197 56.596 22.642 89.852 22.642 17.027 0 33.313-3.068 48.407-9.118 20.883-8.373 42.542-12.618 64.374-12.618 14.433 0 24.587 1.955 27.964 2.71v46.254H12.321v-24.994c4.696 8.843 15.369 21.758 37.624 21.758 16.025 0 35.512-6.692 57.92-19.888 44.205-26.03 71.843-37.136 92.42-37.136"/><path d="M10.664 112.496s42.166-21.957 94.611-3.107 104.947.371 136.982-12.108c31.042-12.09 47.955-19.813 131.059 24.059s96.362-19.712 96.362-19.712v43.204H10.664v-32.335zm141.127-94.439h-8.943V16.4h7.324a8.8 8.8 0 0 1 8.746-7.955c4.845 0 8.784 3.94 8.784 8.784h-1.656c0-3.931-3.197-7.127-7.127-7.127a7.14 7.14 0 0 0-7.127 7.127v.828z"/><path d="M186.751 18.057h-10.733v-.828c0-2.292-1.865-4.157-4.157-4.157s-4.157 1.865-4.157 4.157h-1.656a5.82 5.82 0 0 1 5.814-5.814c2.923 0 5.35 2.17 5.754 4.986h9.136v1.656z"/></g><mask id="o" class="D"><use xlink:href="#B"/></mask><g class="G C"><path d="M188.533 18.056h4.091V16.4h-4.091zM49.689 25.761h-6.023v-1.656h4.424a5.93 5.93 0 0 1 5.862-5.092c3.265 0 5.918 2.655 5.918 5.92h-1.656a4.27 4.27 0 0 0-4.262-4.263 4.27 4.27 0 0 0-4.263 4.263v.828z"/><use xlink:href="#L" x="19.012" y="15.439"/><path d="M72.906 25.761h2.619v-1.656h-2.619zM410.495 6.748h-6.023V5.091h4.424A5.93 5.93 0 0 1 414.759 0a5.93 5.93 0 0 1 5.92 5.92h-1.656a4.27 4.27 0 0 0-4.263-4.263 4.27 4.27 0 0 0-4.263 4.263v.828z"/><use xlink:href="#M" x="-19.359" y="-3.574"/><path d="M433.714 6.748h2.617V5.092h-2.617zM293.229 43.977h-8.943V42.32h7.324a8.8 8.8 0 0 1 8.746-7.955c4.843 0 8.782 3.94 8.782 8.784h-1.656c0-3.931-3.197-7.127-7.126-7.127a7.14 7.14 0 0 0-7.127 7.127v.828z"/><path d="M328.189 43.977h-10.733v-.828c0-2.292-1.865-4.157-4.157-4.157s-4.159 1.865-4.159 4.157h-1.656c0-3.205 2.609-5.814 5.815-5.814 2.923 0 5.35 2.171 5.754 4.986h9.136v1.656zm1.782-.001h4.091V42.32h-4.091z"/></g><path d="M53.181 216.69h-9.739l4.87-4.87z" class="C H"/><path d="M309.977 144.834h34.697V68.391h-34.697z" class="C D"/><g class="G C"><use xlink:href="#U"/><path d="M334.756 90.969h5.28V85.69h-5.28zm0 12.51h5.28V98.2h-5.28zm0 12.511h5.28v-5.28h-5.28zm0 12.51h5.28v-5.28h-5.28zm0 12.511h5.28v-5.279h-5.28zm-24.779-62.553h34.697V68.389h-34.697zm4.638 12.511h17.947V85.69h-17.947zm0 12.51h17.947V98.2h-17.947zm0 12.511h17.947v-5.28h-17.947zm0 12.51h17.947v-5.28h-17.947zm0 12.511h17.947v-5.279h-17.947z"/></g><path d="M99.157 190.7h-6.233l3.116-3.117zm306.418 17.587h-7.48l3.74-3.74z" class="H C"/><g class="G C"><path d="M295.807 82.938c0 1.468-1.189 2.657-2.657 2.657s-2.653-1.189-2.653-2.657.321-8.949 2.653-8.949 2.657 7.483 2.657 8.949"/><path d="M292.736 89.558h.828v-5.09h-.828z"/></g><g class="F C"><path d="M317.264 130.142c0 3.207-2.597 5.804-5.804 5.804s-5.804-2.597-5.804-5.804.702-19.562 5.804-19.562 5.804 16.355 5.804 19.562"/><use xlink:href="#V"/><use xlink:href="#W"/><use xlink:href="#V" x="33.981"/><use xlink:href="#W" x="33.981"/><use xlink:href="#V" x="67.962"/><path d="M419.209 130.142c0 3.207-2.599 5.804-5.806 5.804s-5.804-2.597-5.804-5.804.704-19.562 5.804-19.562 5.806 16.355 5.806 19.562"/><use xlink:href="#V" x="101.943"/><path d="M453.19 130.142c0 3.207-2.599 5.804-5.804 5.804s-5.804-2.597-5.804-5.804.702-19.562 5.804-19.562 5.804 16.355 5.804 19.562"/><use xlink:href="#V" x="135.927"/></g><g class="G C"><path d="M436.123 83.602c0 1.466-1.189 2.655-2.655 2.655s-2.655-1.189-2.655-2.655.696-7.376 2.655-7.376 2.655 5.91 2.655 7.376"/><path d="M433.055 90.222h.828v-5.09h-.828zm-244.978-15.91c0 1.466-1.189 2.655-2.655 2.655s-2.655-1.189-2.655-2.655.696-7.376 2.655-7.376 2.655 5.908 2.655 7.376"/><path d="M185.008 80.93h.828v-5.09h-.828zm13.27-7.444a1.58 1.58 0 0 1-1.577 1.579 1.58 1.58 0 0 1-1.579-1.579c0-.871.412-4.384 1.579-4.384s1.577 3.513 1.577 4.384"/><path d="M196.287 79.291h.828v-5.09h-.828zM88.84 100.952a1.58 1.58 0 0 1-1.579 1.579 1.58 1.58 0 0 1-1.579-1.579c0-.871.414-4.384 1.579-4.384s1.579 3.513 1.579 4.384"/><path d="M86.848 104.582h.828v-2.915h-.828z"/></g><path d="M476.203 144.833h-13.045V59.237h13.045" class="C D"/><g class="F C"><path d="M476.203 145.661h-13.045a.83.83 0 0 1-.828-.828V59.237a.83.83 0 0 1 .828-.828h13.045a.83.83 0 0 1 .828.828.83.83 0 0 1-.828.828h-12.217v83.939h12.217a.83.83 0 0 1 .828.828.83.83 0 0 1-.828.828"/><use xlink:href="#N" y="3.756"/><use xlink:href="#P" y="-24.578"/><use xlink:href="#R" y="-43.468"/><use xlink:href="#O" y="22.646"/><use xlink:href="#O" y="32.09"/><use xlink:href="#Q" y="-5.689"/><use xlink:href="#P" y="22.645"/><use xlink:href="#O" y="60.424"/></g><path d="M4.141 144.833h13.045V75.501H4.141" class="C D"/><g class="F C"><path d="M17.186 145.661H4.141a.83.83 0 0 1-.828-.828.83.83 0 0 1 .828-.828h12.217V76.329H4.141a.83.83 0 0 1-.828-.828.83.83 0 0 1 .828-.828h13.045a.83.83 0 0 1 .828.828v69.332a.83.83 0 0 1-.828.828"/><use xlink:href="#X"/><path d="M13.709 95.219H5.798a.83.83 0 0 1-.828-.828.83.83 0 0 1 .828-.828h7.911a.83.83 0 0 1 .828.828.83.83 0 0 1-.828.828m0 9.444H.829a.83.83 0 0 1-.828-.828.83.83 0 0 1 .828-.828h12.88a.83.83 0 0 1 .828.828.83.83 0 0 1-.828.828"/><use xlink:href="#Y"/><use xlink:href="#X" y="37.778"/><use xlink:href="#Y" y="18.889"/><path d="M28.026 136.719h20.309V60.277H28.026z"/><path d="M20.913 144.834h34.699V68.391H20.913z"/><path d="M34.571 144.834h7.217V68.391h-7.217z"/></g><g class="G C"><path d="M45.694 78.458h5.279V73.18h-5.279zm0 12.511h5.279V85.69h-5.279zm0 12.51h5.279V98.2h-5.279z"/><use xlink:href="#Z"/><use xlink:href="#Z" y="12.51"/><use xlink:href="#a"/><path d="M25.551 78.458h5.28V73.18h-5.28zm0 12.511h5.28V85.69h-5.28zm0 12.51h5.28V98.2h-5.28zm0 12.511h5.28v-5.28h-5.28zm0 12.51h5.28v-5.28h-5.28zm0 12.511h5.28v-5.279h-5.28z"/></g><path d="M66.311 144.834h34.697V68.391H66.311z" class="C F"/><g class="G C"><path d="M91.091 90.969h5.279V85.69h-5.279zm0 12.51h5.279V98.2h-5.279z"/><use xlink:href="#Z" x="45.397"/><use xlink:href="#Z" x="45.397" y="12.51"/></g><g class="F C"><use xlink:href="#a" x="45.397"/><path d="M66.311 78.458h34.697V68.389H66.311z"/></g><path d="M70.948 90.969h17.948V85.69H70.948zm0 12.51h17.948V98.2H70.948zm0 12.511h17.948v-5.28H70.948zm0 12.51h17.948v-5.28H70.948z" class="G C"/><path d="M70.948 141.011h17.948v-5.279H70.948z" class="C F"/><path d="M136.959 144.834h34.697V68.391h-34.697z" class="C D"/><g class="G C"><use xlink:href="#U" x="-173.019"/><path d="M161.738 90.969h5.279V85.69h-5.279zm0 12.51h5.279V98.2h-5.279z"/><use xlink:href="#Z" x="116.044"/><use xlink:href="#Z" x="116.044" y="12.51"/><use xlink:href="#a" x="116.044"/><path d="M136.959 78.458h34.697V68.389h-34.697zm4.636 12.511h17.948V85.69h-17.948zm0 12.51h17.948V98.2h-17.948zm0 12.511h17.948v-5.28h-17.948zm0 12.51h17.948v-5.28h-17.948zm0 12.511h17.948v-5.279h-17.948z"/></g><g class="F C"><path d="M163.442 133.523V97.134l29.632-10.818v47.206z"/><path d="M195.607 91.469l-34.697 12.669v40.693h34.697z"/></g><use xlink:href="#b" class="C G"/><g class="F C"><use xlink:href="#b" y="8.732"/><use xlink:href="#b" y="17.466"/><use xlink:href="#b" y="26.198"/></g><g class="G C"><use xlink:href="#c"/><path d="M165.548 109.616h25.422v-1.158h-25.422z"/><use xlink:href="#c" y="8.732"/><use xlink:href="#c" y="17.466"/><use xlink:href="#c" y="26.198"/></g><path d="M113.447 144.832h34.697V91.469h-34.697z" class="C F"/><g class="G C"><use xlink:href="#d"/><path d="M135.517 140.567h2.173V95.734h-2.173z"/><use xlink:href="#d" x="-11.613"/><use xlink:href="#d" x="-17.42"/><use xlink:href="#d" x="-23.227"/></g><g class="F C"><path d="M130.796 78.442h0a12.86 12.86 0 0 0-12.855 12.855h25.71a12.86 12.86 0 0 0-12.855-12.855"/><use xlink:href="#T" y="3.757"/></g><use xlink:href="#e" class="C H"/><g class="E C"><path d="M64.187 153.449a2.88 2.88 0 0 0-2.875 2.875 2.88 2.88 0 0 0 2.875 2.877 2.88 2.88 0 0 0 2.875-2.877 2.88 2.88 0 0 0-2.875-2.875m0 1.242c.901 0 1.633.732 1.633 1.633s-.732 1.635-1.633 1.635-1.633-.732-1.633-1.635.73-1.633 1.633-1.633"/><path d="M64.192 162.08h5.125v-4.247h-5.125z"/><path d="M64.192 164.64h1.093v-6.809h-1.093zm34.275-3.842h55.35v-6.384h-55.35z"/><path d="M88.999 156.761h64.818v-2.345H88.999z"/></g><path d="M148.7 161.551c-3.508 0-3.543-.035-3.758-.26a.63.63 0 0 1-.172-.431c0-2.514-2.017-4.528-4.495-4.528h-3.087a3.94 3.94 0 0 1-3.934-3.934v-10.011a3.94 3.94 0 0 1 3.934-3.934h14.069a3.94 3.94 0 0 1 3.934 3.934v15.23a3.94 3.94 0 0 1-3.934 3.934H148.7z" class="C N"/><path d="M151.256 137.832h-14.069a4.56 4.56 0 0 0-4.555 4.555v10.011a4.56 4.56 0 0 0 4.555 4.555h3.087a3.88 3.88 0 0 1 3.874 3.873c0 .321.124.666.348.898.422.439.431.449 4.204.449h2.556a4.56 4.56 0 0 0 4.555-4.555v-15.23a4.56 4.56 0 0 0-4.555-4.555m0 1.242c1.822 0 3.313 1.491 3.313 3.313v15.23c0 1.822-1.491 3.313-3.313 3.313H148.7c-1.822 0-3.311-.031-3.309-.07v-.035c0-2.824-2.291-5.115-5.116-5.115h-3.087c-1.822 0-3.313-1.491-3.313-3.313v-10.011c0-1.822 1.491-3.313 3.313-3.313h14.069" class="C E"/><use xlink:href="#f" class="C D"/><path d="M150.465 140.598h-8.252a2.9 2.9 0 0 0-2.899 2.899v1.744a2.9 2.9 0 0 0 2.899 2.899h5.309c.437 0 .797.161.918.25.424.933 1.516 1.625 2.586 1.625 1.312 0 2.339-1.274 2.339-2.899v-3.619a2.9 2.9 0 0 0-2.899-2.899m0 1.242a1.66 1.66 0 0 1 1.656 1.656v3.619c0 .909-.494 1.656-1.097 1.656s-1.267-.422-1.473-.937-1.121-.937-2.031-.937h-5.309a1.66 1.66 0 0 1-1.656-1.656v-1.744a1.66 1.66 0 0 1 1.656-1.656h8.252" class="C E"/><path d="M144.549 144.239c0 .714.745 1.295 1.656 1.295h1.101c.911 0 1.744.215 1.848.479s.446.48.754.48.562-.745.562-1.656v-.235a1.66 1.66 0 0 0-1.656-1.656h-2.609c-.911 0-1.656.581-1.656 1.294" class="C H"/><path d="M64.192 160.798h27.703v-6.384H64.192z" class="C E"/><path d="M154.569 152.917h-12.946" class="C J K R S"/><g class="E C"><path d="M152.574 154.91v4.293h-2.9v2.296h3.513a1.38 1.38 0 0 0 1.381-1.381v-5.208h-1.994zm-.464-16.856v-2.456l-15.585 2.456z"/><use xlink:href="#g"/></g><use xlink:href="#h" class="C D"/><use xlink:href="#g" x="-20.089" class="C E"/><use xlink:href="#h" x="-20.088" class="C D"/><use xlink:href="#g" x="-32.459" class="C E"/><use xlink:href="#h" x="-32.459" class="C D"/><use xlink:href="#g" x="-55.254" class="C E"/><use xlink:href="#i" class="C D"/><path d="M66.508 162.155a5.35 5.35 0 0 0 5.348 5.348c2.957 0 5.352-2.397 5.352-5.348a5.35 5.35 0 1 0-10.7 0" class="C E"/><use xlink:href="#i" x="-12.371" class="C D"/><use xlink:href="#j" class="C P"/><path d="M130.7 125.911H61.38c-.686 0-1.242.557-1.242 1.242v26.464a1.24 1.24 0 0 0 1.242 1.242h69.32a1.24 1.24 0 0 0 1.242-1.242v-26.464c0-.686-.557-1.242-1.242-1.242h0zm-69.32 27.706h69.32v-26.464H61.38v26.464z" class="C E"/><path d="M154.569 155.987a.83.83 0 0 0-.817.827c0 .452.366.82.817.825v-1.651zm0 2.182a.53.53 0 0 0-.522.528.53.53 0 0 0 .522.53v-1.058z" class="Q C"/><path d="M63.118 151.332h62.955" class="C J K R S"/><g class="H C"><path d="M155.089 168.701h-94.23a.62.62 0 1 1 0-1.242h94.23a.62.62 0 1 1 0 1.242"/><use xlink:href="#e" x="283.629"/></g><g class="E C"><path d="M347.816 153.449a2.88 2.88 0 0 0-2.875 2.875 2.88 2.88 0 0 0 2.875 2.877 2.88 2.88 0 0 0 2.875-2.877 2.88 2.88 0 0 0-2.875-2.875m0 1.242c.903 0 1.633.732 1.633 1.633s-.73 1.635-1.633 1.635-1.633-.732-1.633-1.635.73-1.633 1.633-1.633"/><path d="M347.822 162.08h5.123v-4.247h-5.123z"/><path d="M347.822 164.64h1.093v-6.809h-1.093zm34.275-3.842h55.35v-6.384h-55.35z"/><path d="M372.631 156.761h64.817v-2.345h-64.817z"/></g><path d="M432.33 161.551c-3.508 0-3.543-.035-3.758-.26a.63.63 0 0 1-.172-.431c0-2.514-2.017-4.528-4.495-4.528h-3.087a3.94 3.94 0 0 1-3.934-3.934v-10.011a3.94 3.94 0 0 1 3.934-3.934h14.069a3.94 3.94 0 0 1 3.934 3.934v15.23a3.94 3.94 0 0 1-3.934 3.934h-2.556z" class="C N"/><path d="M434.884 137.832h-14.067a4.56 4.56 0 0 0-4.555 4.555v10.011a4.56 4.56 0 0 0 4.555 4.555h3.087a3.88 3.88 0 0 1 3.873 3.873c0 .321.126.666.348.898.424.439.432.449 4.205.449h2.554a4.56 4.56 0 0 0 4.555-4.555v-15.23a4.56 4.56 0 0 0-4.555-4.555m0 1.242c1.824 0 3.313 1.491 3.313 3.313v15.23c0 1.822-1.489 3.313-3.313 3.313h-2.554c-1.824 0-3.311-.031-3.311-.07v-.035c0-2.824-2.291-5.115-5.115-5.115h-3.087c-1.824 0-3.313-1.491-3.313-3.313v-10.011c0-1.822 1.489-3.313 3.313-3.313h14.067" class="C E"/><use xlink:href="#f" x="283.63" class="C D"/><path d="M434.095 140.598h-8.254c-1.598 0-2.899 1.3-2.899 2.899v1.744c0 1.598 1.3 2.899 2.899 2.899h5.31c.437 0 .797.161.916.25.426.933 1.516 1.625 2.587 1.625 1.312 0 2.339-1.274 2.339-2.899v-3.619c0-1.598-1.3-2.899-2.899-2.899m0 1.242a1.66 1.66 0 0 1 1.656 1.656v3.619c0 .909-.494 1.656-1.097 1.656s-1.267-.422-1.474-.937-1.12-.937-2.029-.937h-5.31a1.66 1.66 0 0 1-1.656-1.656v-1.744a1.66 1.66 0 0 1 1.656-1.656h8.254" class="C E"/><path d="M428.18 144.239c0 .714.744 1.295 1.656 1.295h1.101c.911 0 1.742.215 1.847.479s.446.48.755.48.562-.745.562-1.656v-.235a1.66 1.66 0 0 0-1.656-1.656h-2.609c-.913 0-1.656.581-1.656 1.294" class="C H"/><path d="M347.822 160.798h27.703v-6.384h-27.703z" class="C E"/><path d="M438.197 152.917h-12.944" class="C J K R S"/><g class="E C"><path d="M436.204 154.91v4.293h-2.9v2.296h3.511a1.38 1.38 0 0 0 1.381-1.381v-5.208h-1.993zm-.464-16.856v-2.456l-15.585 2.456z"/><use xlink:href="#k"/></g><use xlink:href="#h" x="283.63" class="C D"/><use xlink:href="#k" x="-20.088" class="C E"/><use xlink:href="#h" x="263.542" class="C D"/><use xlink:href="#k" x="-32.459" class="C E"/><use xlink:href="#h" x="251.171" class="C D"/><use xlink:href="#k" x="-55.253" class="C E"/><use xlink:href="#h" x="228.377" class="C D"/><path d="M350.138 162.155a5.35 5.35 0 0 0 5.348 5.348 5.35 5.35 0 0 0 5.35-5.348 5.35 5.35 0 0 0-5.35-5.35 5.35 5.35 0 0 0-5.348 5.35" class="C E"/><use xlink:href="#h" x="216.006" class="C D"/><use xlink:href="#j" x="283.63" class="C P"/><path d="M414.329 125.911H345.01c-.686 0-1.242.557-1.242 1.242v26.464a1.24 1.24 0 0 0 1.242 1.242h69.319a1.24 1.24 0 0 0 1.242-1.242v-26.464a1.24 1.24 0 0 0-1.242-1.242h0zm-69.319 27.706h69.319v-26.464H345.01v26.464z" class="C E"/><path d="M438.197 155.987a.83.83 0 0 0-.815.827c0 .452.364.82.815.825v-1.651zm0 2.182a.53.53 0 0 0-.522.528.53.53 0 0 0 .522.53v-1.058z" class="Q C"/><path d="M346.748 151.332h62.955" class="C J K R S"/><path d="M438.718 168.701h-94.229a.62.62 0 1 1 0-1.242h94.229a.62.62 0 1 1 0 1.242" class="C H"/><path d="M188.115 196.882a.83.83 0 0 1-.828-.828v-77.345a.83.83 0 0 1 .828-.828h104.062c.459 0 .828.369.828.828v77.345a.83.83 0 0 1-.828.828H188.115z" class="C O"/><path d="M292.177 117.051H188.115c-.914 0-1.656.742-1.656 1.656v77.345c0 .916.742 1.656 1.656 1.656h104.062c.914 0 1.656-.74 1.656-1.656v-77.345c0-.914-.742-1.656-1.656-1.656h0zm-104.062 79.002h104.062v-77.345H188.115v77.345z" class="C I"/><path fill="#b8a200" d="M188.114 121.85h104.062v-3.21H188.114z" class="C"/><path d="M245.654 137.578c-.242 0-.475-.104-.636-.298l-1.199-1.439-1.201 1.439a.82.82 0 0 1-.636.298c-.245 0-.479-.108-.636-.298l-1.199-1.439-1.201 1.439a.82.82 0 0 1-.636.298c-.245 0-.479-.108-.634-.298l-1.201-1.439-1.201 1.439a.82.82 0 0 1-.634.298c-.094 0-.19-.017-.282-.05-.33-.119-.547-.429-.547-.778v-17.625a.83.83 0 0 1 .828-.828h11.015a.83.83 0 0 1 .828.828v17.625a.83.83 0 0 1-.547.778c-.093.033-.187.05-.282.05" class="C D"/><path d="M245.654 117.469h-11.015c-.914 0-1.656.742-1.656 1.656v17.625a1.65 1.65 0 0 0 1.093 1.555c.184.068.373.101.563.101.482 0 .952-.212 1.272-.598l.563-.676.563.676c.315.379.782.598 1.272.598a1.66 1.66 0 0 0 1.274-.598l.563-.676.563.676a1.65 1.65 0 0 0 1.272.598c.492-.002.957-.219 1.274-.598l.563-.676.562.676a1.66 1.66 0 0 0 1.274.598 1.64 1.64 0 0 0 .565-.101c.654-.235 1.092-.858 1.092-1.555v-17.625c0-.914-.742-1.656-1.656-1.656m0 1.656v17.625l-1.835-2.203-1.837 2.203-1.835-2.203-1.837 2.203-1.835-2.203-1.835 2.203v-17.625h11.015" class="C I"/><path d="M191.409 127.648v59.467" stroke="#fff" class="C J K"/><g fill="#524800" class="C"><path d="M224.087 153.186l6.167-8.224 6.167 8.224z"/><path d="M229.319 177.144h1.656v-25.857h-1.656zm14.552-23.958l6.168-8.224 6.165 8.224z"/><path d="M249.106 177.144h1.656v-25.857h-1.656zm-25.019 9.367h32.118v-3.313h-32.118z"/></g><use xlink:href="#l" class="C U"/><path d="M297.928 196.05H182.363c-.914 0-1.656.74-1.656 1.656v4.406c0 .914.742 1.656 1.656 1.656h115.564c.916 0 1.656-.742 1.656-1.656v-4.406c0-.916-.74-1.656-1.656-1.656h0zm-115.564 6.062h115.564v-4.406H182.363v4.406z" class="C I"/><use xlink:href="#l" y="14.577" class="C U"/><g class="I C"><path d="M297.928 210.628H182.363c-.914 0-1.656.742-1.656 1.656v4.406c0 .914.742 1.656 1.656 1.656h115.564c.916 0 1.656-.742 1.656-1.656v-4.406c0-.914-.74-1.656-1.656-1.656h0zm-115.564 6.062h115.564v-4.406H182.363v4.406z"/><use xlink:href="#m"/><use xlink:href="#m" x="-44.566"/><use xlink:href="#m" x="44.564"/></g><path d="M309.211 221.679H171.133c-.916 0-1.656-.74-1.656-1.656s.74-1.656 1.656-1.656h138.079c.916 0 1.656.74 1.656 1.656s-.74 1.656-1.656 1.656" class="C H"/></g></g></svg>