<svg width="275" height="256" viewBox="0 0 275 256" fill="none" xmlns="http://www.w3.org/2000/svg">
<path d="M153.667 224H55C52.7909 224 51 225.791 51 228V252C51 254.209 52.7909 256 55 256H153.667C155.876 256 157.667 254.209 157.667 252V228C157.667 225.791 155.876 224 153.667 224Z" fill="#757575"/>
<path fill-rule="evenodd" clip-rule="evenodd" d="M90.9323 236.667H90.4342L92.0293 232.227H92.5046L94.0996 236.667H93.5788L93.1068 235.283H91.4043L90.9323 236.667ZM92.2637 232.826H92.2507L91.5443 234.883H92.9701L92.2637 232.826ZM95.3658 236.667H95.8768L97.1073 233.258H96.6255L95.6229 236.061H95.6066L94.6626 233.258H94.1581L95.3658 236.667ZM99.7016 236.224C99.5388 236.497 99.2198 236.722 98.699 236.722C98.0382 236.722 97.5857 236.315 97.5857 235.69C97.5857 235.101 97.9958 234.723 98.7738 234.72H99.7016V234.352C99.7016 233.874 99.4216 233.617 98.9366 233.617C98.4678 233.617 98.2107 233.848 98.1716 234.209H97.7191C97.7582 233.617 98.1651 233.203 98.9561 233.203C99.6658 233.203 100.18 233.597 100.18 234.297V236.667H99.7146V236.224H99.7016ZM98.8129 236.309C99.3207 236.309 99.7016 235.99 99.7016 235.531V235.111H98.7901C98.2921 235.111 98.0805 235.348 98.0805 235.68C98.0805 236.104 98.4288 236.309 98.8129 236.309ZM101.349 236.667H101.827V233.258H101.349V236.667ZM101.264 232.428C101.264 232.611 101.41 232.757 101.586 232.757C101.768 232.757 101.915 232.611 101.915 232.428C101.915 232.249 101.768 232.103 101.586 232.103C101.41 232.103 101.264 232.249 101.264 232.428ZM103.051 236.667H103.529V231.989H103.051V236.667ZM106.632 236.224C106.469 236.497 106.15 236.722 105.629 236.722C104.968 236.722 104.516 236.315 104.516 235.69C104.516 235.101 104.926 234.723 105.704 234.72H106.632V234.352C106.632 233.874 106.352 233.617 105.867 233.617C105.398 233.617 105.141 233.848 105.102 234.209H104.649C104.688 233.617 105.095 233.203 105.886 233.203C106.596 233.203 107.11 233.597 107.11 234.297V236.667H106.645V236.224H106.632ZM105.743 236.309C106.251 236.309 106.632 235.99 106.632 235.531V235.111H105.72C105.222 235.111 105.01 235.348 105.01 235.68C105.01 236.104 105.359 236.309 105.743 236.309ZM109.76 236.722C109.249 236.722 108.92 236.481 108.724 236.136H108.711V236.667H108.259V231.989H108.734V233.743H108.747C108.913 233.464 109.301 233.203 109.766 233.203C110.56 233.203 111.12 233.77 111.12 234.775V235.146C111.12 236.126 110.57 236.722 109.76 236.722ZM109.727 236.296C110.261 236.296 110.642 235.879 110.642 235.114V234.808C110.642 234.046 110.264 233.63 109.727 233.63C109.102 233.63 108.728 234.059 108.728 234.808V235.107C108.728 235.863 109.102 236.296 109.727 236.296ZM112.172 236.667H112.65V231.989H112.172V236.667ZM115.101 236.722C114.226 236.722 113.698 236.097 113.698 235.133V234.743C113.698 233.841 114.193 233.203 115.078 233.203C115.951 233.203 116.459 233.835 116.459 234.782V235.081H114.18V235.15C114.18 235.843 114.525 236.309 115.117 236.309C115.547 236.309 115.817 236.087 115.925 235.762H116.41C116.283 236.309 115.84 236.722 115.101 236.722ZM114.18 234.668H115.977V234.658C115.977 234.066 115.619 233.617 115.078 233.617C114.532 233.617 114.18 234.069 114.18 234.658V234.668ZM120.247 233.203C121.172 233.203 121.686 233.877 121.686 234.792V235.127C121.686 236.045 121.178 236.722 120.247 236.722C119.316 236.722 118.805 236.045 118.805 235.127V234.792C118.805 233.877 119.32 233.203 120.247 233.203ZM120.247 233.623C119.639 233.623 119.284 234.076 119.284 234.814V235.101C119.284 235.84 119.639 236.296 120.247 236.296C120.853 236.296 121.208 235.843 121.208 235.101V234.814C121.208 234.076 120.853 233.623 120.247 233.623ZM122.715 236.667H123.193V234.58C123.193 234.092 123.46 233.643 124.085 233.643C124.619 233.643 124.961 233.965 124.961 234.548V236.667H125.439V234.476C125.439 233.649 124.915 233.203 124.212 233.203C123.652 233.203 123.333 233.496 123.206 233.724H123.193V233.258H122.715V236.667ZM128.226 233.258H127.76V233.665H128.226V235.736C128.226 236.393 128.375 236.699 129.153 236.699C129.267 236.699 129.381 236.686 129.43 236.676V236.283C129.381 236.289 129.332 236.289 129.274 236.289C128.841 236.289 128.704 236.185 128.704 235.765V233.665H129.401V233.258H128.704V232.402H128.226V233.258ZM130.416 236.667H130.891V234.58C130.891 234.092 131.162 233.643 131.787 233.643C132.32 233.643 132.662 233.965 132.662 234.548V236.667H133.141V234.476C133.141 233.649 132.617 233.203 131.914 233.203C131.354 233.203 131.035 233.496 130.904 233.724H130.891V231.989H130.416V236.667ZM135.517 236.722C134.641 236.722 134.114 236.097 134.114 235.133V234.743C134.114 233.841 134.609 233.203 135.494 233.203C136.367 233.203 136.874 233.835 136.874 234.782V235.081H134.596V235.15C134.596 235.843 134.941 236.309 135.533 236.309C135.963 236.309 136.233 236.087 136.34 235.762H136.826C136.699 236.309 136.256 236.722 135.517 236.722ZM134.596 234.668H136.393V234.658C136.393 234.066 136.035 233.617 135.494 233.617C134.947 233.617 134.596 234.069 134.596 234.658V234.668Z" fill="white"/>
<path fill-rule="evenodd" clip-rule="evenodd" d="M84.3595 243.113C84.8567 243.827 85.4266 244.282 86.0684 244.476C85.7871 245.378 85.3436 246.279 84.738 247.18C83.8078 248.594 82.8807 249.301 81.9581 249.301C81.6048 249.301 81.0998 249.185 80.4437 248.955C79.8233 248.724 79.2788 248.608 78.8101 248.608C78.3698 248.608 77.8583 248.728 77.2743 248.966C76.6901 249.211 76.2136 249.333 75.846 249.333C74.7498 249.333 73.6646 248.4 72.5903 246.532C71.5303 244.649 71 242.836 71 241.091C71 239.447 71.4078 238.098 72.2227 237.045C73.0297 236.007 74.0541 235.488 75.2943 235.488C75.8136 235.488 76.4523 235.595 77.2094 235.812C77.9596 236.028 78.4568 236.137 78.7017 236.137C79.0265 236.137 79.542 236.013 80.2487 235.768C80.9844 235.523 81.6081 235.401 82.1203 235.401C82.978 235.401 83.7462 235.635 84.4244 236.103C84.7991 236.363 85.1744 236.724 85.5491 237.185C84.9798 237.668 84.5683 238.094 84.316 238.462C83.8473 239.139 83.6133 239.886 83.6133 240.701C83.6133 241.595 83.8616 242.399 84.3595 243.113ZM80.681 234.752C80.292 235.141 79.9025 235.401 79.5128 235.53C79.2464 235.61 78.871 235.671 78.3881 235.714C78.4095 234.64 78.6908 233.713 79.2322 232.935C79.7656 232.162 80.6668 231.629 81.9362 231.333C81.9434 231.355 81.9523 231.395 81.9634 231.452C81.9737 231.51 81.9829 231.55 81.9907 231.571C81.9907 231.6 81.9918 231.636 81.9958 231.68C81.999 231.722 82.0009 231.759 82.0009 231.788C82.0009 232.227 81.8966 232.718 81.6873 233.259C81.4714 233.799 81.1354 234.297 80.681 234.752Z" fill="white"/>
<path fill-rule="evenodd" clip-rule="evenodd" d="M91.6979 248H90.4271L92.8542 240.891H94.2865L96.7083 248H95.3594L94.7552 246.083H92.3021L91.6979 248ZM93.5573 242.167H93.5104L92.5781 245.125H94.4844L93.5573 242.167ZM100.354 248.073C99.6302 248.073 99.0885 247.734 98.8073 247.224H98.7604V249.859H97.526V242.49H98.7292V243.302H98.776C99.0729 242.771 99.6302 242.411 100.38 242.411C101.609 242.411 102.484 243.344 102.484 245V245.484C102.484 247.125 101.62 248.073 100.354 248.073ZM100.031 247.073C100.745 247.073 101.229 246.5 101.229 245.422V245.042C101.229 244 100.776 243.411 100.016 243.411C99.2396 243.411 98.75 244.042 98.75 245.036V245.422C98.75 246.443 99.2448 247.073 100.031 247.073ZM106.536 248.073C105.812 248.073 105.271 247.734 104.99 247.224H104.943V249.859H103.708V242.49H104.911V243.302H104.958C105.255 242.771 105.812 242.411 106.562 242.411C107.792 242.411 108.667 243.344 108.667 245V245.484C108.667 247.125 107.802 248.073 106.536 248.073ZM106.214 247.073C106.927 247.073 107.411 246.5 107.411 245.422V245.042C107.411 244 106.958 243.411 106.198 243.411C105.422 243.411 104.932 244.042 104.932 245.036V245.422C104.932 246.443 105.427 247.073 106.214 247.073ZM111.589 246.01C111.609 246.979 112.276 248.141 114.281 248.141C115.927 248.141 117.052 247.339 117.052 245.943C117.052 244.708 116.224 244.203 115.161 243.958L114.016 243.682C113.365 243.531 113.036 243.214 113.036 242.76C113.036 242.13 113.568 241.755 114.359 241.755C115.255 241.755 115.708 242.245 115.755 242.823H116.953C116.932 241.516 115.802 240.734 114.37 240.734C112.964 240.734 111.771 241.49 111.771 242.859C111.771 244.026 112.599 244.578 113.536 244.792L114.677 245.068C115.427 245.25 115.792 245.526 115.792 246.052C115.792 246.698 115.271 247.115 114.37 247.115C113.385 247.115 112.865 246.604 112.812 246.01H111.589ZM118.708 242.49H117.917V243.464H118.687V246.448C118.687 247.557 119.083 248.036 120.437 248.036C120.687 248.036 120.911 248.01 121.01 247.995V247.062C120.943 247.073 120.844 247.073 120.74 247.073C120.135 247.073 119.906 246.906 119.906 246.323V243.464H120.979V242.49H119.906V241.156H118.708V242.49ZM124.396 242.396C125.99 242.396 126.865 243.505 126.865 245.016V245.443C126.865 247.016 125.995 248.094 124.396 248.094C122.792 248.094 121.917 247.016 121.917 245.448V245.021C121.917 243.51 122.797 242.396 124.396 242.396ZM124.396 243.365C123.557 243.365 123.156 244.063 123.156 245.026V245.453C123.156 246.396 123.552 247.115 124.396 247.115C125.234 247.115 125.625 246.396 125.625 245.453V245.026C125.625 244.057 125.229 243.365 124.396 243.365ZM128.073 248H129.328V244.781C129.328 244.036 129.641 243.479 130.557 243.479C130.755 243.479 130.964 243.49 131.068 243.521V242.443C130.958 242.422 130.828 242.406 130.661 242.406C129.901 242.406 129.49 242.88 129.354 243.224H129.302V242.49H128.073V248ZM134.167 248.094C132.677 248.094 131.724 247.13 131.724 245.479V244.938C131.724 243.37 132.667 242.396 134.115 242.396C135.594 242.396 136.5 243.422 136.5 244.984V245.516H132.932V245.656C132.932 246.552 133.422 247.141 134.177 247.141C134.75 247.141 135.151 246.854 135.281 246.385H136.437C136.286 247.276 135.562 248.094 134.167 248.094ZM132.932 244.688H135.297V244.677C135.297 243.917 134.833 243.333 134.12 243.333C133.401 243.333 132.932 243.922 132.932 244.677V244.688Z" fill="white"/>
<path d="M270.667 224H172C169.791 224 168 225.791 168 228V252C168 254.209 169.791 256 172 256H270.667C272.876 256 274.667 254.209 274.667 252V228C274.667 225.791 272.876 224 270.667 224Z" fill="#757575"/>
<path fill-rule="evenodd" clip-rule="evenodd" d="M201.503 232.257C201.266 231.544 201.148 231.158 201.148 231.1H201.115C201.115 231.154 200.992 231.539 200.748 232.257H201.503ZM202.461 233.429H201.797C201.797 233.338 201.734 233.079 201.608 232.653H200.65C200.521 233.072 200.456 233.331 200.456 233.429H199.831C199.831 233.375 199.993 232.932 200.315 232.102C200.638 231.271 200.799 230.813 200.799 230.729H201.583C201.583 230.808 201.729 231.259 202.022 232.082C202.315 232.905 202.461 233.354 202.461 233.429ZM205.135 233.429H204.622C204.622 233.372 204.432 233.073 204.052 232.531C203.654 231.96 203.427 231.569 203.372 231.359H203.339C203.373 231.662 203.391 231.936 203.391 232.18C203.391 232.522 203.4 232.938 203.419 233.429H202.91C202.93 233 202.941 232.53 202.941 232.016C202.941 231.512 202.93 231.083 202.91 230.729H203.525C203.525 230.802 203.696 231.095 204.038 231.606C204.401 232.149 204.61 232.518 204.664 232.711H204.695C204.662 232.403 204.645 232.126 204.645 231.882C204.645 231.507 204.635 231.123 204.616 230.729H205.135C205.115 231.072 205.106 231.501 205.106 232.016C205.106 232.537 205.115 233.007 205.135 233.429ZM208.14 231.985C208.14 232.378 208.015 232.721 207.763 233.014C207.511 233.307 207.159 233.454 206.705 233.454C206.501 233.454 206.219 233.445 205.859 233.429C205.877 233.011 205.886 232.541 205.886 232.016C205.886 231.513 205.877 231.084 205.859 230.729H206.222C206.281 230.729 206.37 230.727 206.488 230.723C206.605 230.719 206.682 230.716 206.718 230.716C207.217 230.716 207.579 230.841 207.803 231.09C208.028 231.338 208.14 231.637 208.14 231.985ZM207.574 232.075C207.574 231.809 207.497 231.586 207.342 231.404C207.187 231.222 206.951 231.131 206.633 231.131C206.573 231.131 206.492 231.137 206.388 231.15C206.402 231.426 206.409 231.715 206.409 232.016C206.409 232.347 206.416 232.675 206.429 233C206.519 233.018 206.609 233.027 206.699 233.027C206.996 233.027 207.217 232.934 207.359 232.749C207.503 232.565 207.574 232.34 207.574 232.075ZM210.912 233.429H210.298C210.137 232.939 210.014 232.637 209.929 232.523C209.843 232.408 209.705 232.35 209.514 232.35C209.434 232.35 209.357 232.351 209.284 232.353C209.284 232.708 209.29 233.067 209.302 233.429H208.726C208.744 233.011 208.753 232.541 208.753 232.016C208.753 231.513 208.744 231.084 208.726 230.729H209.085C209.126 230.729 209.213 230.727 209.345 230.723C209.477 230.719 209.599 230.716 209.711 230.716C210.345 230.716 210.663 230.933 210.663 231.368C210.663 231.712 210.482 231.952 210.12 232.087V232.118C210.259 232.157 210.382 232.266 210.487 232.445C210.591 232.624 210.733 232.952 210.912 233.429ZM210.134 231.521C210.134 231.246 209.957 231.108 209.603 231.108C209.473 231.108 209.359 231.118 209.259 231.137C209.274 231.352 209.282 231.631 209.282 231.975C209.358 231.978 209.422 231.979 209.475 231.979C209.914 231.979 210.134 231.826 210.134 231.521ZM213.884 232.029C213.884 232.454 213.754 232.806 213.494 233.084C213.234 233.364 212.913 233.504 212.53 233.504C212.165 233.504 211.859 233.375 211.614 233.119C211.368 232.862 211.244 232.537 211.244 232.141C211.244 231.717 211.374 231.365 211.634 231.085C211.894 230.806 212.215 230.667 212.599 230.667C212.964 230.667 213.269 230.795 213.515 231.05C213.761 231.306 213.884 231.632 213.884 232.029ZM213.312 232.089C213.312 231.8 213.238 231.566 213.09 231.386C212.942 231.206 212.76 231.117 212.543 231.117C212.34 231.117 212.169 231.207 212.028 231.388C211.887 231.569 211.817 231.798 211.817 232.075C211.817 232.362 211.891 232.596 212.04 232.776C212.188 232.957 212.37 233.047 212.586 233.047C212.788 233.047 212.959 232.956 213.1 232.775C213.241 232.593 213.312 232.364 213.312 232.089ZM215.057 233.429H214.47C214.488 233 214.497 232.53 214.497 232.016C214.497 231.512 214.488 231.083 214.47 230.729H215.057C215.039 231.077 215.03 231.507 215.03 232.016C215.03 232.538 215.039 233.008 215.057 233.429ZM218.063 231.985C218.063 232.378 217.936 232.721 217.685 233.014C217.434 233.307 217.081 233.454 216.628 233.454C216.423 233.454 216.141 233.445 215.781 233.429C215.799 233.011 215.809 232.541 215.809 232.016C215.809 231.513 215.799 231.084 215.781 230.729H216.144C216.204 230.729 216.292 230.727 216.41 230.723C216.527 230.719 216.604 230.716 216.64 230.716C217.139 230.716 217.501 230.841 217.725 231.09C217.95 231.338 218.063 231.637 218.063 231.985ZM217.496 232.075C217.496 231.809 217.419 231.586 217.264 231.404C217.109 231.222 216.873 231.131 216.555 231.131C216.495 231.131 216.414 231.137 216.31 231.15C216.324 231.426 216.331 231.715 216.331 232.016C216.331 232.347 216.338 232.675 216.352 233C216.442 233.018 216.531 233.027 216.621 233.027C216.919 233.027 217.139 232.934 217.282 232.749C217.425 232.565 217.496 232.34 217.496 232.075ZM222.05 233.429H221.387C221.387 233.338 221.323 233.079 221.198 232.653H220.24C220.11 233.072 220.044 233.331 220.044 233.429H219.421C219.421 233.375 219.582 232.932 219.905 232.102C220.227 231.271 220.389 230.813 220.389 230.729H221.173C221.173 230.808 221.319 231.259 221.612 232.082C221.904 232.905 222.05 233.354 222.05 233.429ZM221.092 232.257C220.856 231.544 220.737 231.158 220.737 231.1H220.704C220.704 231.154 220.582 231.539 220.337 232.257H221.092ZM224.469 231.436C224.469 231.766 224.346 232.011 224.101 232.168C223.856 232.326 223.555 232.405 223.197 232.405C223.133 232.405 223.086 232.403 223.059 232.4C223.059 232.66 223.067 233.003 223.082 233.429H222.499C222.516 233.029 222.526 232.558 222.526 232.016C222.526 231.519 222.516 231.09 222.499 230.729H222.86C222.91 230.729 223.009 230.727 223.154 230.723C223.299 230.719 223.425 230.716 223.531 230.716C223.794 230.716 224.016 230.776 224.197 230.895C224.378 231.014 224.469 231.194 224.469 231.436ZM223.934 231.55C223.934 231.254 223.738 231.106 223.345 231.106C223.247 231.106 223.143 231.117 223.034 231.137C223.049 231.399 223.057 231.694 223.057 232.025C223.091 232.028 223.131 232.029 223.177 232.029C223.682 232.029 223.934 231.869 223.934 231.55ZM226.956 231.436C226.956 231.766 226.833 232.011 226.588 232.168C226.342 232.326 226.041 232.405 225.685 232.405C225.62 232.405 225.574 232.403 225.546 232.4C225.546 232.66 225.553 233.003 225.568 233.429H224.986C225.004 233.029 225.013 232.558 225.013 232.016C225.013 231.519 225.004 231.09 224.986 230.729H225.347C225.398 230.729 225.496 230.727 225.642 230.723C225.787 230.719 225.912 230.716 226.019 230.716C226.281 230.716 226.503 230.776 226.684 230.895C226.866 231.014 226.956 231.194 226.956 231.436ZM226.421 231.55C226.421 231.254 226.225 231.106 225.832 231.106C225.734 231.106 225.63 231.117 225.521 231.137C225.536 231.399 225.544 231.694 225.544 232.025C225.578 232.028 225.619 232.029 225.664 232.029C226.169 232.029 226.421 231.869 226.421 231.55ZM231.022 232.029C231.022 232.454 230.893 232.806 230.633 233.084C230.372 233.364 230.051 233.504 229.668 233.504C229.303 233.504 228.998 233.375 228.751 233.119C228.506 232.862 228.383 232.537 228.383 232.141C228.383 231.717 228.512 231.365 228.772 231.085C229.033 230.806 229.354 230.667 229.736 230.667C230.102 230.667 230.407 230.795 230.653 231.05C230.899 231.306 231.022 231.632 231.022 232.029ZM230.45 232.089C230.45 231.8 230.376 231.566 230.228 231.386C230.08 231.206 229.898 231.117 229.681 231.117C229.479 231.117 229.307 231.207 229.166 231.388C229.026 231.569 228.955 231.798 228.955 232.075C228.955 232.362 229.029 232.596 229.178 232.776C229.327 232.957 229.508 233.047 229.724 233.047C229.926 233.047 230.098 232.956 230.239 232.775C230.379 232.593 230.45 232.364 230.45 232.089ZM233.833 233.429H233.321C233.321 233.372 233.131 233.073 232.751 232.531C232.352 231.96 232.126 231.569 232.071 231.359H232.037C232.072 231.662 232.089 231.936 232.089 232.18C232.089 232.522 232.099 232.938 232.118 233.429H231.608C231.629 233 231.639 232.53 231.639 232.016C231.639 231.512 231.629 231.083 231.608 230.729H232.224C232.224 230.802 232.395 231.095 232.736 231.606C233.1 232.149 233.309 232.518 233.362 232.711H233.393C233.36 232.403 233.344 232.126 233.344 231.882C233.344 231.507 233.334 231.123 233.315 230.729H233.833C233.814 231.072 233.804 231.501 233.804 232.016C233.804 232.537 233.814 233.007 233.833 233.429ZM209.37 242.079C209.37 243.419 208.972 244.487 208.177 245.282C207.275 246.229 206.1 246.702 204.652 246.702C203.267 246.702 202.091 246.222 201.122 245.262C200.152 244.302 199.668 243.111 199.668 241.69C199.668 240.27 200.152 239.08 201.122 238.119C202.091 237.159 203.267 236.679 204.652 236.679C205.34 236.679 205.997 236.812 206.623 237.08C207.248 237.348 207.748 237.707 208.123 238.153L207.279 238.997C206.645 238.238 205.769 237.858 204.652 237.858C203.643 237.858 202.77 238.213 202.033 238.924C201.296 239.634 200.927 240.556 200.927 241.69C200.927 242.826 201.296 243.747 202.033 244.458C202.77 245.168 203.643 245.523 204.652 245.523C205.724 245.523 206.618 245.166 207.332 244.451C207.797 243.986 208.065 243.339 208.136 242.508H204.652V241.355H209.302C209.347 241.606 209.37 241.847 209.37 242.079ZM210.83 240.706C211.465 240.04 212.273 239.708 213.256 239.708C214.238 239.708 215.047 240.04 215.682 240.706C216.316 241.371 216.633 242.204 216.633 243.205C216.633 244.206 216.316 245.039 215.682 245.704C215.047 246.37 214.238 246.702 213.256 246.702C212.273 246.702 211.465 246.37 210.83 245.704C210.196 245.039 209.879 244.206 209.879 243.205C209.879 242.204 210.196 241.371 210.83 240.706ZM211.748 244.926C212.173 245.36 212.675 245.577 213.256 245.577C213.836 245.577 214.339 245.36 214.763 244.926C215.188 244.493 215.4 243.92 215.4 243.205C215.4 242.49 215.188 241.917 214.763 241.483C214.339 241.05 213.836 240.833 213.256 240.833C212.675 240.833 212.173 241.05 211.748 241.483C211.324 241.917 211.112 242.49 211.112 243.205C211.112 243.92 211.324 244.493 211.748 244.926ZM218 240.706C218.634 240.04 219.442 239.708 220.425 239.708C221.408 239.708 222.216 240.04 222.851 240.706C223.485 241.371 223.802 242.204 223.802 243.205C223.802 244.206 223.485 245.039 222.851 245.704C222.216 246.37 221.408 246.702 220.425 246.702C219.442 246.702 218.634 246.37 218 245.704C217.365 245.039 217.048 244.206 217.048 243.205C217.048 242.204 217.365 241.371 218 240.706ZM218.918 244.926C219.342 245.36 219.844 245.577 220.425 245.577C221.006 245.577 221.508 245.36 221.933 244.926C222.357 244.493 222.57 243.92 222.57 243.205C222.57 242.49 222.357 241.917 221.933 241.483C221.508 241.05 221.006 240.833 220.425 240.833C219.844 240.833 219.342 241.05 218.918 241.483C218.493 241.917 218.281 242.49 218.281 243.205C218.281 243.92 218.493 244.493 218.918 244.926ZM227.448 249.597C226.67 249.597 226.036 249.403 225.545 249.014C225.053 248.625 224.7 248.181 224.486 247.68L225.612 247.212C225.737 247.569 225.967 247.869 226.302 248.109C226.636 248.351 227.018 248.471 227.448 248.471C228.127 248.471 228.66 248.268 229.049 247.862C229.438 247.455 229.632 246.903 229.632 246.207V245.577H229.578C229.363 245.898 229.059 246.166 228.667 246.381C228.274 246.595 227.831 246.702 227.34 246.702C226.491 246.702 225.759 246.367 225.142 245.698C224.526 245.027 224.218 244.196 224.218 243.205C224.218 242.214 224.526 241.382 225.142 240.712C225.759 240.042 226.491 239.708 227.34 239.708C227.831 239.708 228.274 239.814 228.667 240.028C229.059 240.244 229.363 240.511 229.578 240.833H229.632V239.921H230.811V246.153C230.811 247.279 230.485 248.134 229.833 248.72C229.18 249.304 228.385 249.597 227.448 249.597ZM227.541 245.577C228.122 245.577 228.616 245.362 229.022 244.933C229.428 244.505 229.632 243.928 229.632 243.205C229.632 242.481 229.428 241.905 229.022 241.476C228.616 241.047 228.122 240.833 227.541 240.833C226.969 240.833 226.477 241.05 226.067 241.483C225.656 241.917 225.45 242.49 225.45 243.205C225.45 243.92 225.656 244.493 226.067 244.926C226.477 245.36 226.969 245.577 227.541 245.577ZM231.977 246.488V236.893H233.209V246.488H231.977ZM237.283 246.702C236.291 246.702 235.485 246.372 234.864 245.71C234.243 245.05 233.932 244.214 233.932 243.205C233.932 242.249 234.234 241.427 234.837 240.739C235.44 240.051 236.211 239.708 237.149 239.708C238.123 239.708 238.902 240.025 239.487 240.659C240.072 241.293 240.365 242.142 240.365 243.205L240.352 243.433H235.166C235.201 244.094 235.422 244.617 235.829 245C236.236 245.385 236.711 245.577 237.256 245.577C238.141 245.577 238.739 245.201 239.052 244.451L240.15 244.907C239.936 245.416 239.583 245.843 239.092 246.187C238.601 246.53 237.997 246.702 237.283 246.702ZM239.052 242.414C239.025 242.039 238.853 241.682 238.536 241.342C238.218 241.002 237.747 240.833 237.122 240.833C236.666 240.833 236.271 240.976 235.936 241.262C235.601 241.548 235.371 241.932 235.246 242.414H239.052ZM245.216 246.488H243.983V236.893H247.253C248.066 236.893 248.769 237.163 249.364 237.704C249.958 238.245 250.255 238.926 250.255 239.747C250.255 240.569 249.958 241.251 249.364 241.791C248.769 242.332 248.066 242.602 247.253 242.602H245.216V246.488ZM245.216 241.423H247.28C247.798 241.423 248.213 241.248 248.526 240.9C248.839 240.552 248.995 240.168 248.995 239.747C248.995 239.328 248.839 238.943 248.526 238.595C248.213 238.247 247.798 238.072 247.28 238.072H245.216V241.423ZM251.059 246.488V236.893H252.292V246.488H251.059ZM255.467 246.702C254.77 246.702 254.187 246.501 253.719 246.099C253.249 245.698 253.015 245.166 253.015 244.505C253.015 243.79 253.291 243.229 253.846 242.823C254.4 242.416 255.083 242.214 255.896 242.214C256.62 242.214 257.214 242.347 257.678 242.615V242.427C257.678 241.945 257.513 241.559 257.183 241.269C256.852 240.978 256.446 240.833 255.963 240.833C255.606 240.833 255.282 240.918 254.992 241.088C254.701 241.257 254.503 241.489 254.395 241.784L253.269 241.302C253.421 240.909 253.72 240.545 254.167 240.21C254.614 239.875 255.203 239.708 255.936 239.708C256.776 239.708 257.473 239.954 258.027 240.444C258.58 240.936 258.858 241.628 258.858 242.522V246.488H257.678V245.577H257.625C257.134 246.327 256.414 246.702 255.467 246.702ZM255.668 245.577C256.177 245.577 256.64 245.387 257.055 245.007C257.471 244.628 257.678 244.179 257.678 243.66C257.33 243.374 256.807 243.232 256.111 243.232C255.511 243.232 255.061 243.362 254.757 243.62C254.453 243.88 254.301 244.183 254.301 244.532C254.301 244.853 254.439 245.108 254.717 245.295C254.994 245.482 255.311 245.577 255.668 245.577ZM261.538 249.382H260.265L261.793 246.072L259.086 239.921H260.426L262.382 244.639H262.409L264.312 239.921H265.652L261.538 249.382Z" fill="white"/>
<path fill-rule="evenodd" clip-rule="evenodd" d="M176.671 240.17C176.671 237.488 176.673 234.807 176.67 232.125C176.67 231.796 176.734 231.496 176.967 231.247C177.058 231.151 177.123 231.124 177.234 231.238C179.038 233.079 180.847 234.916 182.655 236.753C183.826 237.943 184.997 239.133 186.172 240.319C186.287 240.434 186.297 240.494 186.176 240.614C183.3 243.473 180.426 246.336 177.561 249.205C177.386 249.381 177.263 249.362 177.095 249.233C176.788 248.996 176.67 248.68 176.67 248.303C176.671 246.715 176.668 245.127 176.667 243.539C176.666 242.416 176.667 241.293 176.667 240.17C176.668 240.17 176.67 240.17 176.671 240.17Z" fill="white"/>
<path fill-rule="evenodd" clip-rule="evenodd" d="M177.702 230.941C177.922 230.939 178.076 231.003 178.225 231.086C181.898 233.144 185.57 235.203 189.245 237.257C189.414 237.351 189.41 237.404 189.28 237.532C188.458 238.34 187.644 239.155 186.829 239.97C186.741 240.058 186.688 240.109 186.57 239.989C183.648 237.009 180.722 234.033 177.797 231.057C177.772 231.032 177.752 231.003 177.702 230.941Z" fill="white"/>
<path fill-rule="evenodd" clip-rule="evenodd" d="M178.524 249.137C181.19 246.443 183.857 243.75 186.517 241.049C186.682 240.882 186.759 240.904 186.907 241.058C187.583 241.761 188.268 242.456 188.957 243.146C189.078 243.268 189.088 243.317 188.924 243.407C185.501 245.28 182.082 247.16 178.662 249.036C178.606 249.068 178.553 249.118 178.524 249.137Z" fill="white"/>
<path fill-rule="evenodd" clip-rule="evenodd" d="M193.753 240.245C193.742 240.547 193.599 240.759 193.383 240.918C193.223 241.036 193.047 241.133 192.873 241.229C191.838 241.801 190.801 242.368 189.768 242.943C189.629 243.021 189.546 243.018 189.431 242.898C188.696 242.139 187.954 241.387 187.209 240.638C187.1 240.529 187.097 240.469 187.209 240.359C188.077 239.504 188.941 238.643 189.801 237.779C189.903 237.677 189.975 237.665 190.102 237.737C191.124 238.316 192.151 238.887 193.175 239.462C193.492 239.639 193.739 239.869 193.753 240.245Z" fill="white"/>
<path fill-rule="evenodd" clip-rule="evenodd" d="M155.233 4.22096C154.819 2.42096 153.348 1.09485 151.577 0.897179C147.384 0.428524 143.14 0.426779 138.914 0.428524C134.689 0.426779 130.443 0.428524 126.249 0.897179C124.48 1.09485 123.009 2.42096 122.597 4.22096C122.007 6.78111 122 9.57689 122 12.2138C122 14.8508 122 17.6479 122.59 20.208C123.002 22.0063 124.473 23.3341 126.245 23.5318C130.438 23.9991 134.682 24.0022 138.907 23.9991C143.135 24.0022 147.379 23.9991 151.571 23.5318C153.341 23.3341 154.812 22.0063 155.227 20.208C155.816 17.6479 155.818 14.8508 155.818 12.2138C155.818 9.57689 155.823 6.78111 155.233 4.22096ZM134.545 17.4637V6.28016C138.128 8.14998 141.689 10.0063 145.296 11.8883C141.7 13.7529 138.138 15.6005 134.545 17.4637Z" fill="white"/>
<path fill-rule="evenodd" clip-rule="evenodd" d="M22.6743 0H1.32455C0.595356 0 0 0.590741 0 1.32455V22.6743C0 23.4046 0.595356 24 1.32455 24H12.8175V14.7062H9.68953V11.0822H12.8175V8.40998C12.8175 5.31321 14.7108 3.62406 17.4776 3.62406C18.8033 3.62406 19.9387 3.72328 20.2721 3.76828V7.00351L18.3522 7.00812C16.8477 7.00812 16.5592 7.72001 16.5592 8.77112V11.0822H20.1463L19.6779 14.7016H16.5592V24H22.6743C23.4046 24 24 23.4046 24 22.6743V1.32455C24 0.590741 23.4046 0 22.6743 0Z" fill="white"/>
<path fill-rule="evenodd" clip-rule="evenodd" d="M62.228 0H41.7733C40.7943 0 40 0.769667 40 1.72V22.28C40 23.2293 40.7943 24 41.7733 24H62.228C63.207 24 64 23.2293 64 22.28V1.72C64 0.769667 63.207 0 62.228 0ZM43.6497 20.09H47.276V9.254H43.6497V20.09ZM45.4637 7.77333H45.4387C44.2227 7.77333 43.435 6.94133 43.435 5.901C43.435 4.83867 44.246 4.03 45.4857 4.03C46.7267 4.03 47.4897 4.83867 47.513 5.901C47.513 6.94267 46.7267 7.77333 45.4637 7.77333ZM60.3477 20.09H56.7227V14.2917C56.7227 12.8347 56.1967 11.841 54.8867 11.841C53.8827 11.841 53.2877 12.5117 53.026 13.159C52.9297 13.3907 52.9063 13.7137 52.9063 14.0363V20.09H49.2813C49.2813 20.09 49.3293 10.2697 49.2813 9.254H52.9063V10.7903C53.388 10.052 54.2473 8.99867 56.1733 8.99867C58.5587 8.99867 60.3477 10.547 60.3477 13.8763V20.09ZM52.8827 10.8243C52.8893 10.8137 52.897 10.802 52.9063 10.7903V10.8243H52.8827Z" fill="white"/>
<path fill-rule="evenodd" clip-rule="evenodd" d="M103.597 0H84.403C83.0785 0 82 1.0785 82 2.403V21.597C82 22.9215 83.0785 24 84.403 24H103.597C104.922 24 106 22.9215 106 21.597V2.403C106 1.0785 104.922 0 103.597 0ZM100.839 8.76C100.72 14.28 97.24 18.117 91.9615 18.357C89.7985 18.48 88.24 17.76 86.7985 16.9215C88.357 17.1615 90.403 16.5585 91.48 15.597C89.9215 15.48 88.9615 14.643 88.48 13.3185C88.9615 13.4415 89.4415 13.3185 89.7985 13.3185C88.357 12.8385 87.403 12 87.28 10.0785C87.643 10.3185 88.117 10.4415 88.597 10.4415C87.52 9.8385 86.7985 7.5585 87.643 6.117C89.2015 7.7985 91.117 9.24 94.24 9.48C93.403 6.117 97.9615 4.3185 99.76 6.597C100.597 6.48 101.202 6.117 101.799 5.883C101.559 6.72 101.079 7.2015 100.48 7.6815C101.079 7.5585 101.681 7.4415 102.161 7.2015C102.038 7.7985 101.442 8.28 100.839 8.76Z" fill="white"/>
<path fill-rule="evenodd" clip-rule="evenodd" d="M184 24C190.627 24 196 18.6274 196 12C196 5.37258 190.627 0 184 0C177.373 0 172 5.37258 172 12C172 18.6274 177.373 24 184 24ZM187.233 5.4881C186.389 5.44961 186.136 5.44145 184 5.44145C181.864 5.44145 181.611 5.44961 180.767 5.4881C179.987 5.52366 179.564 5.65399 179.282 5.76355C178.908 5.90867 178.642 6.08203 178.362 6.36199C178.082 6.64192 177.909 6.90842 177.764 7.28183C177.654 7.56373 177.524 7.98733 177.488 8.76732C177.45 9.61088 177.441 9.86391 177.441 12C177.441 14.1361 177.45 14.3891 177.488 15.2327C177.524 16.0127 177.654 16.4363 177.764 16.7182C177.909 17.0916 178.082 17.3581 178.362 17.638C178.642 17.918 178.908 18.0913 179.282 18.2364C179.564 18.346 179.987 18.4763 180.767 18.5119C181.611 18.5504 181.864 18.5585 184 18.5585C186.136 18.5585 186.389 18.5504 187.233 18.5119C188.013 18.4763 188.436 18.346 188.718 18.2364C189.092 18.0913 189.358 17.918 189.638 17.638C189.918 17.3581 190.091 17.0916 190.236 16.7182C190.346 16.4363 190.476 16.0127 190.512 15.2327C190.55 14.3891 190.559 14.1361 190.559 12C190.559 9.86391 190.55 9.61088 190.512 8.76732C190.476 7.98733 190.346 7.56373 190.236 7.28183C190.091 6.90842 189.918 6.64192 189.638 6.36196C189.358 6.08203 189.092 5.90867 188.718 5.76355C188.436 5.65399 188.013 5.52366 187.233 5.4881ZM180.702 4.04816C181.555 4.00922 181.827 4.00001 184 4.00001C186.173 4.00001 186.445 4.00922 187.298 4.04816C188.15 4.08699 188.731 4.22224 189.24 4.41999C189.766 4.62443 190.213 4.89798 190.657 5.34272C191.102 5.78749 191.376 6.23363 191.58 6.7597C191.778 7.26856 191.913 7.85011 191.952 8.70161C191.991 9.5549 192 9.82733 192 12C192 14.1727 191.991 14.4451 191.952 15.2984C191.913 16.1499 191.778 16.7314 191.58 17.2403C191.376 17.7664 191.102 18.2125 190.657 18.6573C190.213 19.102 189.766 19.3756 189.24 19.58C188.731 19.7777 188.15 19.913 187.298 19.9518C186.445 19.9908 186.173 20 184 20C181.827 20 181.555 19.9908 180.702 19.9518C179.85 19.913 179.269 19.7777 178.76 19.58C178.234 19.3756 177.787 19.102 177.343 18.6573C176.898 18.2125 176.624 17.7664 176.42 17.2403C176.222 16.7314 176.087 16.1499 176.048 15.2984C176.009 14.4451 176 14.1727 176 12C176 9.82733 176.009 9.5549 176.048 8.70161C176.087 7.85011 176.222 7.26856 176.42 6.7597C176.624 6.23363 176.898 5.78749 177.343 5.34272C177.787 4.89798 178.234 4.62443 178.76 4.41999C179.269 4.22224 179.85 4.08699 180.702 4.04816ZM184.004 7.89568C181.735 7.89568 179.896 9.73493 179.896 12.0038C179.896 14.2726 181.735 16.1119 184.004 16.1119C186.273 16.1119 188.112 14.2726 188.112 12.0038C188.112 9.73493 186.273 7.89568 184.004 7.89568ZM184.004 14.6704C182.531 14.6704 181.337 13.4765 181.337 12.0038C181.337 10.531 182.531 9.33712 184.004 9.33712C185.476 9.33712 186.67 10.531 186.67 12.0038C186.67 13.4765 185.476 14.6704 184.004 14.6704ZM188.274 8.6907C188.804 8.6907 189.234 8.26089 189.234 7.73072C189.234 7.20052 188.804 6.7707 188.274 6.7707C187.744 6.7707 187.314 7.20052 187.314 7.73072C187.314 8.26089 187.744 8.6907 188.274 8.6907Z" fill="white"/>
</svg>
