<?xml version="1.0" encoding="UTF-8"?>
<svg width="313px" height="48px" viewBox="0 0 313 48" version="1.1" xmlns="http://www.w3.org/2000/svg" xmlns:xlink="http://www.w3.org/1999/xlink">
    <!-- Generator: Sketch 46.2 (44496) - http://www.bohemiancoding.com/sketch -->
    <title>Group 10@1x</title>
    <desc>Created with Sketch.</desc>
    <defs></defs>
    <g id="assets" stroke="none" stroke-width="1" fill="none" fill-rule="evenodd">
        <g id="Artboard-4" transform="translate(-20.000000, -13.000000)">
            <g id="Group-10" transform="translate(20.000000, 13.000000)">
                <g id="cue" transform="translate(44.000000, 18.000000)">
                    <rect id="Rectangle-7" x="0" y="0" width="11.9008264" height="10"></rect>
                    <path d="M3.83747984,1.55418997 C3.48110783,1.19857444 3.48117988,0.621751941 3.83764054,0.266225163 C4.19354042,-0.0887423059 4.77014916,-0.0887423059 5.12605256,0.266228673 L10.2259351,5.18053508 C10.6796782,5.63310386 10.6796927,6.36727295 10.2259351,6.81982721 L5.12606596,11.7337791 C4.77015689,12.0887443 4.19354392,12.0887397 3.83764054,11.7337688 C3.48123414,11.3782961 3.48123414,10.8015392 3.83766792,10.4460392 L8.46706605,6.00242444 L3.83747984,1.55418997 Z" id="Rectangle-4" fill="#2962FF" fill-rule="nonzero"></path>
                </g>
                <g id="cue" transform="translate(140.000000, 24.000000) translate(-164.000000, -24.000000) translate(142.000000, 2.000000)">
                    <rect id="Rectangle-7" x="0" y="0" width="44" height="44"></rect>
                    <path d="M18.3395361,16.0722533 C17.8867415,15.5980993 17.886833,14.8290026 18.3397403,14.3549669 C18.7919351,13.8816769 19.5245553,13.8816769 19.9767545,14.3549716 L26.4564987,20.9073801 C27.0330097,21.5108052 27.0330282,22.4896973 26.4564987,23.0931029 L19.9767715,29.6450388 C19.5245651,30.1183258 18.7919395,30.1183196 18.3397403,29.645025 C17.886902,29.1710615 17.886902,28.4020522 18.3397751,27.9280522 L24.2217371,22.0032326 L18.3395361,16.0722533 Z" id="Rectangle-4" fill="#2962FF" fill-rule="nonzero"></path>
                </g>
                <g id="cue" transform="translate(164.000000, 24.000000) translate(-164.000000, -24.000000) translate(142.000000, 2.000000)">
                    <rect id="Rectangle-7" x="0" y="0" width="44" height="44"></rect>
                    <path d="M18.3395361,16.0722533 C17.8867415,15.5980993 17.886833,14.8290026 18.3397403,14.3549669 C18.7919351,13.8816769 19.5245553,13.8816769 19.9767545,14.3549716 L26.4564987,20.9073801 C27.0330097,21.5108052 27.0330282,22.4896973 26.4564987,23.0931029 L19.9767715,29.6450388 C19.5245651,30.1183258 18.7919395,30.1183196 18.3397403,29.645025 C17.886902,29.1710615 17.886902,28.4020522 18.3397751,27.9280522 L24.2217371,22.0032326 L18.3395361,16.0722533 Z" id="Rectangle-4" fill="#212121" fill-rule="nonzero"></path>
                </g>
                <g id="cue-copy-2" transform="translate(81.000000, 24.000000) rotate(-270.000000) translate(-81.000000, -24.000000) translate(76.000000, 19.000000)">
                    <rect id="Rectangle-7" x="0" y="0" width="10" height="10"></rect>
                    <path d="M2.72283768,1.29515831 C2.42566841,0.998812032 2.42572849,0.518126617 2.72297168,0.221854302 C3.01974726,-0.0739519216 3.50056617,-0.0739519216 3.79734469,0.221857227 L8.05000305,4.31711257 C8.42836747,4.69425322 8.42837957,5.30606079 8.05000305,5.68318934 L3.79735586,9.77814923 C3.50057262,10.0739536 3.01975018,10.0739498 2.72297168,9.77814064 C2.42577373,9.48191342 2.42577373,9.00128263 2.72299452,8.70503265 L6.58332825,5.00202037 L2.72283768,1.29515831 Z" id="Rectangle-4" fill="#212121" fill-rule="nonzero"></path>
                </g>
                <path d="M115.288845,24 L121.733071,17.5557738 C122.088976,17.199869 122.088976,16.6228334 121.733071,16.2669286 C121.377167,15.9110238 120.800131,15.9110238 120.444226,16.2669286 L114,22.7111548 L107.555774,16.2669286 C107.199869,15.9110238 106.622833,15.9110238 106.266929,16.2669286 C105.911024,16.6228334 105.911024,17.199869 106.266929,17.5557738 L112.711155,24 L106.266929,30.4442262 C105.911024,30.800131 105.911024,31.3771666 106.266929,31.7330714 C106.622833,32.0889762 107.199869,32.0889762 107.555774,31.7330714 L114,25.2888452 L120.444226,31.7330714 C120.800131,32.0889762 121.377167,32.0889762 121.733071,31.7330714 C122.088976,31.3771666 122.088976,30.800131 121.733071,30.4442262 L115.288845,24 Z" id="Combined-Shape" fill="#212121"></path>
                <g id="Group-15" transform="translate(206.000000, 0.000000)">
                    <circle id="Oval-6" fill="#212121" opacity="0.702717391" cx="24" cy="24" r="24"></circle>
                    <g id="cue" transform="translate(24.000000, 24.000000) rotate(-360.000000) translate(-24.000000, -24.000000) translate(16.000000, 16.000000)">
                        <rect id="Rectangle-7" x="0" y="0" width="16" height="13.3333333"></rect>
                        <path d="M4.78398057,2.07225329 C4.33118594,1.59809925 4.33127749,0.829002587 4.78418475,0.354966883 C5.23637951,-0.118323074 5.96899973,-0.118323074 6.42119896,0.354971564 L12.9009431,6.90738011 C13.4774542,7.51080515 13.4774726,8.48969726 12.9009431,9.09310294 L6.42121599,15.6450388 C5.96900956,16.1183258 5.23638395,16.1183196 4.78418475,15.645025 C4.33134642,15.1710615 4.33134642,14.4020522 4.78421954,13.9280522 L10.6661815,8.00323259 L4.78398057,2.07225329 Z" id="Rectangle-4" fill="#FFFFFF" fill-rule="nonzero"></path>
                    </g>
                </g>
                <g id="Group-75" transform="translate(300.000000, 16.000000)" fill-rule="nonzero" fill="#212121">
                    <path d="M6.5,3.17948718 C4.92741935,3.17948718 3.62741935,4.47179487 3.62741935,6.05128205 C3.62741935,7.63076923 4.90645161,8.92307692 6.5,8.92307692 C8.09354839,8.92307692 9.37258065,7.63076923 9.37258065,6.05128205 C9.37258065,4.47179487 8.07258065,3.17948718 6.5,3.17948718 Z M6.5,8.30769231 C5.26290323,8.30769231 4.25645161,7.3025641 4.25645161,6.05128205 C4.25645161,4.8 5.26290323,3.79487179 6.5,3.79487179 C7.73709677,3.79487179 8.74354839,4.8 8.74354839,6.05128205 C8.74354839,7.3025641 7.73709677,8.30769231 6.5,8.30769231 Z" id="Shape"></path>
                    <path d="M6.5,0.102564103 C3.14516129,0.102564103 0.356451613,2.72820513 0.125806452,6.09230769 C0.0629032258,6.95384615 0.188709677,7.79487179 0.503225806,8.63589744 C0.796774194,9.43589744 1.3,10.1948718 1.95,10.8923077 L6.26935484,15.7948718 C6.33225806,15.8564103 6.41612903,15.8974359 6.5,15.8974359 C6.58387097,15.8974359 6.68870968,15.8564103 6.73064516,15.7948718 L11.0290323,10.8923077 C11.7,10.1948718 12.1822581,9.43589744 12.4758065,8.63589744 C12.7903226,7.79487179 12.916129,6.95384615 12.8532258,6.09230769 C12.6435484,2.72820513 9.85483871,0.102564103 6.5,0.102564103 Z M11.9096774,8.41025641 C11.6370968,9.14871795 11.1967742,9.82564103 10.5677419,10.4615385 L6.5,15.1179487 L2.41129032,10.4615385 C1.80322581,9.82564103 1.36290323,9.14871795 1.09032258,8.41025641 C0.817741935,7.65128205 0.691935484,6.89230769 0.75483871,6.13333333 C0.943548387,3.46666667 3.14516129,0.717948718 6.5,0.717948718 C9.85483871,0.717948718 12.0774194,3.46666667 12.2451613,6.13333333 C12.3080645,6.89230769 12.1822581,7.67179487 11.9096774,8.41025641 Z" id="Shape"></path>
                </g>
                <path d="M16.8536255,28.5672237 C16.5248078,28.2395467 16.083057,28.09011 15.6433025,28.11321 L15.6450136,28.111784 C13.6766701,28.1956283 13.0529716,29.7456061 12.9126608,30.1959124 C6.4361206,28.0749952 5.84179609,23.1119292 5.84179609,23.1119292 L7.09632274,21.3523408 L5.84179609,23.1119292 C7.12370046,22.5846231 7.61935113,21.632392 7.81156549,20.9559343 C7.91394673,20.7066831 7.95472812,20.4397504 7.93276891,20.1790917 C7.93276891,20.1790917 7.93276891,20.1808028 7.93276891,20.1839399 C7.93276891,20.1813732 7.93276891,20.1790917 7.93276891,20.1790917 L7.93276891,20.1790917 C7.90225417,19.816337 7.75139156,19.4661305 7.47904036,19.1932089 L4.3171997,16.0305127 C3.68893823,15.4022512 2.64544811,15.4213586 1.99266076,16.0741459 L1.10145917,16.9704808 L1.12569986,16.9947215 C0.826826489,17.3760132 0.577290044,17.8157677 0.391349743,18.2900295 C0.219953853,18.7414766 0.113294847,19.1721052 0.0645282957,19.6038746 C-0.352696642,23.0654441 1.22893665,26.2287107 5.52153388,30.521308 C11.4550828,36.4545717 16.2367715,36.0062616 16.443245,35.9843024 C16.8924106,35.9306877 17.3230393,35.8231732 17.7607975,35.6532032 C18.2307815,35.4695444 18.6702509,35.2202931 19.0512574,34.9219901 L19.0706499,34.9393864 L19.9735441,34.0553144 C20.6249055,33.4025271 20.6437277,32.3596073 20.0157514,31.7293495 L16.8536255,28.5672237 Z M7.93276891,20.1967732 C7.93276891,20.1936361 7.93276891,20.1904991 7.93276891,20.1882176 C7.93276891,20.1907843 7.93276891,20.193351 7.93276891,20.1967732 Z M7.86974313,20.7186608 C7.86974313,20.7180905 7.87002832,20.7172349 7.87002832,20.7166645 C7.87002832,20.7175201 7.87002832,20.7180905 7.86974313,20.7186608 Z M7.93248373,20.2170213 C7.93248373,20.2141694 7.93248373,20.2113176 7.93276891,20.2087509 C7.93248373,20.2116028 7.93248373,20.2141694 7.93248373,20.2170213 Z M22.6431563,26.8723722 C21.9900837,26.8723722 21.4604961,26.3427845 21.4604961,25.689712 C21.4604961,19.4455972 16.3805044,14.3653203 10.1361044,14.3653203 C9.4830319,14.3653203 8.95344427,13.8357327 8.95344427,13.1826602 C8.95344427,12.5295876 9.4830319,12 10.1361044,12 C13.7927402,12 17.2306395,13.4239263 19.8161222,16.0096942 C22.401605,18.5954621 23.8258164,22.0330762 23.8258164,25.689712 C23.8258164,26.3427845 23.296514,26.8723722 22.6431563,26.8723722 Z M18.0026339,26.3236772 C17.3495614,26.3236772 16.8199738,25.7940895 16.8199738,25.141017 C16.8199738,21.7581584 14.0679433,19.0061278 10.6850846,19.0061278 C10.0320121,19.0061278 9.50242445,18.4765402 9.50242445,17.8234677 C9.50242445,17.1703952 10.0320121,16.6408075 10.6850846,16.6408075 C15.372092,16.6408075 19.1852941,20.4540096 19.1852941,25.141017 C19.1852941,25.7940895 18.6559916,26.3236772 18.0026339,26.3236772 Z" id="Shape" fill="#3A3A3A" fill-rule="nonzero"></path>
                <path d="M279.784441,24.4950396 L275.258411,28.7949265 C274.969883,29.0683578 274.502985,29.0683578 274.215339,28.7949265 C273.92822,28.5214952 273.92822,28.0779438 274.215339,27.80468 L278.220186,23.9999163 L274.216044,20.1958223 C273.92822,19.9223911 273.92822,19.4790071 274.216044,19.2055758 C274.50369,18.9314747 274.970588,18.9314747 275.258411,19.2055758 L279.784441,23.5054628 C279.928441,23.6420947 280,23.8207543 280,23.9999163 C280,24.1790782 279.928441,24.3590774 279.784441,24.4950396 Z" id="Fill-1" fill="#FFFFFF"></path>
            </g>
        </g>
    </g>
</svg>
