<svg xmlns="http://www.w3.org/2000/svg" xmlns:xlink="http://www.w3.org/1999/xlink" width="30" height="46" xmlns:v="https://vecta.io/nano"><style><![CDATA[.B{fill:#00103d}.C{fill:#f0f0f0}.D{fill:#fa3e3e}]]></style><defs><path id="A" d="M.527.357h1.198v1.198H.527V.357z"/><path id="B" d="M18.596 9.354c-.62 0-1.106-.655-1.106-1.492s.486-1.492 1.106-1.492 1.107.655 1.107 1.492-.486 1.492-1.107 1.492"/><path id="C" d="M14.914 44.906c-7.072 0-12.826-5.754-12.826-12.826s5.754-12.826 12.826-12.826S27.74 25.008 27.74 32.081s-5.754 12.826-12.826 12.826"/></defs><g fill="none" fill-rule="evenodd"><path d="M17.468 14.313l-5.307-.005-.401.732 1.398 3.011h3.36l1.313-2.831z" class="B"/><path d="M12.905 18.484c-.159 0-.287-.129-.287-.287V12.56c0-.159.129-.287.287-.287h3.807c.159 0 .287.128.287.287v5.637c0 .159-.129.287-.287.287h-3.807z" fill="#fff"/><path d="M16.712 11.985h-3.807c-.318 0-.574.257-.574.574v5.637c0 .318.257.574.574.574h3.807c.318 0 .574-.257.574-.574V12.56c0-.317-.257-.574-.574-.574h0zm-3.807 6.211h3.807V12.56h-3.807v5.637z" class="B"/><use xlink:href="#B" class="C"/><path d="M18.596 6.083c-.781 0-1.393.781-1.393 1.779s.612 1.778 1.393 1.778 1.394-.781 1.394-1.778-.613-1.779-1.394-1.779m0 .574c.453 0 .82.539.82 1.205s-.367 1.204-.82 1.204-.819-.539-.819-1.204.367-1.205.819-1.205" class="B"/><use xlink:href="#B" x="-7.599" class="C"/><path d="M10.997 6.083c-.781 0-1.393.781-1.393 1.779s.612 1.778 1.393 1.778 1.394-.781 1.394-1.778-.612-1.779-1.394-1.779m0 .574c.453 0 .82.539.82 1.205s-.367 1.204-.82 1.204-.819-.539-.819-1.204.367-1.205.819-1.205" class="B"/><path d="M17.868 11.804c0 1.264-1.034 2.297-2.297 2.297h-1.524c-1.264 0-2.297-1.034-2.297-2.297V7.63c0-1.264 1.034-2.297 2.297-2.297h1.524c1.264 0 2.297 1.034 2.297 2.297v4.174z" class="C"/><path d="M18.803 5.353l-.634 3.268V5.333zm-7.99 0l.634 3.268V5.333z" fill="#292400"/><g transform="translate(13.682 .218)"><mask id="D" fill="#fff"><use xlink:href="#A"/></mask><path d="M1.725.955a.6.6 0 0 1-.599.599.6.6 0 0 1-.599-.599.6.6 0 0 1 .599-.599.6.6 0 0 1 .599.599" mask="url(#D)" class="B"/></g><path d="M17.868 3.554h-6.119c-.317 0-.574.257-.574.574v6.504c0 2.23 1.631 4.043 3.634 4.043s3.634-1.814 3.634-4.043V4.128c0-.317-.257-.574-.574-.574m0 .574v6.504c0 1.908-1.377 3.469-3.059 3.469s-3.059-1.561-3.059-3.469V4.128h6.119" class="B"/><path d="M25.146 26.116l-5.57-5.57c-.054-.054-.084-.128-.084-.206s.032-.151.088-.204l2.97-2.858c.056-.053.128-.08.199-.08s.144.027.199.08l5.616 5.413c.055.053.087.127.088.204a.29.29 0 0 1-.084.206l-3.015 3.015c-.056.056-.13.084-.203.084s-.147-.028-.203-.084z" class="D"/><path d="M22.75 16.91a.57.57 0 0 0-.398.16l-2.97 2.858c-.111.107-.175.254-.176.408a.58.58 0 0 0 .168.412l5.57 5.57c.113.112.259.168.406.168s.294-.056.406-.168l3.015-3.015c.109-.11.169-.257.168-.412s-.065-.301-.176-.408l-5.615-5.413c-.111-.107-.255-.161-.399-.161m0 .574l5.615 5.413-3.015 3.015-5.57-5.57 2.97-2.858" class="B"/><path d="M4.241 26.226a.29.29 0 0 1-.203-.084l-3.015-3.015a.29.29 0 0 1-.084-.206c.001-.077.033-.15.088-.204l5.616-5.413c.055-.053.127-.08.199-.08s.144.027.199.08l2.97 2.857c.056.053.087.127.088.204s-.03.152-.084.206l-5.57 5.571a.29.29 0 0 1-.203.084" class="D"/><path d="M6.841 16.936c-.144 0-.288.054-.399.161L.826 22.511a.57.57 0 0 0-.175.408.57.57 0 0 0 .168.412l3.015 3.015c.112.112.259.168.407.168s.293-.056.406-.168l5.57-5.57c.109-.109.17-.258.168-.412s-.065-.302-.176-.408l-2.97-2.858c-.111-.107-.254-.161-.398-.161m0 .574l2.97 2.858-5.57 5.57-3.015-3.015 5.615-5.414" class="B"/><path d="M18.63 5.353h-7.644v-.174c0-1.925 1.56-3.485 3.486-3.485h.673c1.925 0 3.485 1.56 3.485 3.485v.174z" fill="#2962ff"/><path d="M15.145 1.119h-.673c-.642 0-1.255.146-1.825.432-.142.071-.198.244-.127.386.051.1.151.158.256.158.044 0 .087-.01.129-.031a3.46 3.46 0 0 1 .435-.183l.033-.01.015-.005.003-.001.018-.006.002-.001.016-.005.018-.005.015-.005.003-.001.003-.001.013-.003.003-.001.009-.003.003-.001.02-.006h.001l.003-.001.003-.001.006-.001.003-.001.003-.001.003-.001.01-.002.003-.001.003-.001.002-.001.009-.002.006-.002.003-.001.012-.003.006-.002.009-.002.006-.002h.003l.013-.003.003-.001.002-.001.01-.002.003-.001h.003l.003-.001.006-.002h.002l.004-.001h.003l.009-.002.006-.002.003-.001.01-.002.003-.001.005-.001h0l.007-.001.005-.001h.001.003l.003-.001.009-.002.003-.001.006-.001.007-.002.003-.001.002-.001.006-.001h.003l.003-.001.003-.001.009-.002.007-.002h.002.001l.003-.001.006-.001.006-.001.006-.001.007-.001.008-.002.003-.001.003-.001h.003l.01-.002.002-.001.003-.001.01-.002.006-.001.003-.001.002-.001h.004l.003-.001.009-.002.007-.001h.003.002l.003-.001h.003.001l.004-.001.007-.001.002-.001h.003l.003-.001.006-.001h.002l.001-.001h.002.003.001l.01-.002h.003.002l.003-.001.003-.001h.001l.007-.001h.003.002l.003-.001h.004.004l.006-.001h.002.003.001l.003-.001h.004.002l.003-.001h.001l.006-.001h.002l.001-.001h.003.003.001l.003-.001h.002.001.003l.006-.001h.002l.003-.001h.002l.003-.001h.002.003.002l.003-.001h.002.003.002l.003-.001h.002l.009-.001h.002l.003-.001h.001.003.003l.004-.001h.003.004l.003-.001h.003.003l.003-.001h.003l.003-.001h.003.003.002l.001-.001h.003.003.003l.003-.001h.002.003.004l.003-.001h.003l.003-.001h.003.003.004l.003-.001h.003.002.011l.003-.001h.003l.003-.001h.002.007.002l.003-.001h.005.003.006l.001-.001h.006.003.007l.003-.001h.005l.003-.001h.005.004.006l.002-.001h.006.004.009l.003-.001h.007.003.01l.003-.001h.01l.003-.001h.01.003.013l.003-.001h.016.003.023l.003-.001h.038.003.722.002.038l.002.001h.024.003.016l.003.001h.014.003.011l.001.001h.013l.003.001h.009.001.01l.003.001h.008.003.007l.002.001h.007.003.005l.002.001h.006l.002.001h.005.003.006l.002.001h.005.006.003l.003.001h.006.003.003l.002.001h.002l.008.001h.009.005l.005.001h.003.001.006l.003.001h.003l.002.001h.002.003.005l.001.001h.005 0 .005l.002.001h.003.003l.006.001h.002v.001h.005l.008.001h.002.001.003l.009.001h.002l.002.001h.003l.003.001h.003.003.002l.003.001.008.001h.002.003l.009.001h.002l.006.001.007.001h.003.003l.009.001h.003l.013.002h.003l.01.002h.001.003.002l.009.001h.003l.003.001.013.002h.001.003l.013.002.024.004.03.005.032.006.027.005.024.005h.003l.016.003h.003l.007.002h.002v.001h.002 0l.011.002h.003v.001l.04.008a3.48 3.48 0 0 1 1.903 1.16l.017.02h0l.003.003h0l.015.018.002.002.01.012v.001l.014.018.009.01.001.002.002.002.006.009.01.011v.001l.002.002.005.007.002.002.002.002.006.009.002.002.005.006.002.002.003.005.006.009.002.002.005.006.003.005.001.001h0l.003.005.003.004.002.002h0l.002.001.003.005.001.002.003.004.005.007.008.01.004.006.003.004v.001l.002.002h.001l.002.003.005.006.001.002.005.006.001.002.005.007.003.003.009.013.003.005.006.008.002.002.002.005.002.003.002.002.001.002.005.007v.001h.001l.009.014v.001l.001.002.003.004.002.003.001.001.005.008.002.003.006.009.002.003.005.008.001.002.001.002.006.009.001.001.002.003.002.004.009.014.002.003v.001l.001.002.002.004.001.001h0l.002.002.002.004.006.009.001.002.003.005.003.006.003.006.002.002.003.005.003.006.001.002.002.004.003.006.002.003.002.004.003.006.001.002.001.002.006.009.001.002.001.002.006.01.001.002.005.009.002.002.012.021.001.002.012.022v.001l.001.002c.106.193.194.397.262.611l.013.041.004.014.007.025h0l.009.028.004.016.004.013.003.013.005.016v.002l.003.009v.002l.001.001v.003c.035.133.151.219.279.219.024 0 .048-.003.072-.01.154-.04.246-.196.206-.35a4.06 4.06 0 0 0-3.93-3.036m-3.764 1.61c-.09 0-.179.042-.235.122-.48.684-.733 1.489-.733 2.327v.174c0 .318.257.574.574.574h6.982c.159 0 .287-.129.287-.287s-.129-.287-.287-.287h-6.982V5.14v-.005-.03l.001-.003v-.014-.008-.014l.001-.004v-.013l.001-.007v-.005-.004-.009l.001-.005v-.009-.003-.009l.001-.005v-.004-.005-.007l.001-.005v-.013l.001-.005V4.95v-.005-.005l.001-.005v-.003-.005-.005l.001-.004v-.005-.003l.001-.005v-.003l.001-.005v-.003-.005-.001l.001-.003v-.005-.004L11 4.872v-.005l.001-.003V4.86v-.004l.001-.005v-.004-.003l.001-.001v-.004-.004l.001-.005v-.003l.001-.005v-.001l.001-.008V4.81v-.001-.003l.001-.005h0v-.005l.001-.008v-.005-.004l.001-.005v-.004l.001-.005v-.003l.001-.005.001-.004v-.005l.001-.004v-.002-.005l.001-.004v-.005l.001-.004h0l.001-.005v-.004l.001-.007v-.001l.001-.007v-.003l.001-.005.001-.003v-.005l.001-.004.001-.006v-.002l.001-.005.001-.004.001-.009.002-.01.001-.006v-.004l.001-.005v-.003l.001-.007.001-.006v-.005l.001-.006.001-.005V4.59l.001-.007.001-.005.001-.006.001-.006v-.005l.002-.008.001-.004.002-.009.001-.006.001-.006.001-.007.002-.009v-.001l.001-.005.002-.008.002-.009.001-.003.001-.005.001-.003.002-.011.002-.009.002-.009.002-.009.002-.01.005-.021.003-.012.003-.014.002-.01.001-.005.002-.01.005-.021.003-.016.002-.006.002-.008.002-.008.002-.009.001-.004.005-.02.006-.02.002-.008.001-.004.002-.009.001-.003.001-.005.002-.007.002-.005.001-.003.002-.008.006-.02.002-.008.002-.007.002-.005.002-.007.003-.01.004-.013.002-.004.002-.008.001-.003.002-.005.001-.003.002-.005.001-.002.002-.005.002-.007.005-.013.001-.003.002-.005.001-.002.004-.013.003-.008.007-.019h.001v-.003l.002-.005.011-.03.002-.005.001-.003.002-.005.006-.016.005-.015.005-.012.003-.007.006-.015.003-.007.005-.013.003-.007.006-.016.003-.007.008-.02.003-.007.003-.007.003-.007.009-.019.003-.007.014-.034c.091-.202.2-.394.326-.573.091-.13.06-.309-.07-.4-.05-.036-.107-.052-.165-.052" class="B"/><path d="M8.423 39.592c-.15 0-.275-.116-.287-.266L6.564 17.511a.29.29 0 0 1 .149-.273l5.306-2.891c.042-.023.089-.035.137-.035.082 0 .162.034.217.095s.083.142.075.222-.013.165-.013.25c0 1.313 1.068 2.381 2.381 2.381s2.38-1.068 2.38-2.381l-.012-.245c-.011-.106.037-.21.126-.269a.29.29 0 0 1 .159-.048c.047 0 .094.012.137.035l5.298 2.887c.099.054.157.16.149.273L21.5 39.325c-.011.15-.136.267-.287.267H8.423z" class="D"/><path d="M11.867 15.083L7.15 17.654l1.54 21.363h12.256l1.521-21.522-4.704-2.405a2.96 2.96 0 0 1-2.947 2.743 2.96 2.96 0 0 1-2.948-2.75m6.311.865l3.689 1.886-1.456 20.609H9.224L7.749 17.982l3.707-2.02c.461 1.423 1.803 2.447 3.359 2.447s2.906-1.03 3.363-2.46" class="C"/><g class="B"><path d="M12.162 15.173h0zm0-1.149h-.006c-.096 0-.19.024-.275.07l-5.306 2.891c-.198.109-.314.322-.298.546L7.85 39.346c.022.3.272.533.573.533h12.791c.301 0 .551-.233.573-.534L23.34 17.53c.016-.224-.101-.437-.299-.545l-5.298-2.886c-.086-.047-.181-.07-.275-.07a.57.57 0 0 0-.318.096c-.177.118-.275.324-.253.536a2.08 2.08 0 0 1 .011.217c0 1.155-.939 2.094-2.093 2.094s-2.093-.939-2.093-2.094c0-.074.003-.148.011-.219.017-.162-.035-.323-.144-.444s-.264-.19-.427-.19h0zm0 .574a2.64 2.64 0 0 0-.014.279 2.67 2.67 0 0 0 2.668 2.668 2.67 2.67 0 0 0 2.668-2.668c0-.092-.005-.184-.014-.275l5.298 2.887-1.553 21.815H8.423L6.85 17.49l5.305-2.891h.006z"/><path d="M8.477 39.017h12.625l1.193-21.586-4.531-2.352a2.96 2.96 0 0 1-2.948 2.754 2.96 2.96 0 0 1-2.948-2.75l-4.719 2.572 1.328 21.362zm12.897.574H8.207c-.151 0-.277-.118-.287-.269L6.564 17.508c-.007-.112.051-.217.149-.271l5.305-2.891c.113-.061.268-.037.354.06a.29.29 0 0 1 .075.222c-.009.082-.013.165-.013.25 0 1.313 1.068 2.381 2.381 2.381s2.381-1.068 2.381-2.381c0-.083-.004-.164-.013-.245a.29.29 0 0 1 .418-.285l5.122 2.659c.1.052.16.157.154.27L21.66 39.32c-.009.153-.134.272-.287.272h0z"/></g><path d="M18.392 7.981c-.05 0-.1-.013-.145-.039-.015-.009-1.566-.898-3.439-.898a7.67 7.67 0 0 0-3.44.898c-.045.026-.095.039-.144.039-.055 0-.109-.016-.156-.046-.091-.059-.141-.163-.13-.271l.22-2.148c.015-.146.138-.258.285-.258h6.728c.148 0 .271.111.285.258l.22 2.148c.011.107-.039.212-.13.271-.048.03-.101.046-.156.046" fill="#2962ff"/><path d="M18.172 4.971h-6.728c-.295 0-.541.223-.571.516l-.22 2.149c-.022.215.079.424.261.541.094.061.203.091.311.091a.57.57 0 0 0 .289-.078c.014-.008 1.504-.859 3.295-.859 1.803 0 3.28.85 3.294.859a.57.57 0 0 0 .289.078c.108 0 .217-.03.311-.091.181-.117.283-.326.261-.541l-.22-2.149c-.03-.293-.277-.516-.571-.516m0 .574l.22 2.148s-1.605-.937-3.584-.937-3.584.937-3.584.937l.22-2.148h6.728" class="B"/><use xlink:href="#C" class="C"/><use xlink:href="#C" fill="#a46aff" opacity=".7"/><g class="B"><path d="M14.914 18.68a13.42 13.42 0 0 0-13.4 13.4 13.42 13.42 0 0 0 13.4 13.4 13.42 13.42 0 0 0 13.4-13.4 13.42 13.42 0 0 0-13.4-13.4m0 1.149c6.766 0 12.251 5.485 12.251 12.251S21.68 44.332 14.914 44.332 2.662 38.847 2.662 32.081s5.485-12.251 12.251-12.251"/><path d="M14.914 45.033c-.159 0-.287-.129-.287-.287V32.08c0-.159.129-.287.287-.287s.287.129.287.287v12.665c0 .159-.129.287-.287.287"/><path d="M14.914 32.368c-.04 0-.08-.009-.117-.025L3.045 27.095c-.145-.065-.21-.235-.145-.38s.235-.211.38-.145l11.635 5.195 11.634-5.195c.145-.066.315 0 .379.145s0 .315-.145.379l-11.751 5.249c-.037.016-.078.025-.117.025"/></g><path d="M18.698 32.081c0 2.091-1.694 3.785-3.784 3.785s-3.785-1.694-3.785-3.785 1.694-3.784 3.785-3.784 3.784 1.694 3.784 3.784" fill="#fedf00"/><path d="M14.914 29.158c-1.612 0-2.923 1.311-2.923 2.923s1.311 2.923 2.923 2.923 2.923-1.311 2.923-2.923-1.311-2.923-2.923-2.923m0 6.42c-1.929 0-3.498-1.569-3.498-3.498a3.5 3.5 0 0 1 3.498-3.497 3.5 3.5 0 0 1 3.497 3.497c0 1.929-1.569 3.498-3.497 3.498" fill="#fff"/><path d="M14.914 35.578c-.159 0-.287-.129-.287-.287s.129-.287.287-.287c1.612 0 2.923-1.311 2.923-2.923s-1.311-2.923-2.923-2.923c-.159 0-.287-.128-.287-.287s.129-.287.287-.287c1.928 0 3.497 1.569 3.497 3.497a3.5 3.5 0 0 1-3.497 3.498" fill="#b8a200"/><path d="M14.914 27.722c-.895 0-1.755.269-2.487.778-.13.091-.162.27-.072.4.056.08.145.123.236.123.057 0 .114-.017.164-.051.131-.091.268-.175.41-.249h.001l.007-.005.007-.004.008-.003.015-.008.013-.006.036-.018.003-.001.008-.004.016-.007.003-.002.02-.01.005-.002.019-.009.019-.008.007-.004.005-.002.019-.009.02-.008.005-.002h.001l.005-.002.004-.002.02-.009h.001l.02-.008h.001l.005-.002.004-.001.003-.002h.001l.007-.003.005-.002.003-.002.013-.006.008-.002.003-.002h.001l.005-.002.004-.002.003-.002h.001l.003-.002.005-.002.003-.002h.001l.02-.008h.001l.013-.005.003-.002.005-.001.009-.003.016-.006h.001l.008-.003.008-.003.009-.002.009-.003.004-.002.004-.001.021-.007.009-.003.029-.01h.001l.009-.003.008-.003.009-.003.008-.003.021-.007.009-.003.034-.01.021-.007.026-.007.009-.002.021-.006.026-.007.008-.003.048-.012.057-.015.017-.003v-.001l.009-.002.03-.007.018-.004.098-.021.026-.005h.001l.008-.002h.001l.009-.002.022-.003.018-.003.027-.005.014-.002.009-.001.009-.002.009-.001.009-.002h.001l.009-.001.004-.001h.005l.005-.001.005-.001.022-.003.028-.003.009-.001.022-.003h.001l.018-.002.022-.003h.004.001.005l.018-.002.018-.002.005-.001h.004.004v-.001h.005l.013-.001.001-.001h.01l.009-.001.009-.001h.005.005.009l.009-.001h.005.009v-.001h.005.005l.009-.001h.005.004.005l.005-.001h.005l.005-.001h.005.005.005l.004-.001h.005.009l.008-.001h.006.005.009l.005-.001h.008l.005-.001h.01.005.009l.005-.001h.014.005.019l.004-.001h.028.005.094.003.028l.004.001h.022.003.014l.005.001h.013.003.01l.003.001h.012l.003.001h.009.003.008l.003.001h.009.004.007l.003.001h.005.003.006l.003.001h.006l.003.001h.005.003.005l.003.001h.005.005.003l.002.001h.007.003.004l.003.001h.003l.003.001h.005.01.003l.003.001h.003l.009.001h.003.003.003l.014.002h.003l.003.001h.002l.009.001h.003.003.003l.014.002.003.001h.003l.012.001.006.001.018.002h.003l.036.005h.003c.435.055.847.184 1.222.374l.015.007.04.021h.001l.001.001.028.014a3.83 3.83 0 0 1 .427.268h0l.076.056c.009.006.017.012.025.019l.049.038.156.132.047.042.023.021.006.006a3.8 3.8 0 0 1 1.035 1.683l.003.011.009.031.003.011.002.008.006.023.002.008.01.039.005.02h.001l.001.004.005.02.003.012.009.039h0l.002.008.002.011.001.004.002.008.005.024.003.016.003.012.002.012.002.008.005.024.002.008.003.02h.001l.001.003.001.008.002.013.002.007.002.012.002.012.002.013.001.007.002.009v.003l.002.009.002.012.002.009v.003h.001l.001.003v.004l.001.009.001.004v.008l.002.012.001.009.001.003.001.009.001.004v.005l.001.004.001.007.001.004v.008l.001.004v.001.004l.001.004.001.009.001.004v.003l.001.005v.003.005l.001.004v.005l.001.003.001.004v.004.003.001l.001.009v.002l.001.005v.005l.001.004v.003l.001.001v.004.003l.001.005v.003l.001.009v.003.005.008l.001.008v.004.005l.001.007h0v.004.005l.001.004v.007.001l.001.004v.005l.001.005v.003.005.004l.001.007h0v.005.004l.001.004v.004.005.004l.001.008.001.004v.007.005.005l.001.004v.009.003.005l.001.003v.009l.001.004v.011h.001v.013l.001.005v.012.004.013l.001.004v.02V32v.03l.001.001v.099l-.001.006v.028.003.019l-.001.003v.016.003.013l-.001.003v.011.003.01l-.001.003v.01l-.001.003v.007.003.004l-.001.007v.006.003.008l-.001.003v.006l-.001.003v.006.003.005l-.001.009v.003.006l-.001.003v.006.002.005l-.001.001v.006l-.001.003v.005l-.001.011v.003.003.003l-.001.002v.005.003.003l-.001.003v.003l-.001.003v.007l-.001.011v.003.003.002l-.001.003v.003.003.003l-.001.003v.002l-.001.003v.002l-.003.022v.002l-.001.003v.003l-.001.003v.003.005h-.001v.002.003.002l-.003.025v.003.006l-.001.003v.006l-.005.033v.001l-.001.006v.003l-.001.003v.005.001a3.77 3.77 0 0 1-.442 1.312l-.01.017-.013.023h-.001l-.003.005-.001.002-.003.005-.001.002-.002.002-.001.002-.01.018h0l-.002.002-.003.005-.003.005-.006.01-.001.002-.002.002-.006.011-.006.009-.004.006-.007.011-.003.005-.009.015-.006.01-.003.004-.003.005-.001.002-.009.015-.002.002-.001.003-.002.002h0l-.003.005-.002.003-.001.002-.003.005-.002.005-.013.019-.001.001-.001.002-.007.009-.001.002-.022.033v.001c-.102.148-.214.29-.336.422-.107.117-.099.299.018.406.055.051.125.075.194.075.078 0 .155-.032.212-.093.739-.806 1.146-1.852 1.146-2.946 0-1.609-.881-3.081-2.3-3.842l-.032-.017-.032-.017-.033-.016c-.612-.31-1.273-.466-1.962-.466m-3.556 2.088c-.101 0-.199.053-.252.148a4.36 4.36 0 0 0 2.694 6.338l.035.009.036.009.035.009a4.43 4.43 0 0 0 1.009.117 4.34 4.34 0 0 0 1.591-.3c.148-.058.22-.225.163-.372-.044-.113-.153-.183-.268-.183-.034 0-.069.006-.104.02a3.77 3.77 0 0 1-.821.218l-.033.005h-.003 0-.003l-.006.001-.026.003h-.001l-.003.001h-.003l-.006.001h-.003l-.021.003h-.003-.003-.001l-.003.001h-.002-.003-.003l-.006.001h-.003l-.013.002h-.003l-.003.001h-.002-.001-.005l-.001.001h-.003-.003-.003l-.002.001-.006.001h-.011-.005v.001h-.006-.003-.002l-.003.001h-.004-.002-.003l-.013.001h-.001-.003-.003l-.002.001h-.005-.003-.004l-.003.001h-.003-.003-.002l-.011.001h-.006-.003-.006l-.001.001h-.006-.003-.006l-.007.001h-.001-.003-.006l-.003.001h-.007l-.003.001h-.006-.003-.006l-.004.001h-.007-.003-.009l-.003.001h-.007l-.003.001h-.01-.003-.01l-.003.001h-.013-.003-.013l-.003.001h-.016-.003-.022l-.003.001h-.035l-.003.001h-.071l-.003-.001h-.036l-.004-.001h-.021-.003-.017l-.004-.001h-.01-.01-.007l-.014-.001h-.004-.007l-.021-.001a3.76 3.76 0 0 1-.679-.097l-.03-.007-.02-.005-.012-.003-.03-.008h-.001l-.002-.001-.015-.003-.003-.001-.008-.002-.006-.001-.009-.003-.006-.001-.005-.001-.006-.002-.002-.001h-.002-.002l-.004-.001-.003-.001-.004-.001-.005-.001-.004-.001-.003-.001-.004-.001-.007-.002-.005-.001-.004-.001-.006-.002h-.002l-.003-.001-.002-.001-.009-.002-.005-.001-.002-.001-.009-.003-.003-.001h-.002l-.014-.005-.039-.013c-.879-.291-1.605-.879-2.068-1.645l-.014-.025-.008-.012-.021-.037h0l-.007-.012-.001-.002-.009-.014-.013-.025v-.001l-.009-.017-.005-.008-.001-.002-.006-.01v-.002l-.001-.002-.005-.008-.002-.005-.005-.009-.007-.014-.002-.003-.005-.011-.002-.004-.005-.011-.002-.005-.006-.01-.001-.002-.003-.006-.011-.022-.006-.013-.003-.006-.002-.005-.006-.013-.001-.002-.004-.009-.002-.005-.004-.009-.002-.004-.001-.002-.005-.011-.003-.009-.002-.005-.004-.009-.001-.002-.001-.002-.001-.003-.001-.002-.005-.01-.004-.009-.005-.012-.002-.003-.006-.013-.002-.005-.003-.006-.001-.002-.002-.005-.005-.01-.001-.005-.005-.011-.001-.002-.003-.009-.001-.002v-.002l-.004-.009-.002-.005-.005-.011-.001-.002-.001-.002-.003-.009-.002-.005v-.001l-.002-.005-.003-.009-.003-.007-.002-.005-.004-.011-.001-.002-.002-.007v-.001l-.002-.006-.002-.004-.002-.005-.002-.003-.002-.005-.002-.007-.006-.014-.001-.001-.002-.007-.002-.004-.002-.007-.001-.003-.001-.004-.002-.006-.002-.005-.002-.005-.001-.003-.002-.005-.002-.003v-.003l-.001-.002-.001-.003-.004-.011-.003-.008v-.003l-.001-.002-.001-.003-.001-.002-.001-.003-.001-.002-.001-.003-.001-.002-.001-.003-.001-.003-.003-.008v-.002l-.001-.003-.001-.003-.002-.006-.001-.002v-.003l-.001-.002-.001-.003-.001-.003-.002-.006-.001-.003-.001-.006-.002-.005-.002-.006-.001-.002-.001-.004-.003-.01-.001-.004-.002-.007-.002-.005-.002-.006-.001-.002-.001-.003-.001-.003-.001-.003-.001-.002v-.003l-.001-.003v-.003l-.001-.002v-.002l-.002-.006-.001-.003-.001-.003v-.002l-.001-.003-.002-.006-.001-.001v-.001l-.001-.003v-.002l-.001-.003-.001-.005-.004-.012v-.002l-.001-.003-.001-.003-.001-.003-.002-.006-.001-.002-.001-.003-.001-.003v-.003l-.001-.003v-.003l-.001-.004-.003-.01-.001-.002-.002-.006v-.003l-.002-.006v-.002l-.001-.002v-.003l-.001-.003-.001-.003v-.002-.001l-.001-.003-.002-.006v-.002l-.001-.003v-.002l-.001-.003v-.003l-.001-.005-.001-.003v-.002l-.001-.003v-.002l-.001-.004v-.002l-.001-.003-.001-.003-.001-.003v-.002l-.001-.004-.002-.007-.001-.003-.001-.005-.002-.006v-.003l-.001-.005-.001-.004-.001-.003-.001-.002-.001-.005v-.002l-.001-.001v-.003l-.002-.011-.002-.006-.001-.005v-.003l-.001-.009-.001-.003-.001-.003-.003-.017v-.003l-.001-.003v-.002l-.001-.002v-.003l-.001-.001-.001-.006-.001-.002v-.003l-.001-.006-.001-.002-.001-.003-.001-.006v-.002l-.001-.003-.001-.006-.001-.002-.001-.006v-.003l-.001-.002-.001-.006-.001-.003v-.002l-.001-.006v-.003l-.001-.006-.001-.003v-.002h-.001v-.002h-.001v-.003h-.001v-.003-.001-.002l-.001-.003h0l-.001-.006-.001-.006-.001-.002-.001-.006-.001-.006v-.003l-.003-.014v-.002l-.001-.003v-.001l-.001-.006v-.003l-.001-.002v-.003-.003h-.001v-.003l-.001-.004v-.002l-.001-.003v-.005-.001l-.001-.003-.001-.006v-.002l-.001-.001-.001-.009v-.002-.002h-.001v-.003-.003-.005l-.001-.003h0l-.001-.006-.001-.003v-.003l-.001-.006v-.006l-.001-.003v-.002l-.001-.003h0l-.001-.006v-.002-.001-.003l-.001-.003v-.006-.001l-.001-.005-.001-.001v-.003-.003l-.001-.006h0v-.003-.002h-.001v-.002l-.001-.003v-.002-.003-.001l-.001-.003v-.003l-.001-.006v-.002-.003-.003l-.001-.003-.001-.005v-.001-.003-.003l-.001-.002v-.003-.001-.003l-.001-.003v-.003-.003-.003l-.001-.003v-.002l-.001-.003v-.002-.003-.003l-.001-.001v-.005-.003-.001l-.001-.005v-.001-.003-.002l-.001-.003v-.011l-.001-.001v-.005h-.001v-.007l-.001-.003v-.003-.003-.002l-.001-.003v-.003-.003-.006l-.001-.004v-.003l-.001-.002v-.005-.004-.004l-.001-.003v-.006-.003-.003l-.001-.003v-.006-.006-.004l-.001-.002v-.005l-.001-.005v-.006-.003-.006l-.001-.003v-.006-.003-.01l-.001-.002v-.006-.003-.011l-.001-.003v-.009l-.001-.001v-.012-.003-.013l-.001-.003v-.014-.003-.017l-.001-.002v-.022-.003-.037l-.001-.003v-.069l.001-.003v-.032-.004-.019l.001-.008v-.016-.004-.014l.001-.005v-.009-.007-.008l.001-.004v-.008l.001-.007v-.005-.003-.008l.001-.005v-.006-.001-.007l.001-.009v-.004-.003-.004l.001-.005v-.003l.001-.004v-.006-.004-.005l.001-.004v-.004-.004-.003l.001-.004v-.003l.001-.011v-.004l.001-.003v-.001-.004-.004l.001-.008v-.003-.003l.001-.001v-.004-.004-.004l.001-.01v-.001l.001-.004v-.003-.005l.001-.003v-.004-.003l.001-.004v-.003l.001-.008v-.003h.001v-.007l.001-.004v-.003l.002-.012v-.003l.002-.012.001-.007v-.003l.002-.011v-.004l.002-.011v-.004l.001-.008.001-.003.001-.007.002-.016v-.003l.001-.007.002-.016.002-.015.004-.026.004-.026.005-.03h0l.007-.037c.075-.418.219-.812.419-1.17.077-.138.027-.313-.111-.39a.28.28 0 0 0-.14-.037" class="B"/><path d="M29.392 25.695a3.35 3.35 0 0 1-2.003 4.295c-1.74.633-4.033-5.666-2.293-6.299s3.662.264 4.296 2.003" class="C"/><path d="M26.244 23.775c-.353 0-.708.061-1.05.186-.581.211-.574 1.642.013 3.256.285.782.673 1.497 1.064 1.959.221.261.647.679 1.019.544a3.07 3.07 0 0 0 1.832-3.928c-.28-.77-.843-1.384-1.585-1.73-.412-.192-.852-.288-1.293-.288m.89 6.548c-.347 0-.794-.174-1.302-.775-.439-.52-.853-1.278-1.165-2.134s-.482-1.702-.479-2.383c.004-1.088.442-1.476.809-1.609.914-.334 1.902-.289 2.783.121s1.549 1.14 1.881 2.054c.686 1.886-.29 3.978-2.175 4.664-.102.037-.22.063-.353.063" class="B"/><path d="M1.457 25.695a3.35 3.35 0 0 0 2.003 4.295c1.74.633 4.032-5.666 2.293-6.299a3.35 3.35 0 0 0-4.296 2.003" class="C"/><path d="M4.605 23.775c-.442 0-.881.096-1.293.288-.742.346-1.305.96-1.585 1.73s-.244 1.601.102 2.343.96 1.304 1.73 1.585c.579.21 1.495-.888 2.083-2.503s.594-3.046.014-3.257c-.342-.125-.697-.186-1.05-.186m-.89 6.548c-.133 0-.251-.026-.353-.063-.914-.332-1.643-1-2.054-1.881s-.454-1.869-.121-2.783 1-1.643 1.881-2.054a3.62 3.62 0 0 1 2.783-.121c.367.133.805.521.809 1.61.002.681-.168 1.527-.48 2.383s-.725 1.613-1.164 2.133c-.508.601-.954.775-1.301.775" class="B"/></g></svg>