<?xml version="1.0" encoding="UTF-8"?>
<svg width="142px" height="48px" viewBox="0 0 142 48" version="1.1" xmlns="http://www.w3.org/2000/svg" xmlns:xlink="http://www.w3.org/1999/xlink">
    <!-- Generator: Sketch 47 (45396) - http://www.bohemiancoding.com/sketch -->
    <title>App Store@1x</title>
    <desc>Created with Sketch.</desc>
    <defs>
        <linearGradient x1="0%" y1="0%" x2="100%" y2="100%" id="linearGradient-1">
            <stop stop-color="#2962FF" offset="0%"></stop>
            <stop stop-color="#5E0BE0" offset="100%"></stop>
        </linearGradient>
        <rect id="path-2" x="0" y="0" width="138" height="44" rx="2"></rect>
        <filter x="-2.5%" y="-5.7%" width="105.1%" height="115.9%" filterUnits="objectBoundingBox" id="filter-3">
            <feOffset dx="0" dy="1" in="SourceAlpha" result="shadowOffsetOuter1"></feOffset>
            <feGaussianBlur stdDeviation="1" in="shadowOffsetOuter1" result="shadowBlurOuter1"></feGaussianBlur>
            <feColorMatrix values="0 0 0 0 0   0 0 0 0 0   0 0 0 0 0  0 0 0 0.5 0" type="matrix" in="shadowBlurOuter1"></feColorMatrix>
        </filter>
    </defs>
    <g id="Home" stroke="none" stroke-width="1" fill="none" fill-rule="evenodd">
        <g id="home_landing-copy-2" transform="translate(-324.000000, -657.000000)">
            <g id="App-Store" transform="translate(326.000000, 658.000000)">
                <g id="Rectangle-10">
                    <use fill="black" fill-opacity="1" filter="url(#filter-3)" xlink:href="#path-2"></use>
                    <use fill="url(#linearGradient-1)" fill-rule="evenodd" xlink:href="#path-2"></use>
                </g>
                <g id="Group-2" transform="translate(21.000000, 8.000000)" fill="#FFFFFF">
                    <path d="M28.5394176,8.11363636 L27.826305,8.11363636 L30.1101296,1.75621449 L30.7906161,1.75621449 L33.0744407,8.11363636 L32.3287021,8.11363636 L31.6528764,6.13276811 L29.2152433,6.13276811 L28.5394176,8.11363636 Z M30.445712,2.61381392 L30.4270685,2.61381392 L29.4156605,5.55948153 L31.45712,5.55948153 L30.445712,2.61381392 Z M34.8873313,8.11363636 L35.6190874,8.11363636 L37.3808949,3.23370916 L36.6910867,3.23370916 L35.2555398,7.2467152 L35.2322354,7.2467152 L33.8805842,3.23370916 L33.1581499,3.23370916 L34.8873313,8.11363636 Z M41.095419,7.47975852 C40.8623757,7.87127131 40.4056108,8.19287109 39.6598722,8.19287109 C38.7137163,8.19287109 38.0658558,7.61026278 38.0658558,6.71537642 C38.0658558,5.87175959 38.653125,5.33109908 39.7670721,5.32643821 L41.095419,5.32643821 L41.095419,4.7997603 C41.095419,4.11461293 40.6945845,3.74640447 40.0001154,3.74640447 C39.3289506,3.74640447 38.9607422,4.07732599 38.9048118,4.59468217 L38.2569514,4.59468217 C38.3128818,3.74640447 38.8954901,3.15447443 40.0280806,3.15447443 C41.0441495,3.15447443 41.7805664,3.71843928 41.7805664,4.72052557 L41.7805664,8.11363636 L41.1140625,8.11363636 L41.1140625,7.47975852 L41.095419,7.47975852 Z M39.8230025,7.60094105 C40.5500977,7.60094105 41.095419,7.14417614 41.095419,6.48699396 L41.095419,5.88574219 L39.7903764,5.88574219 C39.0772639,5.88574219 38.7743075,6.22598544 38.7743075,6.70139382 C38.7743075,7.30730646 39.2730202,7.60094105 39.8230025,7.60094105 Z M43.453631,8.11363636 L44.1387784,8.11363636 L44.1387784,3.23370916 L43.453631,3.23370916 L43.453631,8.11363636 Z M43.3324485,2.04518821 C43.3324485,2.30619673 43.5421875,2.51593572 43.7938743,2.51593572 C44.0548828,2.51593572 44.2646218,2.30619673 44.2646218,2.04518821 C44.2646218,1.78884055 44.0548828,1.57910156 43.7938743,1.57910156 C43.5421875,1.57910156 43.3324485,1.78884055 43.3324485,2.04518821 Z M45.8910778,8.11363636 L46.5762252,8.11363636 L46.5762252,1.41597124 L45.8910778,1.41597124 L45.8910778,8.11363636 Z M51.0178445,7.47975852 C50.7848012,7.87127131 50.3280362,8.19287109 49.5822976,8.19287109 C48.6361417,8.19287109 47.9882813,7.61026278 47.9882813,6.71537642 C47.9882813,5.87175959 48.5755504,5.33109908 49.6894975,5.32643821 L51.0178445,5.32643821 L51.0178445,4.7997603 C51.0178445,4.11461293 50.61701,3.74640447 49.9225409,3.74640447 C49.2513761,3.74640447 48.8831676,4.07732599 48.8272372,4.59468217 L48.1793768,4.59468217 C48.2353072,3.74640447 48.8179155,3.15447443 49.9505061,3.15447443 C50.9665749,3.15447443 51.7029918,3.71843928 51.7029918,4.72052557 L51.7029918,8.11363636 L51.0364879,8.11363636 L51.0364879,7.47975852 L51.0178445,7.47975852 Z M49.7454279,7.60094105 C50.4725231,7.60094105 51.0178445,7.14417614 51.0178445,6.48699396 L51.0178445,5.88574219 L49.7128019,5.88574219 C48.9996893,5.88574219 48.696733,6.22598544 48.696733,6.70139382 C48.696733,7.30730646 49.1954457,7.60094105 49.7454279,7.60094105 Z M55.4967507,8.19287109 C54.7649947,8.19287109 54.2942472,7.84796697 54.0145952,7.35391513 L53.9959517,7.35391513 L53.9959517,8.11363636 L53.3480913,8.11363636 L53.3480913,1.41597124 L54.0285778,1.41597124 L54.0285778,3.92817827 L54.0472213,3.92817827 C54.2849254,3.52734375 54.8395686,3.15447443 55.5060725,3.15447443 C56.6433239,3.15447443 57.4449929,3.9654652 57.4449929,5.40567294 L57.4449929,5.93701172 C57.4449929,7.33993253 56.6573065,8.19287109 55.4967507,8.19287109 Z M55.4501421,7.58229759 C56.2145242,7.58229759 56.7598455,6.98570668 56.7598455,5.89040305 L56.7598455,5.45228161 C56.7598455,4.36163885 56.219185,3.76504794 55.4501421,3.76504794 C54.5552557,3.76504794 54.0192561,4.38028232 54.0192561,5.45228161 L54.0192561,5.88108132 C54.0192561,6.96240234 54.5552557,7.58229759 55.4501421,7.58229759 Z M58.9502664,8.11363636 L59.6354137,8.11363636 L59.6354137,1.41597124 L58.9502664,1.41597124 L58.9502664,8.11363636 Z M63.1448598,8.19287109 C61.8910867,8.19287109 61.1360263,7.29798473 61.1360263,5.91836825 L61.1360263,5.35906428 C61.1360263,4.06800426 61.844478,3.15447443 63.1122337,3.15447443 C64.3613459,3.15447443 65.0884411,4.05868253 65.0884411,5.41499467 L65.0884411,5.84379439 L61.8258345,5.84379439 L61.8258345,5.94167259 C61.8258345,6.93443714 62.3198864,7.60094105 63.1681641,7.60094105 C63.7833985,7.60094105 64.1702504,7.28400213 64.324059,6.81791548 L65.0185281,6.81791548 C64.8367543,7.60094105 64.2028764,8.19287109 63.1448598,8.19287109 Z M61.8258345,5.25186435 L64.3986328,5.25186435 L64.3986328,5.23788175 C64.3986328,4.38960405 63.8859375,3.74640447 63.1122337,3.74640447 C62.3292081,3.74640447 61.8258345,4.39426491 61.8258345,5.23788175 L61.8258345,5.25186435 Z M70.5133168,3.15447443 C71.8370029,3.15447443 72.5734198,4.11927379 72.5734198,5.42897727 L72.5734198,5.90904652 C72.5734198,7.22341087 71.8463246,8.19287109 70.5133168,8.19287109 C69.180309,8.19287109 68.4485529,7.22341087 68.4485529,5.90904652 L68.4485529,5.42897727 C68.4485529,4.11927379 69.1849698,3.15447443 70.5133168,3.15447443 Z M70.5133168,3.75572621 C69.6417348,3.75572621 69.1337003,4.40358665 69.1337003,5.46160334 L69.1337003,5.87175959 C69.1337003,6.92977628 69.6417348,7.58229759 70.5133168,7.58229759 C71.380238,7.58229759 71.8882724,6.93443714 71.8882724,5.87175959 L71.8882724,5.46160334 C71.8882724,4.40358665 71.380238,3.75572621 70.5133168,3.75572621 Z M74.0460671,8.11363636 L74.7312145,8.11363636 L74.7312145,5.12602095 C74.7312145,4.42689098 75.1134056,3.78369141 76.0082919,3.78369141 C76.772674,3.78369141 77.262065,4.24511719 77.262065,5.07941229 L77.262065,8.11363636 L77.9472124,8.11363636 L77.9472124,4.97687322 C77.9472124,3.79301314 77.1968129,3.15447443 76.1900657,3.15447443 C75.3883967,3.15447443 74.9316318,3.57395241 74.749858,3.90021307 L74.7312145,3.90021307 L74.7312145,3.23370916 L74.0460671,3.23370916 L74.0460671,8.11363636 Z M81.9365412,3.23370916 L81.2700373,3.23370916 L81.2700373,3.81631747 L81.9365412,3.81631747 L81.9365412,6.78062855 C81.9365412,7.72212358 82.1509411,8.16024503 83.2648882,8.16024503 C83.4280185,8.16024503 83.5911488,8.14160156 83.6610618,8.12761896 L83.6610618,7.56365412 C83.5911488,7.57297585 83.5212358,7.57297585 83.4373402,7.57297585 C82.817445,7.57297585 82.6216886,7.42382813 82.6216886,6.82257635 L82.6216886,3.81631747 L83.619114,3.81631747 L83.619114,3.23370916 L82.6216886,3.23370916 L82.6216886,2.00790128 L81.9365412,2.00790128 L81.9365412,3.23370916 Z M85.0731179,8.11363636 L85.7536044,8.11363636 L85.7536044,5.12602095 C85.7536044,4.42689098 86.1404564,3.78369141 87.0353427,3.78369141 C87.7997248,3.78369141 88.2891158,4.24511719 88.2891158,5.07941229 L88.2891158,8.11363636 L88.9742632,8.11363636 L88.9742632,4.97687322 C88.9742632,3.79301314 88.2238637,3.15447443 87.2171165,3.15447443 C86.4154475,3.15447443 85.9586826,3.57395241 85.7722479,3.90021307 L85.7536044,3.90021307 L85.7536044,1.41597124 L85.0731179,1.41597124 L85.0731179,8.11363636 Z M92.3765093,8.19287109 C91.1227362,8.19287109 90.3676758,7.29798473 90.3676758,5.91836825 L90.3676758,5.35906428 C90.3676758,4.06800426 91.0761275,3.15447443 92.3438832,3.15447443 C93.5929954,3.15447443 94.3200906,4.05868253 94.3200906,5.41499467 L94.3200906,5.84379439 L91.0574841,5.84379439 L91.0574841,5.94167259 C91.0574841,6.93443714 91.5515359,7.60094105 92.3998136,7.60094105 C93.015048,7.60094105 93.4018999,7.28400213 93.5557085,6.81791548 L94.2501776,6.81791548 C94.0684038,7.60094105 93.434526,8.19287109 92.3765093,8.19287109 Z M91.0574841,5.25186435 L93.6302824,5.25186435 L93.6302824,5.23788175 C93.6302824,4.38960405 93.117587,3.74640447 92.3438832,3.74640447 C91.5608576,3.74640447 91.0574841,4.39426491 91.0574841,5.23788175 L91.0574841,5.25186435 Z" id="Available-on-the"></path>
                    <path d="M19.1283315,17.3433587 C19.8402735,18.365409 20.6562978,19.0169927 21.5752162,19.295496 C21.172432,20.586782 20.5374824,21.8768798 19.6703675,23.1672152 C18.3384467,25.1918299 17.0110408,26.2034244 15.690051,26.2034244 C15.184135,26.2034244 14.4610244,26.0382709 13.5216697,25.7077264 C12.6334056,25.3774196 11.8537389,25.2120285 11.1826694,25.2120285 C10.5522348,25.2120285 9.81985655,25.3828851 8.98363365,25.7236477 C8.14717312,26.0743908 7.46493499,26.25 6.9385827,26.25 C5.36903104,26.25 3.81516303,24.9133266 2.27697864,22.2390292 C0.759230512,19.543345 0,16.9469905 0,14.4483023 C0,12.0940936 0.583858957,10.1623926 1.75062635,8.65510022 C2.90622509,7.16895699 4.37288259,6.42541011 6.14869781,6.42541011 C6.89224469,6.42541011 7.80664813,6.57939489 8.89071999,6.88950313 C9.96481136,7.19961137 10.6767533,7.35454667 11.0274964,7.35454667 C11.49254,7.35454667 12.2306214,7.17822459 13.2424534,6.82724385 C14.2958709,6.47650074 15.1888876,6.30089156 15.9222163,6.30089156 C17.1502925,6.30089156 18.2502856,6.63618866 19.2212452,7.30725813 C19.7578156,7.67938802 20.2950989,8.19552219 20.8316694,8.85637354 C20.0165956,9.54787926 19.4272711,10.1569271 19.0660723,10.6842299 C18.3950028,11.654239 18.0599433,12.7235777 18.0599433,13.8903451 C18.0599433,15.1704624 18.415439,16.3213085 19.1283315,17.3433587 Z M13.8614818,5.371755 C13.3044751,5.92876167 12.7467555,6.30089156 12.1887983,6.48671887 C11.8074008,6.60078167 11.2698799,6.68799218 10.5783742,6.75025146 C10.6090285,5.21111655 11.0118128,3.88466124 11.7869646,2.76993501 C12.5507101,1.66447637 13.8410455,0.900493241 15.6586838,0.477272727 C15.6689019,0.507927105 15.6817339,0.565433766 15.6976552,0.647891665 C15.7123883,0.729636672 15.725458,0.787143334 15.7366267,0.817797711 C15.7366267,0.858670215 15.7382901,0.910711367 15.7439932,0.972970645 C15.7485082,1.03404177 15.7513598,1.08608292 15.7513598,1.12790595 C15.7513598,1.75715239 15.60189,2.45982677 15.3022375,3.23402802 C14.9930798,4.00822928 14.512115,4.72112178 13.8614818,5.371755 Z" id="Combined-Shape"></path>
                    <path d="M29.6356534,24.3409091 L27.8160511,24.3409091 L31.2911932,14.1615767 L33.3419744,14.1615767 L36.8096591,24.3409091 L34.878196,24.3409091 L34.0131392,21.5965909 L30.5007102,21.5965909 L29.6356534,24.3409091 Z M32.2979403,15.9886364 L32.2308239,15.9886364 L30.8959517,20.2244318 L33.6253551,20.2244318 L32.2979403,15.9886364 Z M42.0298295,24.4453125 C40.9932528,24.4453125 40.2176847,23.9605824 39.8149858,23.2297585 L39.7478693,23.2297585 L39.7478693,27.003196 L37.9804688,27.003196 L37.9804688,16.4509943 L39.703125,16.4509943 L39.703125,17.6143466 L39.7702415,17.6143466 C40.1953125,16.8536932 40.9932528,16.3391335 42.0671165,16.3391335 C43.8270597,16.3391335 45.0799006,17.6740057 45.0799006,20.0454545 L45.0799006,20.7389915 C45.0799006,23.0880682 43.8419744,24.4453125 42.0298295,24.4453125 Z M41.5674716,23.0134943 C42.5891335,23.0134943 43.2826705,22.1931818 43.2826705,20.6495028 L43.2826705,20.1051136 C43.2826705,18.6136364 42.6338778,17.7709517 41.5450994,17.7709517 C40.4339489,17.7709517 39.7329545,18.6732955 39.7329545,20.0976562 L39.7329545,20.6495028 C39.7329545,22.1111506 40.4414063,23.0134943 41.5674716,23.0134943 Z M50.8817472,24.4453125 C49.8451705,24.4453125 49.0696023,23.9605824 48.6669034,23.2297585 L48.5997869,23.2297585 L48.5997869,27.003196 L46.8323864,27.003196 L46.8323864,16.4509943 L48.5550426,16.4509943 L48.5550426,17.6143466 L48.6221591,17.6143466 C49.0472301,16.8536932 49.8451705,16.3391335 50.9190341,16.3391335 C52.6789773,16.3391335 53.9318182,17.6740057 53.9318182,20.0454545 L53.9318182,20.7389915 C53.9318182,23.0880682 52.693892,24.4453125 50.8817472,24.4453125 Z M50.4193892,23.0134943 C51.4410511,23.0134943 52.1345881,22.1931818 52.1345881,20.6495028 L52.1345881,20.1051136 C52.1345881,18.6136364 51.4857955,17.7709517 50.397017,17.7709517 C49.2858665,17.7709517 48.5848722,18.6732955 48.5848722,20.0976562 L48.5848722,20.6495028 C48.5848722,22.1111506 49.2933239,23.0134943 50.4193892,23.0134943 Z M58.1154119,21.4921875 C58.1452415,22.8792614 59.0997869,24.5422585 61.9708807,24.5422585 C64.3274148,24.5422585 65.9382102,23.393821 65.9382102,21.3952415 C65.9382102,19.6278409 64.7524858,18.9044744 63.231179,18.5539773 L61.590554,18.1587358 C60.6583807,17.9424716 60.1885653,17.487571 60.1885653,16.8387784 C60.1885653,15.9364347 60.9492188,15.3995028 62.0827415,15.3995028 C63.3654119,15.3995028 64.0142045,16.1004972 64.081321,16.928267 L65.7965199,16.928267 C65.7666903,15.0564631 64.1484375,13.9378551 62.0976562,13.9378551 C60.0841619,13.9378551 58.3764205,15.0191761 58.3764205,16.9804687 C58.3764205,18.6509233 59.5621449,19.4414062 60.9044744,19.7471591 L62.537642,20.1424006 C63.6115057,20.4034091 64.1335227,20.7986506 64.1335227,21.5518466 C64.1335227,22.4765625 63.3877841,23.0731534 62.0976562,23.0731534 C60.6882102,23.0731534 59.9424716,22.3423295 59.8678977,21.4921875 L58.1154119,21.4921875 Z M68.3096591,16.4509943 L67.1761364,16.4509943 L67.1761364,17.8455256 L68.2798295,17.8455256 L68.2798295,22.118608 C68.2798295,23.7070312 68.8465909,24.3931108 70.7855114,24.3931108 C71.1434659,24.3931108 71.4641335,24.3558239 71.6058239,24.3334517 L71.6058239,22.9985795 C71.5088778,23.0134943 71.3671875,23.0134943 71.2180398,23.0134943 C70.352983,23.0134943 70.024858,22.774858 70.024858,21.9396307 L70.024858,17.8455256 L71.5610795,17.8455256 L71.5610795,16.4509943 L70.024858,16.4509943 L70.024858,14.5419034 L68.3096591,14.5419034 L68.3096591,16.4509943 Z M76.453125,16.3167614 C78.7350852,16.3167614 79.9879261,17.9051847 79.9879261,20.0678267 L79.9879261,20.6793324 C79.9879261,22.9314631 78.7425426,24.475142 76.453125,24.475142 C74.15625,24.475142 72.9034091,22.9314631 72.9034091,20.6867898 L72.9034091,20.0752841 C72.9034091,17.912642 74.1637074,16.3167614 76.453125,16.3167614 Z M76.453125,17.7038352 C75.2524858,17.7038352 74.678267,18.703125 74.678267,20.0827415 L74.678267,20.6942472 C74.678267,22.0440341 75.2450284,23.0731534 76.453125,23.0731534 C77.6537642,23.0731534 78.2130682,22.0440341 78.2130682,20.6942472 L78.2130682,20.0827415 C78.2130682,18.6956676 77.6463068,17.7038352 76.453125,17.7038352 Z M81.7180398,24.3409091 L83.5152699,24.3409091 L83.5152699,19.7322443 C83.5152699,18.6658381 83.9627131,17.8678977 85.2752131,17.8678977 C85.5585938,17.8678977 85.8568892,17.8828125 86.0060369,17.9275568 L86.0060369,16.3838778 C85.8494318,16.3540483 85.6629972,16.3316761 85.4243608,16.3316761 C84.3355824,16.3316761 83.7464489,17.0102983 83.5525568,17.5024858 L83.477983,17.5024858 L83.477983,16.4509943 L81.7180398,16.4509943 L81.7180398,24.3409091 Z M90.4431818,24.475142 C88.3103693,24.475142 86.9456676,23.0955256 86.9456676,20.7315341 L86.9456676,19.9559659 C86.9456676,17.7112926 88.2954545,16.3167614 90.368608,16.3167614 C92.4865057,16.3167614 93.7840909,17.7858665 93.7840909,20.0230824 L93.7840909,20.7837358 L88.6757812,20.7837358 L88.6757812,20.9850852 C88.6757812,22.2677557 89.3767756,23.1104403 90.4580966,23.1104403 C91.2784091,23.1104403 91.8526278,22.7002841 92.0390625,22.0291193 L93.6946023,22.0291193 C93.4783381,23.3043324 92.4417614,24.475142 90.4431818,24.475142 Z M88.6757812,19.5980114 L92.0614347,19.5980114 L92.0614347,19.5830966 C92.0614347,18.4943182 91.3977273,17.6590909 90.3760653,17.6590909 C89.346946,17.6590909 88.6757812,18.5017756 88.6757812,19.5830966 L88.6757812,19.5980114 Z" id="App-Store"></path>
                </g>
            </g>
        </g>
    </g>
</svg>