<svg xmlns="http://www.w3.org/2000/svg" xmlns:xlink="http://www.w3.org/1999/xlink" viewBox="0 0 200 200"><defs><style>.cls-1,.cls-11,.cls-19,.cls-25,.cls-29,.cls-7,.cls-9{fill:none;}.cls-2{isolation:isolate;}.cls-3,.cls-30{fill:#fff;}.cls-4{fill:url(#radial-gradient);}.cls-5{fill:url(#linear-gradient);}.cls-6{fill:url(#linear-gradient-2);}.cls-11,.cls-19,.cls-29,.cls-30,.cls-7,.cls-9{stroke-linecap:round;stroke-linejoin:round;}.cls-7,.cls-9{stroke-width:0.72px;}.cls-14,.cls-7,.cls-9{opacity:0.7;}.cls-7{stroke:url(#linear-gradient-3);}.cls-8{fill:url(#linear-gradient-4);}.cls-9{stroke:url(#linear-gradient-5);}.cls-10{fill:url(#linear-gradient-6);}.cls-11{stroke:#f15a29;stroke-width:2.53px;}.cls-12{opacity:0.5;}.cls-13{clip-path:url(#clip-path);}.cls-15{fill:url(#linear-gradient-7);}.cls-16{fill:url(#linear-gradient-8);}.cls-17{fill:url(#linear-gradient-9);}.cls-18{fill:#b30011;opacity:0.3;}.cls-18,.cls-24{mix-blend-mode:multiply;}.cls-19{stroke-width:3px;stroke:url(#linear-gradient-10);}.cls-20{fill:url(#linear-gradient-11);}.cls-21{fill:url(#linear-gradient-12);}.cls-22{fill:url(#linear-gradient-13);}.cls-23{fill:url(#linear-gradient-14);}.cls-24{fill:#ff654c;}.cls-25{stroke:#dd1e27;stroke-miterlimit:10;stroke-width:0.42px;}.cls-26{fill:#ffd3cc;}.cls-27{fill:url(#linear-gradient-15);}.cls-28{fill:#fffbf5;}.cls-29{stroke-width:1.26px;stroke:url(#linear-gradient-16);}.cls-30{stroke:#001859;stroke-width:2px;}</style><radialGradient id="radial-gradient" cx="100" cy="100" r="37.88" gradientUnits="userSpaceOnUse"><stop offset="0" stop-color="#fff" stop-opacity="0"/><stop offset="0.16" stop-color="#fef9f0" stop-opacity="0.21"/><stop offset="0.39" stop-color="#fdf2dd" stop-opacity="0.49"/><stop offset="0.6" stop-color="#fcecce" stop-opacity="0.71"/><stop offset="0.77" stop-color="#fce8c3" stop-opacity="0.87"/><stop offset="0.91" stop-color="#fbe5bc" stop-opacity="0.96"/><stop offset="1" stop-color="#fbe4ba"/></radialGradient><linearGradient id="linear-gradient" x1="55.8" y1="82.04" x2="61.9" y2="82.04" gradientUnits="userSpaceOnUse"><stop offset="0" stop-color="#ee4036"/><stop offset="0.21" stop-color="#ee4335"/><stop offset="0.37" stop-color="#ef4d33"/><stop offset="0.51" stop-color="#f15d30"/><stop offset="0.65" stop-color="#f4742b"/><stop offset="0.77" stop-color="#f79225"/><stop offset="0.89" stop-color="#fbb61d"/><stop offset="1" stop-color="#ffdd15"/></linearGradient><linearGradient id="linear-gradient-2" x1="60.68" y1="89.4" x2="64.2" y2="89.4" xlink:href="#linear-gradient"/><linearGradient id="linear-gradient-3" x1="74.64" y1="70.41" x2="125.36" y2="70.41" gradientUnits="userSpaceOnUse"><stop offset="0" stop-color="#fff" stop-opacity="0"/><stop offset="0.11" stop-color="#fff" stop-opacity="0.2"/><stop offset="0.24" stop-color="#fff" stop-opacity="0.41"/><stop offset="0.37" stop-color="#fff" stop-opacity="0.59"/><stop offset="0.5" stop-color="#fff" stop-opacity="0.74"/><stop offset="0.63" stop-color="#fff" stop-opacity="0.85"/><stop offset="0.75" stop-color="#fff" stop-opacity="0.93"/><stop offset="0.88" stop-color="#fff" stop-opacity="0.98"/><stop offset="1" stop-color="#fff"/></linearGradient><linearGradient id="linear-gradient-4" x1="76.6" y1="70.41" x2="123.4" y2="70.41" gradientUnits="userSpaceOnUse"><stop offset="0" stop-color="#f7941d"/><stop offset="0.01" stop-color="#f7911e"/><stop offset="0.17" stop-color="#f47427"/><stop offset="0.34" stop-color="#f15d2d"/><stop offset="0.53" stop-color="#ef4d32"/><stop offset="0.73" stop-color="#ee4335"/><stop offset="1" stop-color="#ee4036"/></linearGradient><linearGradient id="linear-gradient-5" x1="78.29" y1="59.74" x2="100.36" y2="59.74" xlink:href="#linear-gradient-3"/><linearGradient id="linear-gradient-6" x1="81.95" y1="70.41" x2="118.05" y2="70.41" gradientUnits="userSpaceOnUse"><stop offset="0.02" stop-color="#fbb510"/><stop offset="0.52" stop-color="#fbb711"/><stop offset="0.7" stop-color="#fbbe15"/><stop offset="0.82" stop-color="#fac91c"/><stop offset="0.93" stop-color="#fada26"/><stop offset="1" stop-color="#f9ec31"/></linearGradient><clipPath id="clip-path"><circle class="cls-1" cx="100" cy="70.41" r="18.05"/></clipPath><linearGradient id="linear-gradient-7" x1="82.75" y1="70.41" x2="107.79" y2="70.41" xlink:href="#linear-gradient-3"/><linearGradient id="linear-gradient-8" x1="95.05" y1="70.41" x2="117.25" y2="70.41" xlink:href="#linear-gradient-3"/><linearGradient id="linear-gradient-9" x1="81.15" y1="70.41" x2="118.85" y2="70.41" xlink:href="#linear-gradient"/><linearGradient id="linear-gradient-10" x1="134.04" y1="75.19" x2="137.04" y2="75.19" gradientUnits="userSpaceOnUse"><stop offset="0" stop-color="#00e3b0"/><stop offset="0.2" stop-color="#00e39c"/><stop offset="0.5" stop-color="#00e383"/><stop offset="0.78" stop-color="#00e373"/><stop offset="1" stop-color="#00e36e"/></linearGradient><linearGradient id="linear-gradient-11" x1="129.19" y1="87.81" x2="141.9" y2="87.81" xlink:href="#linear-gradient-10"/><linearGradient id="linear-gradient-12" x1="-5066.43" y1="-656.88" x2="-5045.21" y2="-661.5" gradientTransform="matrix(-1, -0.06, -0.06, 1, -5003.29, 436.41)" gradientUnits="userSpaceOnUse"><stop offset="0" stop-color="#ff654c"/><stop offset="0.43" stop-color="#ff674b"/><stop offset="0.59" stop-color="#ff6e48"/><stop offset="0.7" stop-color="#ff7943"/><stop offset="0.79" stop-color="#ff8a3b"/><stop offset="0.87" stop-color="#ffa031"/><stop offset="0.94" stop-color="#ffbb25"/><stop offset="1" stop-color="#ffda16"/><stop offset="1" stop-color="#ffdd15"/></linearGradient><linearGradient id="linear-gradient-13" x1="122.28" y1="108.2" x2="130.17" y2="108.2" xlink:href="#linear-gradient-4"/><linearGradient id="linear-gradient-14" x1="-5105.52" y1="-651.98" x2="-5041.24" y2="-651.98" gradientTransform="matrix(-1, -0.06, -0.06, 1, -5003.29, 436.41)" gradientUnits="userSpaceOnUse"><stop offset="0" stop-color="#ff7963"/><stop offset="0.45" stop-color="#ff7b62"/><stop offset="0.61" stop-color="#ff825c"/><stop offset="0.73" stop-color="#ff8d53"/><stop offset="0.82" stop-color="#ff9e46"/><stop offset="0.9" stop-color="#ffb435"/><stop offset="0.97" stop-color="#ffcf20"/><stop offset="1" stop-color="#ffdd15"/></linearGradient><linearGradient id="linear-gradient-15" x1="122.4" y1="106.56" x2="149.19" y2="106.56" gradientUnits="userSpaceOnUse"><stop offset="0" stop-color="#001859"/><stop offset="0.08" stop-color="#001a60"/><stop offset="0.39" stop-color="#001f74"/><stop offset="0.7" stop-color="#002381"/><stop offset="1" stop-color="#002485"/></linearGradient><linearGradient id="linear-gradient-16" x1="80.95" y1="102.36" x2="118.92" y2="102.36" xlink:href="#linear-gradient-3"/></defs><g class="cls-2"><g id="Layer_1" data-name="Layer 1"><circle class="cls-3" cx="100" cy="100" r="37.88"/><circle class="cls-4" cx="100" cy="100" r="37.88"/><path class="cls-5" d="M60.75,83H56.61a.79.79,0,0,1-.8-1,1.2,1.2,0,0,1,1.14-1h4.14a.8.8,0,0,1,.8,1A1.21,1.21,0,0,1,60.75,83Z"/><path class="cls-6" d="M63.05,90.37H61.49a.8.8,0,0,1-.8-1,1.22,1.22,0,0,1,1.14-1h1.56a.79.79,0,0,1,.8,1A1.2,1.2,0,0,1,63.05,90.37Z"/><path class="cls-7" d="M100,95.41a25,25,0,1,1,25-25A25,25,0,0,1,100,95.41Z"/><circle class="cls-8" cx="100" cy="70.41" r="23.4"/><path class="cls-9" d="M78.65,70.41A21.35,21.35,0,0,1,100,49.06"/><circle class="cls-10" cx="100" cy="70.41" r="18.05"/><line class="cls-11" x1="92.87" y1="60.58" x2="107.13" y2="60.58"/><line class="cls-11" x1="92.87" y1="65.31" x2="107.13" y2="65.31"/><path class="cls-11" d="M96.26,60.58h1a4.69,4.69,0,0,1,4.69,4.69h0A4.69,4.69,0,0,1,97.23,70H93.35"/><line class="cls-11" x1="102.59" y1="80.24" x2="93.12" y2="69.96"/><g class="cls-12"><g class="cls-13"><g class="cls-14"><polygon class="cls-15" points="88.43 90.28 82.75 90.28 102.11 50.55 107.79 50.55 88.43 90.28"/><polygon class="cls-16" points="97.89 90.28 95.05 90.28 114.41 50.55 117.25 50.55 97.89 90.28"/></g></g></g><path class="cls-17" d="M100,52.36a18,18,0,1,1-18,18,18,18,0,0,1,18-18m0-.8a18.85,18.85,0,1,0,18.85,18.85A18.88,18.88,0,0,0,100,51.56Z"/><path class="cls-18" d="M100,86.06A18,18,0,0,1,82,69.21c0,.4,0,.8,0,1.2a18,18,0,0,0,36.1,0c0-.4,0-.8,0-1.2A18,18,0,0,1,100,86.06Z"/><line class="cls-19" x1="135.54" y1="63.88" x2="135.54" y2="86.5"/><polygon class="cls-20" points="141.9 84.63 135.54 90.99 129.19 84.63 141.9 84.63"/><path class="cls-21" d="M93.7,110.19l-19.13-9.32a2.07,2.07,0,0,0-.47-.18A3,3,0,0,1,79,98.39l14.89,11.75Z"/><path class="cls-22" d="M122.4,100.24s-1.74,10.77,7.72,15.93C130.12,116.17,131.27,104.64,122.4,100.24Z"/><path class="cls-23" d="M133.19,104.19h0a5.71,5.71,0,0,1-2.07,7.93l-18.59,10.54a13.77,13.77,0,0,1-13.72-.07L71.47,106.68a3.3,3.3,0,0,1-1-4.8h0a3.3,3.3,0,0,1,4.1-1l19.13,9.32,33.17-8.57A5.7,5.7,0,0,1,133.19,104.19Z"/><path class="cls-24" d="M116.76,113.52l-10.51,4.39a2.72,2.72,0,0,1-2.36-.13L100,115.65l2,.39Z"/><path class="cls-25" d="M117,113.48,102.57,116A3.91,3.91,0,0,1,98,111.86h0a3.89,3.89,0,0,1,2.92-3.54l18.42-4.76,7.53-1.94"/><path class="cls-26" d="M103.46,108.78l-2.46.63A2.86,2.86,0,0,0,98.86,112h0a2.86,2.86,0,0,0,3.34,3l2.38-.41Z"/><path class="cls-27" d="M130.12,116.17l2.78-1.58,9.19.56,7.1-18.2-19.9,2a14.9,14.9,0,0,0-2.64.25l-4.25,1.09Z"/><path class="cls-28" d="M76.29,109.5l-5.23-3.1S72,109.76,76.29,109.5Z"/><polyline class="cls-29" points="81.58 97.45 81.58 97.45 94.94 107.28 118.29 100.82"/><line class="cls-30" x1="78.53" y1="125.46" x2="134.07" y2="125.46"/><line class="cls-30" x1="56.96" y1="125.46" x2="74.53" y2="125.46"/><line class="cls-30" x1="138.07" y1="125.46" x2="143.04" y2="125.46"/></g></g></svg>