<svg xmlns="http://www.w3.org/2000/svg" xmlns:xlink="http://www.w3.org/1999/xlink" viewBox="0 0 200 200"><defs><style>.cls-1{isolation:isolate;}.cls-2,.cls-4{fill:#fff;}.cls-3{fill:url(#radial-gradient);}.cls-13,.cls-4{stroke:#001859;}.cls-10,.cls-13,.cls-16,.cls-19,.cls-4,.cls-6,.cls-7{stroke-linecap:round;stroke-linejoin:round;}.cls-4{stroke-width:2px;}.cls-5{fill:url(#linear-gradient);}.cls-10,.cls-13,.cls-16,.cls-19,.cls-6,.cls-7{fill:none;}.cls-10,.cls-16,.cls-6,.cls-7{opacity:0.7;}.cls-6{stroke:url(#linear-gradient-2);}.cls-7{stroke:url(#linear-gradient-3);}.cls-14,.cls-8{mix-blend-mode:multiply;}.cls-8{fill:url(#_ÂÁ_Ï_ÌÌ_È_ËÂÌÚ_106);}.cls-9{fill:url(#linear-gradient-4);}.cls-10{stroke:url(#linear-gradient-5);}.cls-11{fill:#f15a29;}.cls-12{fill:#be1e2d;}.cls-13{stroke-width:4px;}.cls-14{fill:url(#linear-gradient-6);}.cls-15{fill:url(#linear-gradient-7);}.cls-16{stroke:url(#linear-gradient-8);}.cls-17{fill:url(#linear-gradient-9);}.cls-18{fill:url(#linear-gradient-10);}.cls-19{stroke-width:3px;stroke:url(#linear-gradient-11);}</style><radialGradient id="radial-gradient" cx="100" cy="100" r="37.88" gradientUnits="userSpaceOnUse"><stop offset="0" stop-color="#fff" stop-opacity="0"/><stop offset="0.16" stop-color="#fef9f0" stop-opacity="0.21"/><stop offset="0.39" stop-color="#fdf2dd" stop-opacity="0.49"/><stop offset="0.6" stop-color="#fcecce" stop-opacity="0.71"/><stop offset="0.77" stop-color="#fce8c3" stop-opacity="0.87"/><stop offset="0.91" stop-color="#fbe5bc" stop-opacity="0.96"/><stop offset="1" stop-color="#fbe4ba"/></radialGradient><linearGradient id="linear-gradient" x1="646.09" y1="93.76" x2="706.93" y2="93.76" gradientTransform="translate(6.24 770.27) rotate(-90)" gradientUnits="userSpaceOnUse"><stop offset="0.02" stop-color="#fbb510"/><stop offset="0.52" stop-color="#fbb711"/><stop offset="0.7" stop-color="#fbbe15"/><stop offset="0.82" stop-color="#fac91c"/><stop offset="0.93" stop-color="#fada26"/><stop offset="1" stop-color="#f9ec31"/></linearGradient><linearGradient id="linear-gradient-2" x1="71.08" y1="93.76" x2="128.92" y2="93.76" gradientTransform="translate(6.24 193.76) rotate(-90)" gradientUnits="userSpaceOnUse"><stop offset="0" stop-color="#fff"/><stop offset="0.02" stop-color="#fff" stop-opacity="0.93"/><stop offset="0.09" stop-color="#fff" stop-opacity="0.74"/><stop offset="0.17" stop-color="#fff" stop-opacity="0.56"/><stop offset="0.25" stop-color="#fff" stop-opacity="0.41"/><stop offset="0.34" stop-color="#fff" stop-opacity="0.28"/><stop offset="0.43" stop-color="#fff" stop-opacity="0.18"/><stop offset="0.53" stop-color="#fff" stop-opacity="0.1"/><stop offset="0.64" stop-color="#fff" stop-opacity="0.04"/><stop offset="0.77" stop-color="#fff" stop-opacity="0.01"/><stop offset="1" stop-color="#fff" stop-opacity="0"/></linearGradient><linearGradient id="linear-gradient-3" x1="73.08" y1="93.76" x2="134.92" y2="93.76" gradientTransform="translate(10.24 197.76) rotate(-90)" gradientUnits="userSpaceOnUse"><stop offset="0" stop-color="#fff" stop-opacity="0"/><stop offset="0.23" stop-color="#fff" stop-opacity="0.01"/><stop offset="0.36" stop-color="#fff" stop-opacity="0.04"/><stop offset="0.47" stop-color="#fff" stop-opacity="0.1"/><stop offset="0.57" stop-color="#fff" stop-opacity="0.18"/><stop offset="0.66" stop-color="#fff" stop-opacity="0.28"/><stop offset="0.75" stop-color="#fff" stop-opacity="0.41"/><stop offset="0.83" stop-color="#fff" stop-opacity="0.56"/><stop offset="0.91" stop-color="#fff" stop-opacity="0.74"/><stop offset="0.98" stop-color="#fff" stop-opacity="0.93"/><stop offset="1" stop-color="#fff"/></linearGradient><linearGradient id="_ÂÁ_Ï_ÌÌ_È_ËÂÌÚ_106" x1="69.58" y1="73.19" x2="130.42" y2="73.19" gradientUnits="userSpaceOnUse"><stop offset="0.02" stop-color="#c899c5"/><stop offset="1" stop-color="#ece4f1"/></linearGradient><linearGradient id="linear-gradient-4" x1="69.58" y1="70.19" x2="130.42" y2="70.19" gradientUnits="userSpaceOnUse"><stop offset="0" stop-color="#f7941d"/><stop offset="0.01" stop-color="#f7911e"/><stop offset="0.17" stop-color="#f47427"/><stop offset="0.34" stop-color="#f15d2d"/><stop offset="0.53" stop-color="#ef4d32"/><stop offset="0.73" stop-color="#ee4335"/><stop offset="1" stop-color="#ee4036"/></linearGradient><linearGradient id="linear-gradient-5" x1="72.08" y1="70.18" x2="127.94" y2="70.18" gradientTransform="matrix(1, 0, 0, 1, 0, 0)" xlink:href="#linear-gradient-3"/><linearGradient id="linear-gradient-6" x1="105.38" y1="108.33" x2="138.19" y2="108.33" gradientUnits="userSpaceOnUse"><stop offset="0" stop-color="#ece4f1"/><stop offset="0.02" stop-color="#eae0ef"/><stop offset="0.15" stop-color="#dec6df"/><stop offset="0.29" stop-color="#d4b2d4"/><stop offset="0.45" stop-color="#cda4cb"/><stop offset="0.65" stop-color="#c99bc6"/><stop offset="0.98" stop-color="#c899c5"/></linearGradient><linearGradient id="linear-gradient-7" x1="107.38" y1="108.33" x2="140.19" y2="108.33" gradientUnits="userSpaceOnUse"><stop offset="0" stop-color="#001859"/><stop offset="0.16" stop-color="#001d6b"/><stop offset="0.37" stop-color="#00217a"/><stop offset="0.61" stop-color="#002382"/><stop offset="1" stop-color="#002485"/></linearGradient><linearGradient id="linear-gradient-8" x1="108.71" y1="101.04" x2="124.28" y2="101.04" gradientTransform="matrix(1, 0, 0, 1, 0, 0)" xlink:href="#linear-gradient-3"/><linearGradient id="linear-gradient-9" x1="55.8" y1="82.04" x2="61.9" y2="82.04" gradientUnits="userSpaceOnUse"><stop offset="0" stop-color="#ee4036"/><stop offset="0.21" stop-color="#ee4335"/><stop offset="0.37" stop-color="#ef4d33"/><stop offset="0.51" stop-color="#f15d30"/><stop offset="0.65" stop-color="#f4742b"/><stop offset="0.77" stop-color="#f79225"/><stop offset="0.89" stop-color="#fbb61d"/><stop offset="1" stop-color="#ffdd15"/></linearGradient><linearGradient id="linear-gradient-10" x1="60.68" y1="89.4" x2="64.2" y2="89.4" xlink:href="#linear-gradient-9"/><linearGradient id="linear-gradient-11" x1="115.41" y1="108.33" x2="132.16" y2="108.33" gradientUnits="userSpaceOnUse"><stop offset="0" stop-color="#00e3b0"/><stop offset="0.2" stop-color="#00e39c"/><stop offset="0.5" stop-color="#00e383"/><stop offset="0.78" stop-color="#00e373"/><stop offset="1" stop-color="#00e36e"/></linearGradient></defs><g class="cls-1"><g id="Layer_1" data-name="Layer 1"><circle class="cls-2" cx="100" cy="100" r="37.88"/><circle class="cls-3" cx="100" cy="100" r="37.88"/><line class="cls-4" x1="78.53" y1="125.46" x2="134.07" y2="125.46"/><line class="cls-4" x1="56.96" y1="125.46" x2="74.53" y2="125.46"/><line class="cls-4" x1="138.07" y1="125.46" x2="143.04" y2="125.46"/><rect class="cls-5" x="69.58" y="63.33" width="60.84" height="60.84" rx="2.98" transform="translate(193.76 -6.24) rotate(90)"/><rect class="cls-6" x="71.58" y="65.33" width="56.84" height="56.84" rx="0.98" transform="translate(193.76 -6.24) rotate(90)"/><rect class="cls-7" x="73.58" y="63.33" width="60.84" height="60.84" rx="2.98" transform="translate(197.76 -10.24) rotate(90)"/><path class="cls-8" d="M69.58,80.05V69.31a3,3,0,0,1,3-3h54.88a3,3,0,0,1,3,3V80.05Z"/><path class="cls-9" d="M69.58,77.05V66.31a3,3,0,0,1,3-3h54.88a3,3,0,0,1,3,3V77.05Z"/><polyline class="cls-10" points="122.9 66.31 127.44 66.33 127.43 74.05 72.58 74.05"/><rect class="cls-11" x="76.22" y="83.4" width="6.88" height="6.88"/><rect class="cls-11" x="96.56" y="83.4" width="6.88" height="6.88"/><rect class="cls-11" x="116.9" y="83.4" width="6.88" height="6.88"/><rect class="cls-11" x="76.22" y="94.2" width="6.88" height="6.88"/><rect class="cls-12" x="96.56" y="94.2" width="6.88" height="6.88"/><rect class="cls-11" x="116.9" y="94.2" width="6.88" height="6.88"/><rect class="cls-11" x="76.22" y="104.99" width="6.88" height="6.88"/><rect class="cls-11" x="96.56" y="104.99" width="6.88" height="6.88"/><line class="cls-13" x1="81.45" y1="66.09" x2="81.45" y2="57.46"/><line class="cls-13" x1="118.55" y1="66.09" x2="118.55" y2="57.46"/><circle class="cls-14" cx="121.78" cy="108.33" r="16.4"/><circle class="cls-15" cx="123.78" cy="108.33" r="16.4"/><path class="cls-16" d="M109.21,108.33a14.57,14.57,0,0,1,14.57-14.57"/><path class="cls-17" d="M60.75,83H56.61a.79.79,0,0,1-.8-1,1.2,1.2,0,0,1,1.14-1h4.14a.8.8,0,0,1,.8,1A1.21,1.21,0,0,1,60.75,83Z"/><path class="cls-18" d="M63.05,90.37H61.49a.8.8,0,0,1-.8-1,1.22,1.22,0,0,1,1.14-1h1.56a.79.79,0,0,1,.8,1A1.2,1.2,0,0,1,63.05,90.37Z"/></g><g id="color"><polyline class="cls-19" points="116.91 109.84 120.49 113.42 130.66 103.25"/></g></g></svg>