<svg xmlns="http://www.w3.org/2000/svg" xmlns:xlink="http://www.w3.org/1999/xlink" viewBox="0 0 200 200"><defs><style>.cls-1{isolation:isolate;}.cls-15,.cls-2{fill:#fff;}.cls-3{fill:url(#radial-gradient);}.cls-10,.cls-12,.cls-16,.cls-18,.cls-24,.cls-26,.cls-4,.cls-9{fill:none;}.cls-10,.cls-12,.cls-15,.cls-16,.cls-18,.cls-24,.cls-26,.cls-4,.cls-9{stroke-linecap:round;stroke-linejoin:round;}.cls-10,.cls-12,.cls-16,.cls-24,.cls-26,.cls-4,.cls-9{opacity:0.7;}.cls-4{stroke:url(#linear-gradient);}.cls-5{fill:url(#linear-gradient-2);}.cls-6{fill:url(#linear-gradient-3);}.cls-7{fill:url(#linear-gradient-4);}.cls-8{fill:#fbbb13;}.cls-9{stroke:url(#linear-gradient-5);}.cls-10{stroke:url(#linear-gradient-6);}.cls-11{fill:#ed4d34;}.cls-12{stroke:url(#linear-gradient-7);}.cls-13,.cls-17{mix-blend-mode:multiply;}.cls-13{fill:url(#_ÂÁ_Ï_ÌÌ_È_ËÂÌÚ_106);}.cls-14{fill:url(#linear-gradient-8);}.cls-15{stroke:#001859;stroke-width:2px;}.cls-16{stroke:url(#linear-gradient-9);}.cls-17{fill:url(#linear-gradient-10);}.cls-18{stroke-width:3px;stroke:url(#linear-gradient-11);}.cls-19{fill:url(#linear-gradient-12);}.cls-20{fill:url(#linear-gradient-13);}.cls-21{fill:url(#linear-gradient-14);}.cls-22{fill:url(#linear-gradient-15);}.cls-23{fill:url(#linear-gradient-16);}.cls-24{stroke:url(#linear-gradient-17);}.cls-25{fill:url(#linear-gradient-18);}.cls-26{stroke:url(#linear-gradient-19);}</style><radialGradient id="radial-gradient" cx="100" cy="100" r="37.88" gradientUnits="userSpaceOnUse"><stop offset="0" stop-color="#fff" stop-opacity="0"/><stop offset="0.16" stop-color="#fef9f0" stop-opacity="0.21"/><stop offset="0.39" stop-color="#fdf2dd" stop-opacity="0.49"/><stop offset="0.6" stop-color="#fcecce" stop-opacity="0.71"/><stop offset="0.77" stop-color="#fce8c3" stop-opacity="0.87"/><stop offset="0.91" stop-color="#fbe5bc" stop-opacity="0.96"/><stop offset="1" stop-color="#fbe4ba"/></radialGradient><linearGradient id="linear-gradient" x1="108.61" y1="78.58" x2="125.13" y2="78.58" gradientUnits="userSpaceOnUse"><stop offset="0" stop-color="#fff" stop-opacity="0"/><stop offset="0.23" stop-color="#fff" stop-opacity="0.01"/><stop offset="0.36" stop-color="#fff" stop-opacity="0.04"/><stop offset="0.47" stop-color="#fff" stop-opacity="0.1"/><stop offset="0.57" stop-color="#fff" stop-opacity="0.18"/><stop offset="0.66" stop-color="#fff" stop-opacity="0.28"/><stop offset="0.75" stop-color="#fff" stop-opacity="0.41"/><stop offset="0.83" stop-color="#fff" stop-opacity="0.56"/><stop offset="0.91" stop-color="#fff" stop-opacity="0.74"/><stop offset="0.98" stop-color="#fff" stop-opacity="0.93"/><stop offset="1" stop-color="#fff"/></linearGradient><linearGradient id="linear-gradient-2" x1="55.8" y1="82.04" x2="61.9" y2="82.04" gradientUnits="userSpaceOnUse"><stop offset="0" stop-color="#ee4036"/><stop offset="0.21" stop-color="#ee4335"/><stop offset="0.37" stop-color="#ef4d33"/><stop offset="0.51" stop-color="#f15d30"/><stop offset="0.65" stop-color="#f4742b"/><stop offset="0.77" stop-color="#f79225"/><stop offset="0.89" stop-color="#fbb61d"/><stop offset="1" stop-color="#ffdd15"/></linearGradient><linearGradient id="linear-gradient-3" x1="60.68" y1="89.4" x2="64.2" y2="89.4" xlink:href="#linear-gradient-2"/><linearGradient id="linear-gradient-4" x1="87.86" y1="88.63" x2="105.27" y2="88.63" gradientUnits="userSpaceOnUse"><stop offset="0" stop-color="#00e3b0"/><stop offset="0.2" stop-color="#00e39c"/><stop offset="0.5" stop-color="#00e383"/><stop offset="0.78" stop-color="#00e373"/><stop offset="1" stop-color="#00e36e"/></linearGradient><linearGradient id="linear-gradient-5" x1="72.16" y1="116.05" x2="127.94" y2="116.05" gradientUnits="userSpaceOnUse"><stop offset="0" stop-color="#fff"/><stop offset="0.02" stop-color="#fff" stop-opacity="0.93"/><stop offset="0.09" stop-color="#fff" stop-opacity="0.74"/><stop offset="0.17" stop-color="#fff" stop-opacity="0.56"/><stop offset="0.25" stop-color="#fff" stop-opacity="0.41"/><stop offset="0.34" stop-color="#fff" stop-opacity="0.28"/><stop offset="0.43" stop-color="#fff" stop-opacity="0.18"/><stop offset="0.53" stop-color="#fff" stop-opacity="0.1"/><stop offset="0.64" stop-color="#fff" stop-opacity="0.04"/><stop offset="0.77" stop-color="#fff" stop-opacity="0.01"/><stop offset="1" stop-color="#fff" stop-opacity="0"/></linearGradient><linearGradient id="linear-gradient-6" x1="66.75" y1="116.05" x2="133.25" y2="116.05" xlink:href="#linear-gradient"/><linearGradient id="linear-gradient-7" x1="88.61" y1="85.74" x2="114.53" y2="85.74" xlink:href="#linear-gradient"/><linearGradient id="_ÂÁ_Ï_ÌÌ_È_ËÂÌÚ_106" x1="92.75" y1="100.09" x2="105.87" y2="100.09" gradientUnits="userSpaceOnUse"><stop offset="0.02" stop-color="#c899c5"/><stop offset="1" stop-color="#ece4f1"/></linearGradient><linearGradient id="linear-gradient-8" x1="87.54" y1="83.74" x2="112.46" y2="83.74" gradientUnits="userSpaceOnUse"><stop offset="0" stop-color="#f7941d"/><stop offset="0.01" stop-color="#f7911e"/><stop offset="0.17" stop-color="#f47427"/><stop offset="0.34" stop-color="#f15d2d"/><stop offset="0.53" stop-color="#ef4d32"/><stop offset="0.73" stop-color="#ee4335"/><stop offset="1" stop-color="#ee4036"/></linearGradient><linearGradient id="linear-gradient-9" x1="79.6" y1="79.27" x2="96.13" y2="79.27" xlink:href="#linear-gradient-5"/><linearGradient id="linear-gradient-10" x1="86.61" y1="95.65" x2="100.64" y2="95.65" gradientUnits="userSpaceOnUse"><stop offset="0" stop-color="#ece4f1"/><stop offset="0.98" stop-color="#c899c5"/></linearGradient><linearGradient id="linear-gradient-11" x1="85.01" y1="89.48" x2="101.2" y2="89.48" xlink:href="#linear-gradient-4"/><linearGradient id="linear-gradient-12" x1="97.54" y1="94.53" x2="101.86" y2="94.53" xlink:href="#linear-gradient-4"/><linearGradient id="linear-gradient-13" x1="105.64" y1="70.29" x2="116.14" y2="70.29" gradientUnits="userSpaceOnUse"><stop offset="0" stop-color="#001859"/><stop offset="0.16" stop-color="#001d6b"/><stop offset="0.37" stop-color="#00217a"/><stop offset="0.61" stop-color="#002382"/><stop offset="1" stop-color="#002485"/></linearGradient><linearGradient id="linear-gradient-14" x1="87.45" y1="77.14" x2="93.1" y2="77.14" xlink:href="#linear-gradient-13"/><linearGradient id="linear-gradient-15" x1="87.45" y1="69.67" x2="110.2" y2="69.67" xlink:href="#linear-gradient-13"/><linearGradient id="linear-gradient-16" x1="97.83" y1="78.58" x2="107.36" y2="78.58" gradientTransform="matrix(-1, 0, 0, 1, 218.21, 0)" xlink:href="#linear-gradient-4"/><linearGradient id="linear-gradient-17" x1="99.33" y1="78.58" x2="105.86" y2="78.58" gradientTransform="matrix(-1, 0, 0, 1, 218.21, 0)" xlink:href="#linear-gradient-5"/><linearGradient id="linear-gradient-18" x1="79.62" y1="78.58" x2="89.14" y2="78.58" xlink:href="#linear-gradient-4"/><linearGradient id="linear-gradient-19" x1="81.12" y1="78.58" x2="87.64" y2="78.58" xlink:href="#linear-gradient-5"/></defs><g class="cls-1"><g id="Layer_1" data-name="Layer 1"><circle class="cls-2" cx="100" cy="100" r="37.88"/><circle class="cls-3" cx="100" cy="100" r="37.88"/><path class="cls-4" d="M114.9,90.13c-3.68,0-5.79-4.21-5.79-11.55a25.41,25.41,0,0,1,.81-6.71c1.22-4.2,3.64-4.83,5-4.83,5.37,0,9.73,5.18,9.73,11.54S120.27,90.13,114.9,90.13Z"/><path class="cls-5" d="M60.75,83H56.61a.79.79,0,0,1-.8-1,1.2,1.2,0,0,1,1.14-1h4.14a.8.8,0,0,1,.8,1A1.21,1.21,0,0,1,60.75,83Z"/><path class="cls-6" d="M63.05,90.37H61.49a.8.8,0,0,1-.8-1,1.22,1.22,0,0,1,1.14-1h1.56a.79.79,0,0,1,.8,1A1.2,1.2,0,0,1,63.05,90.37Z"/><polyline class="cls-7" points="87.86 81.07 89.84 87.13 105.27 96.2"/></g><g id="color"><path class="cls-8" d="M69.29,110.34a69,69,0,0,1,25.76-4.67c14.81,0,27.87,4.08,35.66,10.31a42.72,42.72,0,0,1-61.42-5.64Z"/><path class="cls-9" d="M102.71,124.44a40.52,40.52,0,0,1-30-13.24,69.12,69.12,0,0,1,22.39-3.53c12.68,0,24.55,3.1,32.39,8.39A40.69,40.69,0,0,1,102.71,124.44Z"/><path class="cls-10" d="M67.25,110a73.71,73.71,0,0,1,27.48-5c15.78,0,29.71,4.35,38,11a45.55,45.55,0,0,1-65.5-6Z"/><polygon class="cls-11" points="92.19 110.99 107.81 115.17 104.68 96.2 93.24 96.2 92.19 110.99"/><path class="cls-12" d="M101.57,67.5h0A12.46,12.46,0,0,0,89.11,80V98.82c0,6.89,24.92,6.89,24.92,0v-11"/><path class="cls-13" d="M92.75,103.11a30.94,30.94,0,0,0,13.12.32l-1.19-7.23H93.24Z"/><path class="cls-14" d="M112.46,96.82V78A12.46,12.46,0,0,0,100,65.5h0A12.46,12.46,0,0,0,87.54,78V96.82C87.54,103.71,112.46,103.71,112.46,96.82Z"/><line class="cls-15" x1="78.53" y1="125.46" x2="134.07" y2="125.46"/><line class="cls-15" x1="56.96" y1="125.46" x2="74.53" y2="125.46"/><line class="cls-15" x1="138.07" y1="125.46" x2="143.04" y2="125.46"/><path class="cls-16" d="M95.63,78.58c0,7.34-2.11,11.55-5.79,11.55-5.37,0-9.74-5.18-9.74-11.55a12,12,0,0,1,5.13-10.16"/><path class="cls-17" d="M99,96.46a2.18,2.18,0,0,0-1.24,0l-8.86-5.68a1.5,1.5,0,0,0-1.62,2.53l9.12,5.84A2.16,2.16,0,1,0,99,96.46Z"/><polyline class="cls-18" points="86.51 84.27 87.35 92.13 99.7 94.69"/><path class="cls-19" d="M101.86,94.53a2.16,2.16,0,1,1-2.16-2.16A2.16,2.16,0,0,1,101.86,94.53Z"/><path class="cls-20" d="M106.41,73.45,108.63,76A3.13,3.13,0,0,0,114,74.77l2-7.3a3.14,3.14,0,0,0-2.22-3.86h0a3.12,3.12,0,0,0-3.14,1l-4.23,4.74A3.15,3.15,0,0,0,106.41,73.45Z"/><polygon class="cls-21" points="93.1 72.24 87.45 82.04 87.45 72.68 93.1 72.24"/><path class="cls-22" d="M110,68.25h0a3.44,3.44,0,0,1-2.12,2L92,75.59A3.45,3.45,0,0,1,87.72,71l1.71-4.17a3.42,3.42,0,0,1,2.91-2.12l14.13-1.16A3.44,3.44,0,0,1,110,68.25Z"/><path class="cls-23" d="M113.65,87.13c-3.72,0-3.72-17.09,0-17.09s6.73,3.83,6.73,8.54S117.37,87.13,113.65,87.13Z"/><path class="cls-24" d="M114,85.11c2.42-.23,4.41-3.13,4.41-6.53s-2-6.29-4.41-6.52c-.45.67-1.11,3-1.11,6.52S113.52,84.44,114,85.11Z"/><path class="cls-25" d="M86.35,87.13c3.72,0,3.72-17.09,0-17.09s-6.73,3.83-6.73,8.54S82.63,87.13,86.35,87.13Z"/><path class="cls-26" d="M86,85.11c-2.42-.23-4.41-3.13-4.41-6.53s2-6.29,4.41-6.52c.45.67,1.11,3,1.11,6.52S86.48,84.44,86,85.11Z"/></g></g></svg>