<svg width="1200" height="33" viewBox="0 0 1200 33" fill="none" xmlns="http://www.w3.org/2000/svg">
<path fill-rule="evenodd" clip-rule="evenodd" d="M61.6193 16.6944C62.3899 16.6944 63.1016 16.5946 63.7538 16.3949C64.4055 16.1955 64.9688 15.9108 65.443 15.5411C65.9175 15.1717 66.2879 14.7222 66.5547 14.193C66.8212 13.6641 66.9551 13.0598 66.9551 12.3806V12.3207C66.9551 11.0228 66.4903 10.0094 65.5617 9.2801C64.6325 8.55151 63.3284 8.18673 61.6489 8.18673H55.2467V16.6944H61.6193V16.6944ZM52.9048 6H61.8105C63.0926 6 64.2319 6.18472 65.2283 6.55415C66.224 6.92406 67.0475 7.43784 67.6987 8.09694C68.2112 8.61659 68.6058 9.22554 68.882 9.92428C69.158 10.6235 69.2965 11.392 69.2965 12.2309V12.2908C69.2965 13.1696 69.158 13.9533 68.882 14.6422C68.6058 15.3312 68.2165 15.9303 67.7135 16.4397C67.2102 16.9488 66.6135 17.3682 65.9235 17.6977C65.2329 18.0275 64.4836 18.2621 63.6748 18.4018L70.0477 26.9692H67.1727L61.1613 18.8212H55.2467V26.9692H52.9048V6V6Z" fill="white"/>
<path fill-rule="evenodd" clip-rule="evenodd" d="M80.2885 8.18673H73.2222V6H89.7302V8.18673H82.6639V26.9692H80.2885V8.18673" fill="white"/>
<path fill-rule="evenodd" clip-rule="evenodd" d="M94.1747 6H109.264V8.15689H96.5308V15.3162H107.922V17.4731H96.5308V24.8126H109.413V26.9692H94.1747V6" fill="white"/>
<path fill-rule="evenodd" clip-rule="evenodd" d="M122.572 16.6944C123.342 16.6944 124.054 16.5946 124.706 16.3949C125.358 16.1955 125.921 15.9108 126.395 15.5411C126.87 15.1717 127.24 14.7222 127.507 14.193C127.774 13.6641 127.907 13.0598 127.907 12.3806V12.3207C127.907 11.0228 127.443 10.0094 126.514 9.2801C125.585 8.55151 124.281 8.18673 122.601 8.18673H116.199V16.6944H122.572V16.6944ZM113.857 6H122.763C124.045 6 125.184 6.18472 126.181 6.55415C127.176 6.92406 128 7.43784 128.651 8.09694C129.164 8.61659 129.558 9.22554 129.834 9.92428C130.11 10.6235 130.249 11.392 130.249 12.2309V12.2908C130.249 13.1696 130.11 13.9533 129.834 14.6422C129.558 15.3312 129.169 15.9303 128.666 16.4397C128.163 16.9488 127.566 17.3682 126.876 17.6977C126.185 18.0275 125.436 18.2621 124.627 18.4018L131 26.9692H128.125L122.114 18.8212H116.199V26.9692H113.857V6V6Z" fill="white"/>
<path fill-rule="evenodd" clip-rule="evenodd" d="M18.6483 17.4134C19.5183 17.4134 20.3125 17.3038 21.0308 17.0839C21.7487 16.8642 22.3664 16.5498 22.8822 16.1402C23.3982 15.7309 23.7926 15.2465 24.066 14.6872C24.3389 14.1284 24.4757 13.4992 24.4757 12.8V12.7403C24.4757 11.2422 23.9542 10.109 22.9127 9.34004C21.8704 8.57133 20.4892 8.18673 18.7698 8.18673H13.398V17.4134H18.6483V17.4134ZM11 6H18.9368C20.1278 6 21.2134 6.15487 22.1933 6.46411C23.1726 6.77409 24.0104 7.21325 24.7071 7.78232C25.4042 8.35139 25.9388 9.04572 26.3126 9.86434C26.6861 10.6834 26.873 11.6122 26.873 12.6502V12.7102C26.873 13.8486 26.6507 14.8423 26.2068 15.6908C25.7626 16.54 25.1617 17.2537 24.405 17.8328C23.648 18.4121 22.7646 18.8466 21.7555 19.1358C20.746 19.4255 19.6762 19.5701 18.5456 19.5701H13.3979V26.9692H11V6V6Z" fill="white"/>
<path fill-rule="evenodd" clip-rule="evenodd" d="M44.3891 19.8353C41.7403 22.508 37.4269 22.508 34.7406 19.8353C32.0917 17.1626 32.0917 12.8099 34.7406 10.0988C37.3892 7.38797 41.7025 7.4261 44.3891 10.0988C47.0755 12.7715 47.0755 17.1244 44.3891 19.8353V19.8353ZM33.2883 8.62679C29.8141 12.1294 29.8141 17.7927 33.2883 21.2703L39.5714 27.6046L45.8547 21.2703C49.329 17.768 49.329 12.1044 45.8547 8.62679C42.3805 5.1244 36.7625 5.1244 33.2883 8.62679V8.62679Z" fill="white"/>
<path fill-rule="evenodd" clip-rule="evenodd" d="M42.8628 12.9897H40.8803V17.4377H41.7561C41.7793 16.9353 42.2121 16.5347 42.7424 16.5347C43.2729 16.5347 43.7057 16.9353 43.7289 17.4377H44.6509V15.3618C44.5342 14.9912 43.6013 14.5465 43.6013 14.5465L42.8628 12.9897ZM42.5903 13.3975H41.5796V14.3983H43.0569L42.5903 13.3975Z" fill="white"/>
<path fill-rule="evenodd" clip-rule="evenodd" d="M40.8414 11.7189H35.1271V18.0732H35.8045C35.8273 17.5175 36.2514 17.0744 36.7711 17.0744C37.291 17.0744 37.7152 17.5175 37.7379 18.0732H40.8414V11.7189ZM40.0794 15.7772H35.8889V15.9003H40.0794V15.7772ZM40.0794 13.3176H35.8889V13.4407H40.0794V13.3176ZM40.0794 14.5884H35.8889V14.7116H40.0794V14.5884Z" fill="white"/>
<path fill-rule="evenodd" clip-rule="evenodd" d="M44.9746 17.0957C44.9746 17.2912 44.9052 17.4377 44.8127 17.4377C44.7203 17.4377 44.6509 17.2912 44.6509 17.0957V16.5089C44.6509 16.3134 44.7203 16.1669 44.8127 16.1669C44.9052 16.1669 44.9746 16.3134 44.9746 16.5089V17.0957" fill="white"/>
<path fill-rule="evenodd" clip-rule="evenodd" d="M34.8157 17.7309C34.8157 17.9267 34.7463 18.0732 34.6539 18.0732C34.5615 18.0732 34.492 17.9267 34.492 17.7309V17.1446C34.492 16.9488 34.5615 16.8023 34.6539 16.8023C34.7463 16.8023 34.8157 16.9488 34.8157 17.1446V17.7309" fill="white"/>
<path fill-rule="evenodd" clip-rule="evenodd" d="M43.381 17.4378C43.381 17.7886 43.0966 18.0732 42.746 18.0732C42.3954 18.0732 42.1111 17.7886 42.1111 17.4378C42.1111 17.0869 42.3954 16.8023 42.746 16.8023C43.0966 16.8023 43.381 17.0869 43.381 17.4378" fill="white"/>
<path fill-rule="evenodd" clip-rule="evenodd" d="M37.3889 18.0308C37.3889 18.3817 37.1045 18.6662 36.7539 18.6662C36.4033 18.6662 36.119 18.3817 36.119 18.0308C36.119 17.6799 36.4033 17.3953 36.7539 17.3953C37.1045 17.3953 37.3889 17.6799 37.3889 18.0308" fill="white"/>
<path fill-rule="evenodd" clip-rule="evenodd" d="M153 21H171V19H153V21ZM153 16H171V14H153V16ZM153 9V11H171V9H153Z" fill="white"/>
<path fill-rule="evenodd" clip-rule="evenodd" d="M1107.14736,15.9069515 C1106.87135,15.6318911 1106.50053,15.5064501 1106.13139,15.5258408 L1106.13282,15.5246438 C1104.48055,15.5950248 1103.957,16.8961159 1103.83922,17.2741145 C1098.40264,15.4937624 1097.90375,11.3276377 1097.90375,11.3276377 L1098.95683,9.85059419 L1097.90375,11.3276377 C1098.97982,10.8850035 1099.39588,10.0856763 1099.55723,9.51784046 C1099.64317,9.30861257 1099.6774,9.08454243 1099.65897,8.86573889 C1099.65897,8.86573889 1099.65897,8.86717524 1099.65897,8.86980854 C1099.65897,8.86765402 1099.65897,8.86573889 1099.65897,8.86573889 L1099.65897,8.86573889 C1099.63335,8.56123332 1099.50672,8.26726096 1099.2781,8.0381636 L1096.62397,5.38331547 C1096.09659,4.85593672 1095.22066,4.87197592 1094.67269,5.41994232 L1093.92459,6.17234879 L1093.94494,6.19269704 C1093.69406,6.51276304 1093.48459,6.88190423 1093.32851,7.28001175 C1093.18463,7.65896798 1093.0951,8.02044866 1093.05417,8.3828869 C1092.70394,11.288617 1094.0316,13.9439439 1097.63492,17.5472599 C1102.61569,22.5277932 1106.62956,22.1514703 1106.80288,22.1330372 C1107.17992,22.0880317 1107.5414,21.9977812 1107.90887,21.855104 C1108.30338,21.7009361 1108.67229,21.4917082 1108.99211,21.2413051 L1109.00839,21.2559079 L1109.7663,20.5137953 C1110.31307,19.9658289 1110.32887,19.0903754 1109.80173,18.5613209 L1107.14736,15.9069515 Z M1099.65897,8.88058115 C1099.65897,8.87794784 1099.65897,8.87531454 1099.65897,8.87339941 C1099.65897,8.87555393 1099.65897,8.87770845 1099.65897,8.88058115 Z M1099.60606,9.318667 C1099.60606,9.31818822 1099.6063,9.31747004 1099.6063,9.31699126 C1099.6063,9.31770943 1099.6063,9.31818822 1099.60606,9.318667 Z M1099.65873,8.89757792 C1099.65873,8.89518401 1099.65873,8.8927901 1099.65897,8.89063558 C1099.65873,8.89302949 1099.65873,8.89518401 1099.65873,8.89757792 Z M1112.00724,14.4842498 C1111.45904,14.4842498 1111.01449,14.0397004 1111.01449,13.4914946 C1111.01449,8.25002479 1106.75021,3.9855104 1101.50851,3.9855104 C1100.9603,3.9855104 1100.51575,3.54096099 1100.51575,2.9927552 C1100.51575,2.44454941 1100.9603,2 1101.50851,2 C1104.57798,2 1107.46384,3.19528014 1109.63416,5.36583992 C1111.80448,7.5363997 1113,10.4220209 1113,13.4914946 C1113,14.0397004 1112.55569,14.4842498 1112.00724,14.4842498 Z M1108.11187,14.0236611 C1107.56367,14.0236611 1107.11912,13.5791117 1107.11912,13.0309059 C1107.11912,10.1912478 1104.80899,7.88112299 1101.96933,7.88112299 C1101.42113,7.88112299 1100.97658,7.43657358 1100.97658,6.88836779 C1100.97658,6.340162 1101.42113,5.89561259 1101.96933,5.89561259 C1105.90373,5.89561259 1109.10463,9.09651199 1109.10463,13.0309059 C1109.10463,13.5791117 1108.66032,14.0236611 1108.11187,14.0236611 Z" id="Shape" fill="white"></path>
</svg>
