<?xml version="1.0" encoding="UTF-8"?>
<svg width="60px" height="54px" viewBox="0 0 60 54" version="1.1" xmlns="http://www.w3.org/2000/svg" xmlns:xlink="http://www.w3.org/1999/xlink">
    <!-- Generator: Sketch 47.1 (45422) - http://www.bohemiancoding.com/sketch -->
    <title>Group@1x</title>
    <desc>Created with Sketch.</desc>
    <defs>
        <linearGradient x1="0%" y1="0%" x2="100%" y2="100%" id="linearGradient-1">
            <stop stop-color="#2962FF" offset="0%"></stop>
            <stop stop-color="#5E0BE0" offset="100%"></stop>
        </linearGradient>
    </defs>
    <g id="Home" stroke="none" stroke-width="1" fill="none" fill-rule="evenodd">
        <g id="home_landing-copy" transform="translate(-347.000000, -5764.000000)">
            <g id="Group" transform="translate(347.000000, 5764.000000)">
                <path d="M59.0232558,7.06348064 L59.0232558,23.6073213 C59.0232558,27.5244003 55.8961614,30.7029747 51.9962364,30.7029747 L33.0182272,30.7029747 C32.6471774,30.7029747 32.3416548,30.7008517 32.08605,30.6954623 C31.8182502,30.6899096 31.5167926,30.6877866 31.3992339,30.7008517 C31.2767972,30.7825085 30.9766404,31.058672 30.6873777,31.3263431 C30.5727457,31.4323337 30.4429921,31.5489397 30.3029948,31.6773042 L24.9336671,36.5927198 C24.5053827,36.9851626 23.8717363,37.0867438 23.34134,36.8518987 C22.8109437,36.6168903 22.4385931,36.089387 22.4385931,35.5071737 L22.4385931,19.9242708 L7.10880646,19.9242708 C4.82234634,19.9242708 2.92677302,21.8061345 2.92677302,24.1023251 L2.92677302,40.6461658 C2.92677302,42.9425196 4.82250894,44.7479525 7.10880646,44.7479525 L28.3074234,44.7479525 C28.672457,44.7479525 29.0139139,44.916329 29.2835022,45.1635859 L33.6578897,49.2144188 L33.6578897,35.2447286 C33.6578897,34.4328962 34.312999,33.7749053 35.1212762,33.7749053 C35.9295533,33.7749053 36.5846627,34.4328962 36.5846627,35.2447286 L36.5846627,52.5458549 C36.5846627,53.1280682 36.2529618,53.6477324 35.7224028,53.8827408 C35.5326504,53.9668473 35.342085,54 35.1425766,54 C34.7842095,54 34.4307204,53.8522011 34.1557663,53.6000448 L27.7401172,47.6874357 L7.10880646,47.6874357 C3.20871882,47.6874357 0,44.5632447 0,40.6460024 L0,24.1023251 C0,20.1852461 3.20871882,16.9846243 7.10880646,16.9846243 L22.4385931,16.9846243 L22.4385931,7.06348064 C22.4385931,3.14623834 25.6718643,0 29.571952,0 L51.996399,0 C55.8961614,0 59.0232558,3.14623834 59.0232558,7.06348064 Z" id="Shape" fill="url(#linearGradient-1)" fill-rule="nonzero"></path>
                <path d="M11.252093,30.1395349 C10.5862102,30.1395349 10.0465116,30.7017209 10.0465116,31.3953488 C10.0465116,32.0889767 10.5862102,32.6511628 11.252093,32.6511628 L11.3525581,32.6511628 C12.0184409,32.6511628 12.5581395,32.0889767 12.5581395,31.3953488 C12.5581395,30.7017209 12.0184409,30.1395349 11.3525581,30.1395349 L11.252093,30.1395349 Z" id="Path" fill="url(#linearGradient-1)"></path>
                <path d="M15.0195992,30.1395349 C14.3536809,30.1395349 13.8139535,30.7017209 13.8139535,31.3953488 C13.8139535,32.0889767 14.3536809,32.6511628 15.0195992,32.6511628 L15.1199357,32.6511628 C15.785854,32.6511628 16.3255814,32.0889767 16.3255814,31.3953488 C16.3255814,30.7017209 15.785854,30.1395349 15.1199357,30.1395349 L15.0195992,30.1395349 Z" id="Path" fill="url(#linearGradient-1)"></path>
                <path d="M40.1720076,20.0930233 C39.4706255,20.0930233 38.9302326,20.6541183 38.9302326,21.3464001 L38.9302326,21.3560093 C38.9302326,22.0482911 39.4707666,22.6046512 40.1720076,22.6046512 C40.8732486,22.6046512 41.4418605,22.0386819 41.4418605,21.3464001 C41.4418605,20.6541183 40.8733897,20.0930233 40.1720076,20.0930233 Z" id="Path" fill="#FFFFFF"></path>
                <path d="M45.2093023,12.9487981 C45.2093023,14.650634 43.9013738,15.6856326 42.9463213,16.445168 C42.5846234,16.7328567 41.9113816,17.2577842 41.9131787,17.4538582 C41.9197134,18.2229884 41.2668928,18.8372093 40.4547878,18.8372093 C40.4507035,18.8372093 40.4466193,18.8372093 40.4425351,18.8372093 C39.636148,18.8372093 38.9790798,18.2418685 38.972545,17.4766072 C38.9596389,15.9682144 40.1216793,15.064912 41.0554939,14.3222449 C41.7882018,13.7394392 42.2686686,13.3293396 42.2686686,12.9540597 C42.2686686,12.1943696 41.6161747,11.5762799 40.8141985,11.5762799 C40.0118956,11.5762799 39.3592383,12.1943696 39.3592383,12.9540597 C39.3592383,13.7233447 38.7010265,14.3468508 37.8889215,14.3468508 C37.0768165,14.3468508 36.4186047,13.7233447 36.4186047,12.9540597 C36.4186047,10.6584305 38.3902995,8.79069767 40.8138718,8.79069767 C43.2376074,8.79054292 45.2093023,10.6530141 45.2093023,12.9487981 Z" id="Path" fill="#FFFFFF"></path>
            </g>
        </g>
    </g>
</svg>