<svg xmlns="http://www.w3.org/2000/svg" xmlns:xlink="http://www.w3.org/1999/xlink" viewBox="0 0 200 200"><defs><style>.cls-1{isolation:isolate;}.cls-2,.cls-6{fill:#fff;}.cls-3{fill:url(#radial-gradient);}.cls-4{opacity:0.3;fill:url(#linear-gradient);}.cls-13,.cls-4{mix-blend-mode:multiply;}.cls-15,.cls-21,.cls-5{fill:none;}.cls-15,.cls-21,.cls-5,.cls-6{stroke-linecap:round;stroke-linejoin:round;}.cls-5{stroke-width:1.03px;stroke:url(#linear-gradient-2);}.cls-15,.cls-5{opacity:0.7;}.cls-6{stroke:#001859;stroke-width:2px;}.cls-7{fill:url(#linear-gradient-3);}.cls-8{fill:url(#linear-gradient-4);}.cls-9{fill:url(#linear-gradient-5);}.cls-10{fill:url(#linear-gradient-6);}.cls-11{fill:url(#linear-gradient-7);}.cls-12{fill:#fbbb13;}.cls-13{fill:url(#_ÂÁ_Ï_ÌÌ_È_ËÂÌÚ_106);}.cls-14{fill:url(#linear-gradient-8);}.cls-15{stroke-width:0.95px;stroke:url(#linear-gradient-9);}.cls-16{fill:url(#linear-gradient-10);}.cls-17{fill:url(#linear-gradient-11);}.cls-18{fill:url(#linear-gradient-12);}.cls-19{fill:url(#linear-gradient-13);}.cls-20{fill:url(#linear-gradient-14);}.cls-21{stroke:url(#linear-gradient-15);}.cls-22{fill:url(#linear-gradient-16);}</style><radialGradient id="radial-gradient" cx="100" cy="100" r="37.88" gradientUnits="userSpaceOnUse"><stop offset="0" stop-color="#fff" stop-opacity="0"/><stop offset="0.16" stop-color="#fef9f0" stop-opacity="0.21"/><stop offset="0.39" stop-color="#fdf2dd" stop-opacity="0.49"/><stop offset="0.6" stop-color="#fcecce" stop-opacity="0.71"/><stop offset="0.77" stop-color="#fce8c3" stop-opacity="0.87"/><stop offset="0.91" stop-color="#fbe5bc" stop-opacity="0.96"/><stop offset="1" stop-color="#fbe4ba"/></radialGradient><linearGradient id="linear-gradient" x1="-0.71" y1="124.9" x2="123.04" y2="124.9" gradientTransform="translate(33.82)" gradientUnits="userSpaceOnUse"><stop offset="0" stop-color="#fff" stop-opacity="0"/><stop offset="0.1" stop-color="#c3c2c3" stop-opacity="0.27"/><stop offset="0.32" stop-color="#696667" stop-opacity="0.68"/><stop offset="0.58" stop-color="#332f30" stop-opacity="0.93"/><stop offset="1" stop-color="#231f20"/></linearGradient><linearGradient id="linear-gradient-2" x1="18.5" y1="73.68" x2="44.65" y2="73.68" gradientTransform="matrix(1, 0, 0.18, 1, -15.65, 0)" gradientUnits="userSpaceOnUse"><stop offset="0" stop-color="#fff" stop-opacity="0"/><stop offset="0.11" stop-color="#fff" stop-opacity="0.2"/><stop offset="0.24" stop-color="#fff" stop-opacity="0.41"/><stop offset="0.37" stop-color="#fff" stop-opacity="0.59"/><stop offset="0.5" stop-color="#fff" stop-opacity="0.74"/><stop offset="0.63" stop-color="#fff" stop-opacity="0.85"/><stop offset="0.75" stop-color="#fff" stop-opacity="0.93"/><stop offset="0.88" stop-color="#fff" stop-opacity="0.98"/><stop offset="1" stop-color="#fff"/></linearGradient><linearGradient id="linear-gradient-3" x1="55.8" y1="82.04" x2="61.9" y2="82.04" gradientUnits="userSpaceOnUse"><stop offset="0" stop-color="#ee4036"/><stop offset="0.21" stop-color="#ee4335"/><stop offset="0.37" stop-color="#ef4d33"/><stop offset="0.51" stop-color="#f15d30"/><stop offset="0.65" stop-color="#f4742b"/><stop offset="0.77" stop-color="#f79225"/><stop offset="0.89" stop-color="#fbb61d"/><stop offset="1" stop-color="#ffdd15"/></linearGradient><linearGradient id="linear-gradient-4" x1="60.68" y1="89.4" x2="64.2" y2="89.4" xlink:href="#linear-gradient-3"/><linearGradient id="linear-gradient-5" x1="66.67" y1="112.89" x2="130.58" y2="112.89" gradientUnits="userSpaceOnUse"><stop offset="0" stop-color="#001859"/><stop offset="0.16" stop-color="#001d6b"/><stop offset="0.37" stop-color="#00217a"/><stop offset="0.61" stop-color="#002382"/><stop offset="1" stop-color="#002485"/></linearGradient><linearGradient id="linear-gradient-6" x1="71.56" y1="115.47" x2="86.91" y2="115.47" xlink:href="#linear-gradient-5"/><linearGradient id="linear-gradient-7" x1="73.21" y1="119.04" x2="85.26" y2="119.04" xlink:href="#linear-gradient-5"/><linearGradient id="_ÂÁ_Ï_ÌÌ_È_ËÂÌÚ_106" x1="67.24" y1="71.74" x2="114.02" y2="71.74" gradientUnits="userSpaceOnUse"><stop offset="0.02" stop-color="#c899c5"/><stop offset="1" stop-color="#ece4f1"/></linearGradient><linearGradient id="linear-gradient-8" x1="83.31" y1="104" x2="97.95" y2="104" xlink:href="#linear-gradient-5"/><linearGradient id="linear-gradient-9" x1="100.56" y1="89.18" x2="111.52" y2="89.18" gradientTransform="matrix(1, 0, 0, 1, 0, 0)" xlink:href="#linear-gradient-2"/><linearGradient id="linear-gradient-10" x1="118.48" y1="98.32" x2="147.33" y2="98.32" xlink:href="#linear-gradient-5"/><linearGradient id="linear-gradient-11" x1="128.31" y1="90.18" x2="137.29" y2="90.18" gradientUnits="userSpaceOnUse"><stop offset="0" stop-color="#fff" stop-opacity="0"/><stop offset="0.18" stop-color="#fff" stop-opacity="0.16"/><stop offset="0.58" stop-color="#fff" stop-opacity="0.56"/><stop offset="1" stop-color="#fff"/></linearGradient><linearGradient id="linear-gradient-12" x1="120.85" y1="115.47" x2="136.2" y2="115.47" xlink:href="#linear-gradient-5"/><linearGradient id="linear-gradient-13" x1="122.5" y1="119.04" x2="134.56" y2="119.04" xlink:href="#linear-gradient-5"/><linearGradient id="linear-gradient-14" x1="144.94" y1="106.66" x2="147.02" y2="106.66" gradientUnits="userSpaceOnUse"><stop offset="0" stop-color="#00e3b0"/><stop offset="0.2" stop-color="#00e39c"/><stop offset="0.5" stop-color="#00e383"/><stop offset="0.78" stop-color="#00e373"/><stop offset="1" stop-color="#00e36e"/></linearGradient><linearGradient id="linear-gradient-15" x1="121.86" y1="101.23" x2="126.54" y2="101.23" xlink:href="#linear-gradient-14"/><linearGradient id="linear-gradient-16" x1="60.2" y1="60.97" x2="121.06" y2="60.97" gradientUnits="userSpaceOnUse"><stop offset="0" stop-color="#f7941d"/><stop offset="0.01" stop-color="#f7911e"/><stop offset="0.17" stop-color="#f47427"/><stop offset="0.34" stop-color="#f15d2d"/><stop offset="0.53" stop-color="#ef4d32"/><stop offset="0.73" stop-color="#ee4335"/><stop offset="1" stop-color="#ee4036"/></linearGradient></defs><g class="cls-1"><g id="color"><circle class="cls-2" cx="100" cy="100" r="37.88"/><circle class="cls-3" cx="100" cy="100" r="37.88"/><path class="cls-4" d="M156.86,124.9c0,1-22,1.9-41.14,1.9s-82.61-.85-82.61-1.9S96.59,123,115.72,123,156.86,123.85,156.86,124.9Z"/><line class="cls-5" x1="16.35" y1="73.68" x2="41.47" y2="73.68"/><line class="cls-6" x1="78.53" y1="125.46" x2="134.07" y2="125.46"/><line class="cls-6" x1="56.96" y1="125.46" x2="74.53" y2="125.46"/><line class="cls-6" x1="138.07" y1="125.46" x2="143.04" y2="125.46"/><path class="cls-7" d="M60.75,83H56.61a.79.79,0,0,1-.8-1,1.2,1.2,0,0,1,1.14-1h4.14a.8.8,0,0,1,.8,1A1.21,1.21,0,0,1,60.75,83Z"/><path class="cls-8" d="M63.05,90.37H61.49a.8.8,0,0,1-.8-1,1.22,1.22,0,0,1,1.14-1h1.56a.79.79,0,0,1,.8,1A1.2,1.2,0,0,1,63.05,90.37Z"/><rect class="cls-9" x="66.67" y="109.93" width="63.92" height="5.92"/><path class="cls-10" d="M86.91,119.71c0-4.69-3.44-8.49-7.68-8.49s-7.67,3.8-7.67,8.49Z"/><path class="cls-11" d="M73.21,119.05a6,6,0,1,0,6-6A6,6,0,0,0,73.21,119.05Z"/><path class="cls-2" d="M76.51,119.05a2.7,2.7,0,1,0,2.7-2.71A2.7,2.7,0,0,0,76.51,119.05Z"/><rect class="cls-12" x="67.24" y="68.42" width="46.79" height="41.53"/><rect class="cls-13" x="67.24" y="69.42" width="46.79" height="4.65"/><path class="cls-14" d="M85.31,98.06H96a2,2,0,0,1,2,2V110H83.31v-9.89A2,2,0,0,1,85.31,98.06Z"/><polyline class="cls-15" points="111.04 71.07 111.04 107.3 101.04 107.3"/><path class="cls-16" d="M118.48,113.56a2.39,2.39,0,0,0,2.4,2.39h24.05a2.41,2.41,0,0,0,2.4-2.4V101.19a10.06,10.06,0,0,0-1.22-4.46l-8.41-14a4.73,4.73,0,0,0-3.64-2.06l-13.09,0a2.42,2.42,0,0,0-2.4,2.41Z"/><path class="cls-12" d="M125,94.81a1.25,1.25,0,0,1-1.2-1.24V86a1.21,1.21,0,0,1,1.2-1.21l7.6,0a2.42,2.42,0,0,1,1.84,1l7.16,11.37c.36.56.17.76-.41.45l-3.47-1.86a6.11,6.11,0,0,0-2.26-.6Z"/><path class="cls-17" d="M129.51,92.12a1.25,1.25,0,0,1-1.2-1.24V88.17a1.2,1.2,0,0,1,1.2-1.2h2.72a2.42,2.42,0,0,1,1.84,1l3,4.83c.36.56.17.76-.41.45l-.74-.4a6.38,6.38,0,0,0-2.26-.61Z"/><path class="cls-18" d="M136.2,119.71c0-4.69-3.43-8.49-7.67-8.49s-7.68,3.8-7.68,8.49Z"/><path class="cls-19" d="M122.5,119.05a6,6,0,1,0,6-6A6,6,0,0,0,122.5,119.05Z"/><path class="cls-2" d="M125.8,119.05a2.7,2.7,0,1,0,2.7-2.71A2.7,2.7,0,0,0,125.8,119.05Z"/><path class="cls-20" d="M145.15,104.24H147v4.84l-.79-.71A3.87,3.87,0,0,1,145.15,104.24Z"/><line class="cls-21" x1="122.36" y1="101.23" x2="126.04" y2="101.23"/><polygon class="cls-22" points="60.2 71.07 90.63 50.88 121.06 71.07 60.2 71.07"/></g></g></svg>